SplineFontDB: 3.0
FontName: EUFB5
FullName: EUFB5
FamilyName: Euler
Weight: Bold
Copyright: Copyright (c) 1997, 2009 American Mathematical Society (<http://www.ams.org>), with Reserved Font Name EUFB5.
Version: 003.001
ItalicAngle: 0
UnderlinePosition: -100
UnderlineWidth: 50
Ascent: 800
Descent: 200
LayerCount: 2
Layer: 0 0 "Back"  1
Layer: 1 0 "Fore"  0
UniqueID: 5031999
OS2Version: 0
OS2_WeightWidthSlopeOnly: 0
OS2_UseTypoMetrics: 0
CreationTime: 1245785330
ModificationTime: 1245785330
OS2TypoAscent: 0
OS2TypoAOffset: 1
OS2TypoDescent: 0
OS2TypoDOffset: 1
OS2TypoLinegap: 0
OS2WinAscent: 0
OS2WinAOffset: 1
OS2WinDescent: 0
OS2WinDOffset: 1
HheadAscent: 0
HheadAOffset: 1
HheadDescent: 0
HheadDOffset: 1
OS2Vendor: 'PfEd'
DEI: 91125
Encoding: UnicodeFull
UnicodeInterp: none
NameList: Adobe Glyph List
DisplaySize: -24
AntiAlias: 1
FitToEm: 1
BeginPrivate: 10
BlueValues 33 [ -22 0 458 478 670 672 690 691 ]
OtherBlues 13 [ -153 -133 ]
BlueScale 7 0.04379
BlueShift 1 7
BlueFuzz 1 1
StdHW 6 [ 86 ]
StdVW 7 [ 123 ]
ForceBold 4 true
StemSnapH 9 [ 52 86 ]
StemSnapV 10 [ 90 123 ]
EndPrivate
BeginChars: 1114164 447

StartChar: u1D589.alt.ssty2
Encoding: 1114112 -1 0
Width: 855
Flags: MW
HStem: -28 86 562 69
VStem: 209 128 534 131
LayerCount: 2
Fore
SplineSet
393 465 m 1
 410 456 l 1
 394 444 364 421 362 421 c 1
 351 412 347 400 344 388 c 0
 334 350 330 311 330 272 c 0
 330 240 333 209 336 178 c 0
 338 161 348 144 364 131 c 1
 396 101 438 79 481 58 c 1
 512 100 521 149 527 196 c 0
 533 238 535 279 535 321 c 0
 535 357 533 392 531 428 c 1
 456 483 374 533 277 560 c 0
 263 564 248 565 234 565 c 0
 219 565 202 560 186 554 c 1
 175 573 l 1
 222 594 279 620 338 631 c 1
 392 625 443 608 490 587 c 0
 553 559 610 524 665 486 c 1
 667 458 669 430 669 401 c 0
 669 300 653 200 616 102 c 1
 537 57 435 -1 377 -28 c 1
 318 8 263 45 211 85 c 1
 206 129 204 174 204 218 c 0
 204 267 207 315 215 364 c 1
 268 403 330 435 393 465 c 1
EndSplineSet
EndChar

StartChar: u1D58B.alt01.ssty2
Encoding: 1114113 -1 1
Width: 642
Flags: W
HStem: 359 46<162 252 162 252 146 252 381 513> 671 20G<381 420.5>
VStem: 252 29<514 558> 252 128<300.5 359 300.5 359 300.5 359 300.5 514>
LayerCount: 2
Fore
SplineSet
554 655 m 1xe0
 435 555 l 1
 409 572 367 598 350 598 c 0
 333 598 315 596 304 586 c 1
 291 577 281 565 281 551 c 0xe0
 281 536 288 522 296 509 c 0
 312 486 363 423 381 405 c 1
 531 405 l 1
 531 398 l 1
 513 359 l 1
 380 359 l 1xd0
 380 242 380 123 359 12 c 0
 356 -3 348 -20 339 -34 c 2
 215 -242 l 1
 193 -238 l 1
 209 -204 237 -141 242 -107 c 1
 249 -69 252 -24 252 18 c 2xe0
 252 359 l 1xd0
 146 359 l 1
 146 367 l 1
 162 405 l 1
 252 405 l 1
 252 514 l 2
 252 536 252 558 259 579 c 0
 263 594 271 607 282 621 c 0
 301 644 323 665 344 677 c 0
 365 688 373 691 389 691 c 0
 452 691 478 677 514 657 c 1
 550 676 l 1
 554 655 l 1xe0
EndSplineSet
EndChar

StartChar: u1D58B.alt02.ssty2
Encoding: 1114114 -1 2
Width: 636
Flags: W
HStem: 359 46<162 254 162 254 146 254 381 513>
VStem: 254 86 254 126<300.5 359 300.5 359 300.5 359 300.5 412.5>
LayerCount: 2
Fore
SplineSet
381 405 m 1xa0
 531 405 l 1
 531 398 l 1
 513 359 l 1
 380 359 l 1xa0
 380 242 380 119 358 10 c 0
 355 -5 348 -19 339 -33 c 0
 339 -34 251 -183 215 -242 c 1
 192 -239 l 1
 207 -205 237 -141 242 -107 c 1
 249 -69 254 -24 254 18 c 2xc0
 254 359 l 1
 146 359 l 1
 146 367 l 1
 162 405 l 1
 254 405 l 1
 254 420 244 444 234 469 c 0
 223 498 213 532 213 555 c 1
 257 603 306 649 362 688 c 1
 379 678 395 668 413 660 c 0
 425 655 438 651 452 651 c 0
 470 651 488 657 502 667 c 1
 514 655 l 1
 420 569 l 1
 377 569 335 576 294 586 c 1
 298 551 316 517 337 486 c 0
 355 460 367 438 381 405 c 1xa0
EndSplineSet
EndChar

StartChar: u1D58C.alt.ssty2
Encoding: 1114115 -1 3
Width: 861
Flags: MW
HStem: -212 78<348 470> -29 100 398 76
VStem: 205 119 529 151
LayerCount: 2
Fore
SplineSet
666 -49 m 1
 500 -196 l 1
 464 -204 426 -212 388 -212 c 0
 308 -212 234 -186 179 -143 c 1
 251 -44 l 1
 262 -44 l 1
 294 -103 374 -134 456 -134 c 0
 484 -134 516 -134 537 -118 c 0
 553 -106 556 -87 556 -71 c 0
 556 -29 541 38 528 92 c 1
 316 -29 l 1
 282 3 248 35 210 64 c 1
 208 98 207 132 207 166 c 0
 207 234 211 302 223 370 c 1
 286 409 357 441 427 474 c 1
 476 453 530 440 582 429 c 1
 674 474 l 1
 689 462 l 1
 658 400 654 334 654 268 c 0
 654 195 656 121 669 48 c 0
 672 30 677 3 677 -5 c 0
 677 -20 673 -35 666 -49 c 1
526 124 m 1
 528 347 l 1
 465 354 404 373 349 398 c 1
 329 354 324 299 324 258 c 0
 324 225 327 192 330 159 c 1
 333 144 340 129 352 117 c 0
 364 105 401 79 423 65 c 1
 526 124 l 1
EndSplineSet
EndChar

StartChar: u1D590.alt.ssty2
Encoding: 1114116 -1 4
Width: 642
Flags: MW
HStem: 359 46<153 218 153 218 137 218 345 462>
VStem: 218 126
LayerCount: 2
Fore
SplineSet
345 405 m 1
 480 405 l 1
 480 398 l 1
 462 359 l 1
 345 359 l 1
 345 282 345 175 348 130 c 1
 377 110 413 88 446 72 c 1
 515 92 l 1
 519 74 l 1
 455 42 390 9 334 -27 c 1
 293 6 250 36 202 62 c 1
 218 113 218 259 218 359 c 1
 137 359 l 1
 137 367 l 1
 153 405 l 1
 218 405 l 1
 218 492 218 611 210 663 c 1
 226 673 l 1
 259 597 l 1
 314 630 371 659 433 684 c 1
 450 676 l 1
 417 661 394 635 374 609 c 0
 352 580 350 546 350 512 c 1
 480 584 l 1
 500 560 516 535 531 509 c 1
 462 445 l 1
 455 443 l 1
 443 457 430 471 414 483 c 0
 405 490 394 497 381 497 c 0
 374 497 367 496 362 492 c 0
 345 477 345 437 345 405 c 1
EndSplineSet
EndChar

StartChar: u1D599.alt.ssty2
Encoding: 1114117 -1 5
Width: 646
Flags: MW
HStem: 359 46<173 245 173 245 157 245 371 476>
VStem: 245 126<321 359 321 359 321 359 405 405.5 321 532>
LayerCount: 2
Fore
SplineSet
371 405 m 1
 493 405 l 1
 493 398 l 1
 476 359 l 1
 371 359 l 1
 371 283 371 156 374 132 c 1
 403 105 438 81 480 67 c 1
 549 98 l 1
 557 77 l 1
 494 40 370 -33 369 -33 c 0
 329 -1 283 26 236 51 c 1
 241 109 245 168 245 226 c 2
 245 359 l 1
 157 359 l 1
 157 367 l 1
 173 405 l 1
 245 405 l 1
 245 532 l 1
 371 586 l 1
 384 577 l 1
 380 521 371 406 371 405 c 1
EndSplineSet
EndChar

StartChar: u1D584.alt.ssty2
Encoding: 1114118 -1 6
Width: 1288
Flags: MW
HStem: -221 55<516.5 683.5> 51 94<312 315.5> 619 62<322.5 465.5>
VStem: 139 113 522 140<328 436.5> 926 142<256.5 304.5>
LayerCount: 2
Fore
SplineSet
435 681 m 0
 496 681 543 662 582 632 c 0
 614 607 634 574 647 541 c 1
 722 593 810 637 897 680 c 1
 939 643 992 616 1046 590 c 1
 1055 499 1068 390 1068 317 c 0
 1068 196 1048 74 977 -35 c 1
 912 -89 840 -137 757 -172 c 1
 691 -201 619 -221 543 -221 c 0
 490 -221 436 -211 399 -181 c 0
 388 -173 371 -161 368 -155 c 1
 483 -45 l 1
 498 -47 l 1
 499 -81 516 -113 547 -137 c 1
 576 -158 615 -166 654 -166 c 0
 713 -166 766 -144 807 -112 c 0
 856 -74 878 -20 895 31 c 0
 919 107 926 185 926 263 c 0
 926 346 923 428 905 509 c 1
 862 535 816 559 766 575 c 1
 725 554 690 527 657 501 c 1
 660 480 662 448 662 425 c 0
 662 355 645 285 597 225 c 1
 578 216 494 167 445 139 c 1
 507 116 601 82 641 82 c 0
 660 82 679 88 696 96 c 0
 720 107 741 121 760 136 c 1
 766 114 l 1
 714 62 654 14 588 -29 c 0
 585 -30 579 -31 577 -31 c 0
 544 -31 490 -10 449 7 c 0
 400 27 339 51 292 51 c 0
 262 51 234 44 213 28 c 0
 195 15 181 1 165 -14 c 1
 142 6 l 1
 172 38 257 106 312 145 c 1
 370 145 430 157 472 189 c 0
 492 205 502 227 509 248 c 0
 519 279 522 312 522 344 c 0
 522 393 516 443 499 490 c 0
 487 525 469 559 436 584 c 0
 410 604 380 619 339 619 c 0
 306 619 272 607 258 597 c 0
 241 584 234 567 234 548 c 0
 234 536 245 522 254 512 c 0
 268 496 282 480 300 466 c 1
 328 442 357 407 357 386 c 0
 357 375 356 365 349 356 c 1
 340 342 332 328 318 317 c 0
 279 285 236 260 188 235 c 1
 170 254 l 1
 191 266 202 275 217 292 c 0
 228 304 237 318 237 333 c 0
 237 349 207 379 186 400 c 0
 171 415 152 429 140 446 c 1
 132 455 132 469 132 481 c 0
 132 504 145 525 159 545 c 0
 179 572 205 596 233 618 c 0
 282 656 353 681 435 681 c 0
EndSplineSet
EndChar

StartChar: u1D585.alt.ssty2
Encoding: 1114119 -1 7
Width: 991
Flags: MW
HStem: -148 46 69 75 283 98 602 76<388 525>
VStem: 232 140 645 146<123.5 124>
LayerCount: 2
Fore
SplineSet
382 360 m 1
 369 362 l 1
 387 381 l 1
 415 381 443 383 470 388 c 0
 489 392 508 397 522 408 c 0
 553 432 560 468 560 501 c 0
 560 527 548 552 524 571 c 0
 496 593 455 602 414 602 c 0
 362 602 311 590 273 561 c 2
 227 527 l 1
 207 550 l 1
 258 592 312 631 369 667 c 1
 410 674 452 678 493 678 c 0
 557 678 624 671 670 635 c 1
 698 615 709 586 709 557 c 0
 709 512 690 467 648 435 c 1
 609 404 563 377 506 371 c 1
 506 365 l 1
 584 365 665 356 720 313 c 1
 772 274 791 218 791 163 c 0
 791 84 764 3 690 -53 c 1
 618 -110 522 -148 417 -148 c 0
 370 -148 321 -141 288 -115 c 1
 251 -88 236 -49 234 -11 c 0
 233 12 226 47 214 57 c 0
 202 66 184 69 168 69 c 0
 146 69 125 61 106 53 c 1
 100 76 l 1
 132 95 168 113 205 127 c 0
 229 136 256 144 283 144 c 0
 308 144 334 139 352 125 c 0
 371 110 371 57 371 21 c 0
 371 1 374 -20 381 -40 c 1
 387 -54 393 -69 408 -79 c 1
 428 -95 461 -104 491 -104 c 0
 527 -104 556 -91 580 -72 c 1
 606 -53 619 -21 629 5 c 0
 641 38 645 74 645 109 c 0
 645 139 642 169 630 198 c 0
 621 221 609 242 587 259 c 0
 567 275 526 290 442 290 c 0
 410 290 378 287 346 281 c 1
 334 291 l 1
 382 360 l 1
EndSplineSet
EndChar

StartChar: uni2018.ssty2
Encoding: 8216 -1 8
Width: 488
Flags: MW
HStem: 410 299<249.5 288>
VStem: 163 148
LayerCount: 2
Fore
SplineSet
288 709 m 1
 304 695 l 1
 285 669 269 643 254 616 c 1
 246 604 241 591 241 577 c 0
 241 561 248 546 259 532 c 2
 301 483 l 2
 307 475 312 465 312 455 c 0
 312 443 303 431 291 424 c 1
 281 417 269 410 257 410 c 0
 242 410 232 418 224 426 c 0
 191 460 163 498 163 541 c 0
 163 566 179 588 195 609 c 0
 223 644 254 677 288 709 c 1
EndSplineSet
EndChar

StartChar: uni2019.ssty2
Encoding: 8217 -1 9
Width: 488
Flags: MW
HStem: 427 297
VStem: 158 148
LayerCount: 2
Fore
SplineSet
192 394 m 1
 175 408 l 1
 194 434 211 460 226 487 c 1
 234 499 238 512 238 526 c 0
 238 542 232 557 220 571 c 2
 179 620 l 2
 172 628 168 638 168 648 c 0
 168 660 176 672 189 679 c 1
 198 686 211 693 223 693 c 0
 237 693 248 685 256 677 c 0
 289 643 316 605 316 562 c 0
 316 537 301 515 284 494 c 0
 257 459 226 426 192 394 c 1
EndSplineSet
EndChar

StartChar: uni0021.ssty2
Encoding: 33 -1 10
Width: 593
Flags: MW
HStem: -12 117 184 21<277 277> 670 20<294.5 308.5>
VStem: 223 146
LayerCount: 2
Fore
SplineSet
228 46 m 0
 228 80 259 108 296 108 c 0
 334 108 365 80 365 46 c 0
 365 12 334 -16 296 -16 c 0
 259 -16 228 12 228 46 c 0
344 557 m 2
 298 186 l 1
 277 184 l 1
 241 567 l 2
 239 586 237 608 237 625 c 0
 237 637 238 649 242 661 c 1
 246 668 249 676 258 681 c 0
 271 688 286 690 303 690 c 0
 314 690 325 688 334 682 c 0
 347 672 351 658 351 644 c 0
 351 615 348 586 344 557 c 2
EndSplineSet
EndChar

StartChar: uni0026.ssty2
Encoding: 38 -1 11
Width: 1168
Flags: MW
HStem: -14 52<384 525> 355 48 662 35<486 575>
VStem: 151 129<158.5 254.5> 309 102 566 124<583.5 598.5> 777 82
LayerCount: 2
Fore
SplineSet
579 355 m 1
 580 404 l 1
 622 402 664 401 706 401 c 0
 812 401 918 404 1025 408 c 1
 1021 351 l 1
 984 353 889 355 852 355 c 1
 856 341 858 324 858 309 c 0
 858 236 822 163 759 112 c 1
 794 92 840 71 884 71 c 0
 901 71 920 75 933 85 c 0
 967 112 985 148 1002 184 c 1
 1029 178 l 1
 1011 120 986 63 931 20 c 0
 901 -3 861 -16 819 -16 c 0
 756 -16 697 5 651 37 c 1
 579 8 502 -14 421 -14 c 0
 347 -14 276 8 223 48 c 0
 175 84 151 133 151 184 c 0
 151 233 172 281 217 316 c 0
 244 337 296 372 339 394 c 1
 321 433 308 467 308 508 c 0
 308 556 321 606 366 641 c 0
 416 679 486 697 556 697 c 0
 594 697 632 689 659 668 c 0
 681 651 690 627 690 603 c 0
 690 564 669 527 634 500 c 0
 591 467 530 439 472 414 c 1
 508 368 556 305 579 278 c 0
 623 228 674 176 729 133 c 1
 765 165 777 210 777 252 c 0
 777 283 763 313 734 335 c 0
 711 353 677 357 645 357 c 0
 623 357 601 357 579 355 c 1
620 64 m 1
 565 112 513 161 468 215 c 0
 431 260 390 315 357 363 c 1
 344 357 329 348 318 340 c 0
 286 315 280 272 280 237 c 0
 280 180 312 125 365 85 c 1
 403 55 455 38 509 38 c 0
 541 38 587 50 620 64 c 1
456 445 m 1
 476 454 497 464 513 477 c 0
 550 506 566 547 566 588 c 0
 566 609 557 629 538 644 c 0
 526 653 513 662 496 662 c 0
 476 662 455 657 440 645 c 0
 417 627 411 601 411 576 c 0
 411 530 427 485 456 445 c 1
EndSplineSet
EndChar

StartChar: uni0027.ssty2
Encoding: 39 -1 12
Width: 485
Flags: MW
HStem: 436 21<219 219 219 240> 675 20<233.5 245>
VStem: 193 87<659.5 666.5 656.5 670>
LayerCount: 2
Fore
SplineSet
219 436 m 1
 195 629 l 2
 194 641 193 653 193 666 c 0
 193 674 197 681 205 686 c 0
 215 692 227 695 240 695 c 0
 250 695 261 694 269 688 c 0
 277 681 280 671 280 662 c 0
 280 651 277 635 274 622 c 2
 240 436 l 1
 219 436 l 1
EndSplineSet
EndChar

StartChar: uni0028.ssty2
Encoding: 40 -1 13
Width: 713
Flags: MW
HStem: -186 21<487 487> 718 20<487 487>
VStem: 252 66<239.5 310 231 318.5>
LayerCount: 2
Fore
SplineSet
487 -172 m 1
 487 -186 l 1
 426 -178 379 -145 343 -108 c 0
 302 -65 288 -13 276 38 c 0
 257 118 252 199 252 280 c 0
 252 357 258 435 278 510 c 0
 292 564 313 618 354 664 c 0
 386 699 433 725 487 738 c 1
 487 719 l 1
 444 702 412 673 391 639 c 0
 361 592 347 541 337 489 c 0
 323 418 318 346 318 274 c 0
 318 188 323 102 342 18 c 0
 348 -11 357 -40 370 -68 c 0
 380 -88 391 -107 409 -123 c 0
 431 -143 456 -165 487 -172 c 1
EndSplineSet
EndChar

StartChar: uni0029.ssty2
Encoding: 41 -1 14
Width: 713
Flags: MW
HStem: -187 21<220 220> 715 20<220 220>
VStem: 395 68
LayerCount: 2
Fore
SplineSet
220 715 m 1
 220 735 l 1
 264 728 303 708 334 682 c 0
 386 638 412 581 431 524 c 1
 456 441 464 357 464 272 c 0
 464 188 458 103 437 20 c 0
 424 -33 406 -88 360 -130 c 1
 326 -163 273 -179 220 -187 c 1
 220 -171 l 1
 258 -159 295 -145 322 -120 c 0
 337 -105 347 -87 355 -69 c 0
 366 -42 372 -15 378 12 c 1
 394 99 395 188 395 276 c 0
 395 355 390 434 370 511 c 0
 357 564 339 617 300 662 c 1
 279 684 252 703 220 715 c 1
EndSplineSet
EndChar

StartChar: uni002A.ssty2
Encoding: 42 -1 15
Width: 569
Flags: MW
HStem: 425 25 692 24
VStem: 264 45
LayerCount: 2
Fore
SplineSet
312 449 m 1
 259 449 l 1
 267 494 269 506 270 557 c 1
 234 534 204 514 172 481 c 1
 145 521 l 1
 183 536 219 553 254 574 c 1
 212 601 174 618 148 629 c 1
 180 662 l 1
 208 638 243 614 269 598 c 1
 269 637 269 662 259 702 c 1
 312 702 l 1
 302 663 300 642 297 602 c 1
 330 624 354 640 380 665 c 1
 414 628 l 1
 382 616 341 601 303 578 c 1
 344 549 380 536 415 524 c 1
 380 488 l 1
 359 508 332 526 297 548 c 1
 298 506 301 492 312 449 c 1
EndSplineSet
EndChar

StartChar: uni002B.ssty2
Encoding: 43 -1 16
Width: 1191
Flags: MW
HStem: 238 50<185 569 185 569 167 569 624 1008>
VStem: 569 55<-64 238 -64 238 -64 238 288 584 584 584>
LayerCount: 2
Fore
SplineSet
624 288 m 1
 1026 288 l 1
 1008 238 l 1
 624 238 l 1
 624 -64 l 1
 569 -83 l 1
 569 238 l 1
 167 238 l 1
 185 288 l 1
 569 288 l 1
 569 584 l 1
 624 598 l 1
 624 288 l 1
EndSplineSet
EndChar

StartChar: uni002C.ssty2
Encoding: 44 -1 17
Width: 514
Flags: MW
HStem: -192 299
VStem: 234 148
LayerCount: 2
Fore
SplineSet
264 -217 m 1
 235 -197 l 1
 238 -193 l 1
 260 -167 291 -125 301 -101 c 0
 306 -89 310 -73 310 -61 c 0
 310 -47 306 -33 297 -22 c 2
 219 61 l 1
 212 70 211 87 211 90 c 0
 211 106 227 122 239 130 c 0
 253 139 273 143 282 143 c 0
 293 143 314 134 323 124 c 0
 337 107 357 66 374 26 c 0
 381 9 383 -10 383 -27 c 0
 383 -53 372 -77 358 -98 c 1
 339 -130 315 -163 268 -214 c 1
 264 -217 l 1
EndSplineSet
EndChar

StartChar: uni2212.ssty2
Encoding: 8722 -1 18
Width: 1191
Flags: MW
HStem: 231 50<185 1005 164 1022>
LayerCount: 2
Fore
SplineSet
1005 231 m 1
 164 231 l 1
 185 281 l 1
 1022 281 l 1
 1005 231 l 1
EndSplineSet
EndChar

StartChar: uni002E.ssty2
Encoding: 46 -1 19
Width: 569
Flags: MW
HStem: -15 117
VStem: 218 147
LayerCount: 2
Fore
SplineSet
291 129 m 0
 335 129 370 97 370 57 c 0
 370 17 335 -15 291 -15 c 0
 247 -15 211 17 211 57 c 0
 211 97 247 129 291 129 c 0
EndSplineSet
EndChar

StartChar: uni002F.ssty2
Encoding: 47 -1 20
Width: 861
Flags: MW
HStem: -182 21 702 20<657 657>
VStem: 149 561
LayerCount: 2
Fore
SplineSet
700 719 m 1
 708 704 l 1
 197 -197 l 1
 154 -188 l 1
 150 -170 l 1
 657 722 l 1
 673 725 l 1
 700 719 l 1
EndSplineSet
EndChar

StartChar: uni0030.moldstyle.ssty2
Encoding: 1114120 -1 21
Width: 861
Flags: MW
HStem: -11 84 420 82
VStem: 150 111<159 280> 576 116
LayerCount: 2
Fore
SplineSet
449 502 m 1
 505 489 559 470 600 438 c 0
 657 395 691 336 691 274 c 0
 691 197 644 127 574 73 c 0
 542 48 506 27 467 11 c 0
 436 -2 402 -11 366 -11 c 0
 313 -11 263 7 226 35 c 0
 174 75 150 131 150 187 c 0
 150 272 193 353 271 412 c 1
 322 452 384 480 449 502 c 1
361 424 m 1
 328 409 314 395 299 373 c 1
 273 339 261 300 261 260 c 0
 261 202 291 146 345 105 c 1
 371 84 406 71 444 71 c 0
 476 71 513 74 536 92 c 0
 553 105 562 121 568 138 c 0
 576 160 576 188 576 211 c 0
 576 269 538 322 486 363 c 0
 453 389 406 414 361 424 c 1
EndSplineSet
EndChar

StartChar: uni0031.moldstyle.ssty2
Encoding: 1114121 -1 22
Width: 861
Flags: MW
HStem: 0 44 449 40
VStem: 383 125
LayerCount: 2
Fore
SplineSet
212 451 m 1
 210 482 l 1
 526 489 l 1
 515 407 509 325 509 242 c 2
 509 62 l 2
 509 52 519 43 532 42 c 0
 551 41 571 41 590 41 c 2
 708 42 l 1
 708 0 l 1
 164 0 l 1
 164 48 l 1
 223 48 282 46 342 45 c 0
 358 45 371 55 371 68 c 1
 378 157 386 252 386 336 c 0
 386 358 384 380 376 400 c 0
 366 422 339 434 312 438 c 2
 212 451 l 1
EndSplineSet
EndChar

StartChar: uni0032.moldstyle.ssty2
Encoding: 1114122 -1 23
Width: 861
Flags: MW
HStem: 4 97 421 70<329.5 451.5>
VStem: 443 135<317.5 401>
LayerCount: 2
Fore
SplineSet
696 1 m 1
 157 0 l 1
 153 25 l 1
 295 135 l 2
 336 167 374 202 404 242 c 0
 425 270 443 301 443 334 c 0
 443 358 436 383 413 400 c 0
 396 413 374 421 351 421 c 0
 308 421 255 399 210 380 c 1
 190 408 l 1
 234 431 279 453 327 470 c 0
 360 481 395 491 432 491 c 0
 471 491 512 486 540 464 c 0
 567 444 578 415 578 387 c 0
 578 362 565 338 549 316 c 0
 527 285 500 256 469 230 c 0
 421 188 326 107 325 107 c 0
 324 106 323 103 323 101 c 1
 326 96 335 96 342 96 c 0
 466 96 588 101 710 106 c 1
 725 102 l 1
 696 1 l 1
EndSplineSet
EndChar

StartChar: uni0033.moldstyle.ssty2
Encoding: 1114123 -1 24
Width: 861
Flags: MW
HStem: -193 44<317.5 349.5 294.5 402> 166 38<256 280> 423 65<346.5 466.5>
VStem: 524 156
LayerCount: 2
Fore
SplineSet
450 212 m 1
 455 201 l 1
 518 199 580 184 625 149 c 1
 663 121 680 81 680 41 c 0
 680 -18 653 -76 598 -119 c 0
 534 -168 447 -193 357 -193 c 0
 278 -193 208 -171 145 -137 c 1
 162 -112 l 1
 211 -134 266 -149 323 -149 c 0
 376 -149 428 -136 466 -107 c 0
 509 -75 527 -29 527 17 c 0
 527 55 520 96 483 124 c 0
 460 141 430 149 398 155 c 0
 351 164 304 166 256 166 c 1
 256 204 l 1
 325 204 398 214 448 252 c 0
 476 274 487 304 487 334 c 0
 487 361 470 387 445 406 c 0
 425 421 396 423 370 423 c 0
 323 423 282 403 242 383 c 1
 223 401 l 1
 283 449 355 488 443 488 c 0
 490 488 538 478 572 452 c 0
 600 431 618 402 618 372 c 0
 618 334 598 297 564 270 c 0
 531 245 493 225 450 212 c 1
EndSplineSet
EndChar

StartChar: uni0034.moldstyle.ssty2
Encoding: 1114124 -1 25
Width: 861
Flags: W
HStem: -1 58<226 479 226 480 596 627.5> -1 62<596 726>
VStem: 473 126 480 116<-26.5 -1>
LayerCount: 2
Fore
SplineSet
600 -158 m 1xa0
 486 -198 l 1
 474 -188 l 1xa0
 480 -1 l 1
 119 -1 l 1
 119 28 l 1
 504 480 l 1
 596 495 l 1
 607 482 l 1
 600 402 596 234 596 57 c 1x90
 659 57 691 58 726 61 c 1
 706 -1 l 1x50
 596 -1 l 1x90
 596 -52 597 -107 600 -158 c 1xa0
226 57 m 1
 479 57 l 1
 479 359 l 1
 474 362 l 1
 409 307 305 177 226 68 c 1
 226 57 l 1
EndSplineSet
EndChar

StartChar: uni0035.moldstyle.ssty2
Encoding: 1114125 -1 26
Width: 861
Flags: MW
HStem: -191 39<311.5 320.5 266 398> 193 49<334.5 449.5> 388 93<274 279 279 640>
VStem: 209 56 513 161
LayerCount: 2
Fore
SplineSet
673 481 m 1
 640 388 l 1
 279 388 l 2
 269 388 264 379 264 370 c 2
 264 224 l 1
 276 219 l 1
 320 235 367 242 415 242 c 0
 484 242 557 232 608 193 c 0
 654 157 675 108 675 57 c 0
 675 -5 654 -69 596 -114 c 0
 532 -164 444 -191 352 -191 c 0
 271 -191 192 -174 125 -138 c 1
 144 -112 l 1
 189 -135 239 -152 293 -152 c 0
 348 -152 403 -138 442 -108 c 0
 493 -68 513 -11 513 44 c 0
 513 88 501 134 460 165 c 0
 433 186 394 193 357 193 c 0
 312 193 271 175 239 152 c 1
 210 162 l 1
 210 481 l 1
 673 481 l 1
EndSplineSet
EndChar

StartChar: uni0036.moldstyle.ssty2
Encoding: 1114126 -1 27
Width: 861
Flags: MW
HStem: -12 51<365 480> 319 67 646 58<586.5 588.5>
VStem: 158 136 600 106<187 187.5>
LayerCount: 2
Fore
SplineSet
696 625 m 1
 668 623 l 1
 640 638 606 646 571 646 c 0
 508 646 450 622 406 588 c 0
 368 558 343 519 325 479 c 0
 304 432 295 380 292 331 c 1
 303 328 l 1
 362 359 427 386 499 386 c 0
 549 386 600 375 636 347 c 0
 680 312 706 265 706 216 c 0
 706 158 669 105 616 64 c 0
 556 18 477 -12 392 -12 c 0
 338 -12 290 8 252 36 c 1
 179 93 158 174 158 253 c 0
 158 379 219 501 335 591 c 1
 420 655 526 704 647 704 c 0
 652 704 687 699 708 697 c 1
 696 625 l 1
295 286 m 1
 296 241 303 196 320 153 c 0
 332 122 349 91 379 68 c 0
 401 50 431 39 464 39 c 0
 496 39 531 47 554 64 c 0
 587 90 600 130 600 165 c 0
 600 210 578 254 537 286 c 0
 506 310 465 322 422 322 c 0
 377 322 339 311 295 286 c 1
EndSplineSet
EndChar

StartChar: uni0037.moldstyle.ssty2
Encoding: 1114127 -1 28
Width: 861
Flags: MW
HStem: -198 21<170 291 170 170> 375 104<581.5 587>
VStem: 164 592
LayerCount: 2
Fore
SplineSet
291 -198 m 1
 170 -198 l 1
 164 -175 l 1
 590 358 l 2
 592 361 594 363 594 366 c 0
 594 370 592 375 582 375 c 0
 581 375 315 369 182 365 c 1
 167 376 l 1
 200 479 l 1
 755 479 l 1
 755 456 l 1
 571 251 418 30 291 -198 c 1
EndSplineSet
EndChar

StartChar: uni0038.moldstyle.ssty2
Encoding: 1114128 -1 29
Width: 861
Flags: MW
HStem: -5 47 665 50
VStem: 154 125 579 122<140.5 231>
LayerCount: 2
Fore
SplineSet
382 336 m 1
 355 325 329 310 312 290 c 0
 286 261 280 229 280 196 c 0
 280 149 304 103 347 70 c 0
 371 52 404 38 437 38 c 0
 472 38 511 43 536 63 c 0
 567 87 579 124 579 157 c 0
 579 197 550 233 514 261 c 0
 479 288 425 316 382 336 c 1
509 401 m 1
 548 381 600 353 623 335 c 0
 668 301 701 256 701 206 c 0
 701 152 670 102 621 64 c 0
 559 16 472 -5 384 -5 c 0
 323 -5 261 8 217 41 c 0
 176 73 154 116 154 161 c 0
 154 207 176 253 219 286 c 0
 257 315 303 338 352 357 c 1
 308 385 273 411 242 447 c 0
 219 473 202 502 202 533 c 0
 202 574 233 609 269 638 c 1
 316 674 377 696 439 715 c 1
 479 713 518 708 556 699 c 0
 582 693 609 685 629 669 c 0
 657 647 675 617 675 586 c 0
 675 550 657 517 632 487 c 1
 601 452 556 424 509 401 c 1
471 424 m 1
 524 452 552 503 552 551 c 0
 552 580 541 609 513 630 c 0
 484 653 446 670 408 676 c 1
 385 667 361 650 347 635 c 0
 331 617 323 592 323 570 c 0
 323 548 343 524 361 507 c 0
 393 476 429 450 471 424 c 1
EndSplineSet
EndChar

StartChar: uni0039.moldstyle.ssty2
Encoding: 1114129 -1 30
Width: 861
Flags: MW
HStem: -195 32 43 72 425 63
VStem: 137 134<257 266.5> 555 154<204.5 230>
LayerCount: 2
Fore
SplineSet
534 104 m 1
 501 83 452 62 416 53 c 0
 396 48 362 43 342 43 c 0
 290 43 247 67 211 95 c 0
 162 133 137 185 137 238 c 0
 137 295 157 353 210 394 c 0
 244 421 336 459 403 488 c 1
 479 488 556 474 610 432 c 0
 681 377 709 298 709 221 c 0
 709 108 675 -8 569 -90 c 0
 471 -165 335 -195 198 -195 c 1
 198 -164 l 1
 282 -159 367 -145 427 -98 c 1
 493 -48 535 26 542 98 c 1
 534 104 l 1
526 130 m 0
 537 139 544 151 547 163 c 1
 554 179 555 196 555 213 c 0
 555 247 550 282 537 314 c 0
 526 340 511 370 486 390 c 1
 459 410 424 435 389 446 c 1
 355 433 340 426 321 410 c 1
 305 398 289 370 282 354 c 1
 274 331 271 308 271 284 c 0
 271 230 305 179 356 141 c 0
 380 122 416 115 450 115 c 0
 477 115 506 115 526 130 c 0
EndSplineSet
EndChar

StartChar: uni003A.ssty2
Encoding: 58 -1 31
Width: 490
Flags: MW
HStem: -16 145<223.5 267> 334 144<223 267>
VStem: 166 158<386 426>
LayerCount: 2
Fore
SplineSet
245 478 m 0
 289 478 324 446 324 406 c 0
 324 366 289 334 245 334 c 0
 201 334 166 366 166 406 c 0
 166 446 201 478 245 478 c 0
245 129 m 0
 289 129 325 97 325 57 c 0
 325 17 289 -16 245 -16 c 0
 202 -16 166 17 166 57 c 0
 166 97 202 129 245 129 c 0
EndSplineSet
EndChar

StartChar: uni003B.ssty2
Encoding: 59 -1 32
Width: 490
Flags: MW
HStem: -190 289 343 116
VStem: 167 172
LayerCount: 2
Fore
SplineSet
244 479 m 0
 288 479 323 447 323 407 c 0
 323 367 288 334 244 334 c 0
 200 334 164 367 164 407 c 0
 164 447 200 479 244 479 c 0
218 -217 m 1
 189 -197 l 1
 192 -193 l 1
 214 -167 244 -125 255 -101 c 0
 260 -89 263 -73 263 -61 c 0
 263 -47 259 -33 250 -22 c 2
 173 61 l 2
 166 70 165 87 165 90 c 0
 165 106 181 122 192 130 c 0
 206 139 227 143 235 143 c 0
 247 143 268 134 277 124 c 0
 291 107 311 66 328 26 c 0
 335 9 337 -10 337 -27 c 0
 337 -53 326 -77 312 -98 c 1
 293 -130 269 -163 221 -214 c 1
 218 -217 l 1
EndSplineSet
EndChar

StartChar: uni003D.ssty2
Encoding: 61 -1 33
Width: 849
Flags: MW
HStem: 164 50<141 709 129 720> 299 50<141 709 129 720>
LayerCount: 2
Fore
SplineSet
709 299 m 1
 129 299 l 1
 141 349 l 1
 720 349 l 1
 709 299 l 1
709 164 m 1
 129 164 l 1
 141 214 l 1
 720 214 l 1
 709 164 l 1
EndSplineSet
EndChar

StartChar: uni003F.ssty2
Encoding: 63 -1 34
Width: 679
Flags: MW
HStem: -15 129 170 21 654 45
VStem: 210 162 448 122<550 564>
LayerCount: 2
Fore
SplineSet
291 121 m 0
 335 121 371 89 371 49 c 0
 371 9 335 -24 291 -24 c 0
 248 -24 212 9 212 49 c 0
 212 89 248 121 291 121 c 0
273 534 m 1
 187 489 l 1
 180 492 175 495 170 500 c 1
 152 513 148 533 148 552 c 0
 148 581 160 610 188 631 c 1
 242 674 316 699 394 699 c 0
 442 699 490 689 524 663 c 0
 554 640 570 609 570 577 c 0
 570 523 540 474 487 438 c 2
 344 338 l 2
 322 322 303 299 303 275 c 0
 303 255 314 239 333 224 c 1
 333 215 l 1
 257 168 l 1
 245 173 234 179 223 187 c 0
 205 201 196 220 196 240 c 0
 196 267 214 293 240 311 c 2
 372 398 l 2
 431 437 448 490 448 549 c 0
 448 579 434 609 405 631 c 0
 387 645 361 659 335 659 c 0
 307 659 279 652 259 637 c 0
 245 626 238 606 238 591 c 0
 238 575 247 559 260 546 c 2
 273 534 l 1
EndSplineSet
EndChar

StartChar: u1D56C.ssty2
Encoding: 120172 -1 35
Width: 1141
Flags: MW
HStem: -31 21<491 491> 77 82 624 64<340.5 488>
VStem: 137 113<496 555.5> 558 136 746 144
LayerCount: 2
Fore
SplineSet
746 124 m 1
 491 -31 l 1
 461 -2 430 26 392 49 c 0
 369 63 345 73 315 73 c 0
 278 73 213 50 169 31 c 1
 145 48 l 1
 365 176 l 2
 394 193 422 212 448 232 c 0
 524 291 558 373 558 455 c 0
 558 504 528 550 483 585 c 0
 452 609 406 624 360 624 c 0
 321 624 296 617 274 600 c 0
 256 586 250 565 250 546 c 0
 250 534 257 523 264 513 c 1
 277 498 291 485 306 472 c 1
 324 458 342 444 355 427 c 1
 364 417 371 407 371 395 c 0
 371 365 347 339 321 318 c 1
 285 291 244 268 200 249 c 1
 179 264 l 1
 200 275 218 288 235 304 c 1
 245 315 255 327 255 341 c 0
 255 357 222 389 198 411 c 0
 181 427 166 444 152 463 c 1
 145 476 137 489 137 503 c 0
 137 531 155 559 188 586 c 0
 244 633 376 688 456 688 c 0
 520 688 584 673 630 638 c 0
 672 605 695 561 695 515 c 0
 695 446 667 379 629 317 c 1
 416 159 l 1
 444 159 471 150 496 138 c 0
 530 122 559 101 586 79 c 1
 626 88 692 125 742 153 c 1
 742 582 l 1
 933 687 l 1
 949 674 l 1
 893 623 l 1
 884 574 883 408 883 300 c 0
 883 260 885 219 888 179 c 1
 951 78 l 1
 1009 99 l 1
 1015 77 l 1
 956 42 900 4 840 -29 c 1
 827 -26 l 1
 746 124 l 1
EndSplineSet
EndChar

StartChar: u1D56D.ssty2
Encoding: 120173 -1 36
Width: 1357
Flags: MW
HStem: -31 85<734 965.5> 621 64
VStem: 167 111<473.5 576> 534 147 1015 136<193.5 202>
LayerCount: 2
Fore
SplineSet
1102 100 m 1
 912 -11 l 1
 884 -24 844 -31 806 -31 c 0
 662 -31 546 41 406 41 c 0
 336 41 272 21 212 -9 c 1
 197 15 l 1
 362 98 l 1
 403 120 445 143 481 171 c 0
 544 221 545 287 545 355 c 0
 545 392 545 431 537 467 c 0
 521 537 460 627 368 627 c 0
 319 627 278 596 278 556 c 0
 278 512 404 444 404 396 c 0
 404 341 280 279 211 246 c 1
 189 259 l 1
 196 263 l 2
 232 284 281 312 281 346 c 0
 281 386 167 438 167 509 c 0
 167 538 211 578 244 604 c 0
 308 654 386 685 470 685 c 0
 558 685 626 636 660 577 c 1
 737 626 831 685 927 685 c 0
 951 685 975 681 994 667 c 0
 1032 638 1030 505 1097 505 c 0
 1120 505 1142 509 1164 515 c 1
 1164 491 l 1
 940 388 l 1
 940 383 l 1
 1101 366 1151 303 1151 216 c 0
 1151 171 1134 137 1102 100 c 1
655 241 m 1
 496 137 l 1
 587 135 676 114 761 88 c 0
 816 71 875 54 930 54 c 0
 1001 54 1015 104 1015 144 c 0
 1015 260 916 327 787 327 c 0
 751 327 716 323 681 316 c 1
 677 291 666 265 655 241 c 1
684 346 m 1
 775 365 875 392 961 433 c 1
 937 445 919 459 915 478 c 1
 903 502 906 619 830 619 c 0
 767 619 717 576 678 520 c 1
 685 490 686 462 686 419 c 0
 686 394 685 368 684 346 c 1
EndSplineSet
EndChar

StartChar: u1D56E.ssty2
Encoding: 120174 -1 37
Width: 1005
Flags: MW
HStem: -32 78 514 55 657 20
VStem: 183 141<327 337> 491 150<319.5 421.5>
LayerCount: 2
Fore
SplineSet
449 593 m 1
 477 568 l 1
 567 620 667 661 778 677 c 1
 788 638 807 572 866 572 c 0
 875 572 895 575 907 578 c 1
 907 553 l 1
 877 542 791 513 753 513 c 0
 705 513 666 573 643 611 c 1
 608 604 597 578 597 555 c 0
 597 515 641 448 641 395 c 0
 641 363 634 329 604 306 c 0
 555 268 483 247 416 227 c 2
 403 223 l 1
 381 237 l 1
 436 251 491 298 491 341 c 0
 491 408 452 478 452 533 c 0
 452 542 453 549 456 555 c 1
 349 547 324 447 324 371 c 0
 324 283 354 194 435 131 c 0
 504 78 596 45 692 45 c 0
 716 45 742 46 761 54 c 2
 888 108 l 1
 893 81 l 1
 710 -22 l 1
 679 -28 648 -32 616 -32 c 0
 504 -32 389 -12 310 50 c 0
 223 117 183 212 183 306 c 0
 183 368 203 429 235 485 c 1
 258 501 371 562 449 593 c 1
EndSplineSet
EndChar

StartChar: u1D56F.ssty2
Encoding: 120175 -1 38
Width: 1289
Flags: MW
HStem: -29 21<705 731> 63 97 597 88<551.5 577.5>
VStem: 138 28<365 414.5> 376 140 963 128<235.5 411>
LayerCount: 2
Fore
SplineSet
559 549 m 1
 583 538 l 1
 553 516 515 486 515 463 c 0
 515 413 633 352 633 289 c 0
 633 226 538 180 456 152 c 1
 521 142 645 112 743 88 c 0
 770 81 800 75 830 75 c 0
 923 75 963 193 963 278 c 0
 963 365 935 451 855 513 c 0
 770 578 637 597 518 597 c 0
 420 597 317 580 247 526 c 0
 191 483 169 425 166 365 c 1
 138 372 l 1
 138 457 173 541 252 602 c 0
 339 669 489 685 614 685 c 0
 752 685 893 659 990 584 c 0
 1063 527 1091 450 1091 372 c 0
 1091 296 1060 212 1005 141 c 1
 916 73 835 24 731 -29 c 1
 679 -29 620 -11 567 5 c 0
 481 31 374 63 304 63 c 0
 239 63 194 22 158 -14 c 1
 139 5 l 1
 185 63 247 113 310 161 c 1
 385 161 498 162 498 232 c 0
 498 283 382 345 382 396 c 0
 382 459 489 515 559 549 c 1
EndSplineSet
EndChar

StartChar: u1D570.ssty2
Encoding: 120176 -1 39
Width: 1070
Flags: MW
HStem: -29 83<580.5 617> 517 59 667 20<776 776>
VStem: 185 134 493 116
LayerCount: 2
Fore
SplineSet
780 461 m 1
 802 425 829 396 870 372 c 1
 870 360 l 1
 772 305 l 1
 758 312 744 318 723 331 c 2
 684 356 l 2
 679 359 673 362 667 362 c 0
 657 362 650 358 642 353 c 1
 608 290 496 249 410 226 c 1
 386 240 l 1
 434 257 494 292 494 333 c 0
 494 363 489 396 479 427 c 0
 468 460 452 496 452 529 c 0
 452 542 454 555 458 567 c 1
 362 549 320 438 320 371 c 0
 320 207 482 54 679 54 c 0
 757 54 831 77 894 112 c 1
 894 85 l 1
 723 -18 l 1
 681 -25 638 -29 596 -29 c 0
 492 -29 386 -5 311 52 c 0
 224 119 185 211 185 305 c 0
 185 366 198 427 230 483 c 1
 296 526 369 564 443 599 c 1
 490 581 l 1
 577 628 675 661 776 687 c 1
 778 680 l 1
 790 642 813 577 860 577 c 0
 875 577 897 581 911 584 c 1
 908 557 l 1
 862 544 765 517 764 517 c 0
 760 516 756 516 752 516 c 0
 736 516 719 530 709 542 c 2
 644 618 l 1
 623 606 604 590 604 570 c 0
 604 509 646 440 646 381 c 1
 780 461 l 1
EndSplineSet
EndChar

StartChar: u1D571.ssty2
Encoding: 120177 -1 40
Width: 1003
Flags: MW
HStem: -147 40<424.5 458.5> 169 61 596 88<345 364.5>
VStem: 240 123 391 114<146 192> 620 123<13 53>
LayerCount: 2
Fore
SplineSet
587 299 m 1
 752 418 l 1
 786 393 806 361 828 324 c 1
 754 264 l 1
 733 292 717 313 680 313 c 0
 657 313 628 296 607 280 c 1
 665 225 743 149 743 91 c 0
 743 -65 516 -147 401 -147 c 0
 359 -147 313 -140 283 -117 c 0
 249 -91 240 -51 240 -14 c 0
 240 30 256 63 256 116 c 0
 256 142 237 169 198 169 c 0
 180 169 149 156 128 146 c 1
 124 169 l 1
 184 200 250 230 322 230 c 0
 360 230 391 205 391 176 c 0
 391 116 364 66 364 -16 c 0
 364 -62 391 -107 458 -107 c 0
 522 -107 620 -75 620 35 c 0
 620 71 571 126 527 170 c 2
 505 192 l 1
 456 243 391 316 391 360 c 0
 391 426 493 487 572 522 c 1
 497 554 393 596 336 596 c 0
 247 596 214 521 198 465 c 1
 170 481 l 1
 196 582 267 684 423 684 c 0
 475 684 565 657 629 632 c 1
 651 623 l 1
 698 605 761 581 788 581 c 0
 816 581 865 617 899 642 c 1
 912 626 l 1
 862 581 784 512 746 486 c 1
 702 488 653 499 612 510 c 1
 561 496 505 470 505 423 c 0
 505 381 549 335 587 299 c 1
EndSplineSet
EndChar

StartChar: u1D572.ssty2
Encoding: 120178 -1 41
Width: 1229
Flags: MW
HStem: -29 80 382 76 526 86 668 20
VStem: 186 129<301 348.5> 440 177 895 139
LayerCount: 2
Fore
SplineSet
444 596 m 1
 482 584 l 1
 531 614 585 640 641 662 c 1
 665 650 l 1
 618 632 580 590 580 550 c 0
 580 521 599 453 614 406 c 1
 687 440 l 1
 812 526 l 1
 754 535 702 555 681 612 c 1
 805 692 l 1
 822 636 859 612 920 612 c 0
 933 612 967 620 992 631 c 1
 995 607 l 1
 915 558 844 511 770 458 c 1
 902 458 1033 405 1033 291 c 0
 1033 196 964 115 858 64 c 1
 694 -18 l 1
 655 -23 619 -27 588 -27 c 0
 324 -27 186 146 186 318 c 0
 186 379 198 444 239 496 c 1
 307 535 376 568 444 596 c 1
428 214 m 1
 416 232 l 1
 453 245 489 270 489 311 c 0
 489 324 477 381 466 413 c 0
 449 463 443 493 443 513 c 0
 443 532 444 552 457 568 c 1
 362 561 315 469 315 391 c 0
 315 211 479 49 690 49 c 0
 820 49 895 118 895 216 c 0
 895 310 816 389 692 389 c 0
 667 389 643 388 618 380 c 1
 620 369 621 357 621 345 c 0
 621 271 553 253 470 227 c 2
 428 214 l 1
EndSplineSet
EndChar

StartChar: u1D573.ssty2
Encoding: 120179 -1 42
Width: 1145
Flags: MW
HStem: -127 58<629 708.5> 30 96 386 87 534 85<565.5 684> 664 20
VStem: 275 109 422 111 795 139
LayerCount: 2
Fore
SplineSet
495 127 m 1
 312 -18 l 1
 294 -3 274 11 254 22 c 1
 239 29 224 36 206 36 c 0
 170 36 133 6 123 -3 c 1
 105 15 l 1
 157 62 233 132 281 132 c 0
 327 132 365 103 390 76 c 1
 409 96 422 116 422 140 c 0
 422 174 377 241 343 289 c 1
 307 337 276 389 276 445 c 0
 276 470 291 493 307 514 c 0
 334 547 366 576 400 604 c 0
 436 634 483 659 527 684 c 1
 550 666 576 649 603 636 c 0
 622 627 643 619 665 619 c 0
 703 619 762 653 788 670 c 1
 802 652 l 1
 764 620 704 572 650 541 c 1
 633 537 615 534 598 534 c 0
 533 534 476 561 425 590 c 1
 403 572 384 550 384 525 c 0
 384 502 391 480 401 459 c 0
 416 424 438 388 459 357 c 1
 521 400 597 445 665 479 c 1
 735 479 828 456 870 434 c 0
 881 429 903 405 907 394 c 0
 929 336 933 303 933 242 c 0
 933 155 917 69 877 -12 c 0
 876 -12 760 -79 701 -112 c 0
 686 -120 668 -127 650 -127 c 0
 608 -127 570 -110 543 -87 c 1
 608 -17 l 1
 625 -16 l 1
 632 -30 643 -44 657 -54 c 0
 668 -62 681 -69 697 -69 c 0
 720 -69 738 -61 754 -49 c 0
 795 -18 795 101 795 178 c 0
 795 212 791 316 745 350 c 1
 717 372 678 388 637 388 c 0
 612 388 587 386 564 379 c 0
 544 372 516 360 475 331 c 1
 501 291 525 237 525 205 c 0
 525 178 518 147 495 127 c 1
EndSplineSet
EndChar

StartChar: u1D574.ssty2
Encoding: 120180 -1 43
Width: 929
Flags: MW
HStem: -25 54 572 111
VStem: 565 141<169 262>
LayerCount: 2
Fore
SplineSet
780 670 m 1
 790 655 l 1
 723 607 644 557 565 522 c 1
 444 558 l 1
 408 567 371 576 333 576 c 0
 298 576 259 564 234 545 c 0
 204 522 183 492 163 463 c 1
 156 463 l 1
 139 477 l 1
 160 514 182 550 207 585 c 1
 224 607 241 629 264 646 c 0
 298 670 342 683 386 683 c 0
 427 683 483 664 531 649 c 0
 570 636 632 616 653 616 c 0
 674 616 690 621 709 629 c 0
 734 640 758 655 780 670 c 1
154 -16 m 1
 147 2 l 1
 198 50 262 98 322 140 c 1
 347 98 363 73 403 43 c 0
 417 32 437 28 457 28 c 0
 483 28 503 36 522 49 c 1
 538 62 549 87 556 105 c 0
 565 130 565 156 565 182 c 0
 565 192 556 257 552 294 c 1
 548 320 546 346 546 371 c 0
 546 392 547 413 550 433 c 1
 607 488 672 537 745 578 c 1
 773 568 l 1
 746 551 730 537 711 515 c 0
 698 499 686 475 686 455 c 0
 686 431 686 401 689 383 c 0
 698 335 706 286 706 238 c 0
 706 178 679 116 623 73 c 0
 552 17 467 -25 364 -25 c 0
 311 -25 262 -4 223 22 c 1
 154 -16 l 1
EndSplineSet
EndChar

StartChar: u1D575.ssty2
Encoding: 120181 -1 44
Width: 927
Flags: MW
HStem: -142 36 76 73 579 102<312 417>
VStem: 242 129 571 126
LayerCount: 2
Fore
SplineSet
782 609 m 1
 782 586 l 1
 707 553 619 522 536 501 c 1
 505 513 460 538 454 542 c 1
 414 561 372 579 325 579 c 0
 299 579 268 572 250 558 c 0
 226 540 211 518 195 496 c 1
 175 510 l 1
 204 556 236 601 283 637 c 0
 316 663 360 681 408 681 c 0
 426 681 443 674 458 667 c 0
 484 656 509 643 533 629 c 0
 556 615 580 601 606 590 c 0
 621 584 637 579 655 579 c 0
 690 579 740 595 782 609 c 1
106 59 m 1
 96 77 l 1
 129 97 164 116 203 130 c 0
 232 141 262 149 294 149 c 0
 316 149 339 144 356 131 c 0
 367 123 369 110 370 98 c 0
 371 92 371 31 371 -2 c 0
 371 -35 383 -67 413 -90 c 0
 426 -100 444 -107 461 -107 c 0
 490 -107 516 -100 536 -84 c 0
 565 -62 571 -25 571 6 c 0
 571 53 552 117 533 171 c 0
 517 217 505 264 505 311 c 0
 505 328 507 345 511 362 c 1
 566 424 631 479 707 526 c 1
 734 517 l 1
 684 477 644 429 643 372 c 0
 643 328 651 285 665 243 c 1
 681 191 698 138 698 84 c 0
 698 28 675 -27 623 -67 c 0
 566 -111 491 -142 410 -142 c 0
 369 -142 325 -139 295 -116 c 0
 262 -91 248 -57 242 -22 c 0
 237 7 229 51 216 61 c 0
 204 70 188 76 170 76 c 0
 148 76 126 68 106 59 c 1
EndSplineSet
EndChar

StartChar: u1D576.ssty2
Encoding: 120182 -1 45
Width: 1077
Flags: MW
HStem: -22 70 432 70<585.5 712> 620 62
VStem: 272 121<380 503.5> 705 126
LayerCount: 2
Fore
SplineSet
916 348 m 1
 700 283 l 1
 787 268 805 237 819 157 c 0
 827 116 849 90 868 78 c 0
 882 70 900 67 918 67 c 0
 945 67 970 78 992 91 c 1
 999 69 l 1
 965 43 929 18 888 -2 c 0
 863 -14 835 -26 806 -26 c 0
 787 -26 766 -25 753 -15 c 0
 717 14 704 54 697 93 c 0
 695 104 684 165 656 201 c 0
 647 212 624 230 576 230 c 0
 538 230 499 219 468 206 c 1
 470 193 471 181 471 169 c 0
 471 155 469 141 464 124 c 1
 417 78 361 31 299 -3 c 0
 284 -11 269 -17 256 -22 c 1
 214 -22 176 -8 153 8 c 0
 150 10 136 23 127 32 c 1
 222 117 l 1
 237 117 l 1
 246 97 256 78 276 63 c 0
 285 55 299 46 314 46 c 0
 325 46 338 48 346 54 c 0
 362 68 366 87 366 107 c 0
 366 141 339 198 321 240 c 1
 295 295 272 351 272 409 c 0
 272 439 286 468 305 494 c 0
 330 529 364 559 400 587 c 0
 476 646 578 682 686 682 c 0
 814 682 857 647 887 618 c 1
 889 608 890 599 890 588 c 0
 890 566 885 538 866 490 c 1
 844 484 l 1
 836 523 817 542 790 563 c 0
 740 602 667 625 597 625 c 0
 537 625 478 610 435 577 c 0
 405 553 393 520 393 487 c 0
 393 444 404 403 418 362 c 1
 464 401 512 437 569 466 c 1
 609 485 653 502 700 502 c 0
 724 502 748 498 766 485 c 1
 784 470 797 441 807 417 c 1
 813 399 820 382 831 373 c 0
 838 367 849 363 860 363 c 0
 873 363 886 363 910 369 c 1
 916 348 l 1
460 230 m 1
 495 244 573 276 656 289 c 1
 717 312 l 1
 703 321 685 348 678 367 c 1
 674 384 665 402 648 414 c 0
 636 423 622 432 606 432 c 0
 565 432 526 417 499 395 c 1
 472 375 451 343 435 314 c 1
 444 288 453 256 460 230 c 1
EndSplineSet
EndChar

StartChar: u1D577.ssty2
Encoding: 120183 -1 46
Width: 1074
Flags: MW
HStem: -28 110<710 755.5> 628 56
VStem: 301 126<431.5 537.5> 697 138
LayerCount: 2
Fore
SplineSet
508 257 m 0
 483 228 434 185 381 153 c 1
 383 153 498 121 549 106 c 0
 611 89 677 82 743 82 c 0
 789 82 835 93 868 119 c 0
 900 143 915 177 924 211 c 1
 945 200 l 1
 934 160 921 119 902 81 c 0
 890 57 878 33 855 15 c 0
 822 -10 779 -28 732 -28 c 0
 630 -28 532 -5 438 25 c 0
 384 42 307 66 272 66 c 0
 251 66 230 60 215 49 c 1
 202 38 174 5 156 -18 c 1
 138 -5 l 1
 169 54 210 110 267 156 c 1
 278 162 294 165 312 165 c 0
 320 165 328 165 336 163 c 1
 352 167 376 175 388 184 c 0
 404 196 410 214 410 231 c 0
 410 253 369 309 343 346 c 0
 320 378 301 413 301 450 c 0
 301 475 313 500 329 522 c 0
 350 552 379 579 411 603 c 0
 484 660 589 684 692 684 c 0
 736 684 783 679 814 655 c 0
 829 643 833 628 836 612 c 0
 841 589 840 565 836 542 c 0
 834 529 833 521 833 508 c 0
 833 491 843 477 860 466 c 0
 867 461 909 461 929 461 c 1
 929 443 l 1
 740 394 l 1
 729 394 717 395 708 401 c 1
 694 413 685 428 685 444 c 0
 685 458 689 470 691 484 c 0
 694 501 697 532 697 536 c 0
 697 559 688 582 667 598 c 0
 640 619 601 628 563 628 c 0
 527 628 491 620 466 601 c 0
 439 580 427 552 427 523 c 0
 427 483 447 445 468 408 c 0
 483 382 497 355 505 326 c 0
 510 311 514 295 514 279 c 0
 514 274 513 262 508 257 c 0
EndSplineSet
EndChar

StartChar: u1D578.ssty2
Encoding: 120184 -1 47
Width: 1572
Flags: MW
HStem: -26 20 28 92 620 62
VStem: 134 108 252 117<331 404.5> 545 128 887 125 1165 126
LayerCount: 2
Fore
SplineSet
1450 76 m 1
 1253 -33 l 1
 1165 78 l 1
 1165 183 1166 315 1172 367 c 1
 1209 415 1241 444 1283 470 c 1
 1270 473 1263 475 1254 487 c 1
 1245 501 1230 527 1220 549 c 1
 1213 567 1203 585 1188 597 c 0
 1178 605 1163 612 1148 612 c 0
 1121 612 1094 607 1072 596 c 0
 1044 582 1028 570 1006 551 c 1
 1011 523 1015 479 1015 450 c 0
 1015 343 999 234 939 137 c 1
 752 -28 l 1
 738 -16 721 -4 702 5 c 0
 690 11 677 17 662 17 c 0
 642 17 622 12 608 1 c 2
 590 -13 l 1
 571 2 l 1
 599 30 644 73 657 84 c 0
 678 101 706 117 738 117 c 0
 765 117 800 93 822 76 c 1
 852 110 862 148 872 188 c 0
 886 247 887 312 887 371 c 0
 887 411 884 451 871 490 c 0
 861 517 848 544 822 564 c 0
 807 576 787 587 765 587 c 0
 748 587 734 583 720 577 c 0
 702 568 685 556 665 542 c 1
 674 511 680 480 680 448 c 0
 680 341 643 227 585 130 c 1
 344 -25 l 1
 329 -10 313 4 294 14 c 0
 279 22 262 28 245 28 c 0
 223 28 202 23 185 11 c 0
 174 3 159 -9 152 -15 c 1
 136 0 l 1
 168 32 208 72 236 92 c 1
 261 112 295 123 330 123 c 0
 348 123 364 116 377 108 c 0
 396 97 415 80 430 64 c 1
 445 74 458 83 468 92 c 0
 498 117 511 152 523 187 c 0
 540 238 545 291 545 344 c 0
 545 390 541 438 525 483 c 0
 513 515 496 549 465 573 c 0
 431 600 388 619 337 619 c 0
 314 619 281 618 263 604 c 0
 249 593 238 581 238 565 c 0
 238 548 278 506 305 480 c 0
 352 437 369 413 369 396 c 0
 369 367 346 341 320 320 c 1
 281 291 238 269 192 248 c 1
 172 265 l 1
 195 275 214 285 230 300 c 0
 241 311 252 324 252 338 c 0
 252 358 222 392 197 414 c 0
 169 440 134 477 134 503 c 0
 134 521 147 538 159 554 c 1
 179 578 204 599 230 619 c 0
 289 664 381 686 437 686 c 0
 490 686 552 671 590 642 c 0
 616 622 641 595 654 568 c 1
 687 591 722 612 762 627 c 0
 790 638 822 647 855 647 c 0
 894 647 930 635 958 615 c 1
 972 603 983 590 994 577 c 1
 1033 607 1077 635 1127 655 c 0
 1166 671 1208 683 1253 683 c 0
 1270 683 1288 681 1301 671 c 0
 1312 662 1328 634 1338 616 c 0
 1347 600 1357 584 1372 572 c 0
 1382 563 1395 558 1410 558 c 0
 1427 558 1443 561 1460 566 c 1
 1460 548 l 1
 1407 523 1380 507 1333 476 c 0
 1327 472 1305 448 1302 437 c 0
 1292 401 1292 376 1292 340 c 0
 1292 285 1294 230 1307 176 c 0
 1312 157 1318 139 1327 121 c 0
 1334 108 1338 103 1350 94 c 0
 1358 88 1372 85 1383 85 c 0
 1393 85 1428 87 1450 94 c 1
 1450 76 l 1
EndSplineSet
EndChar

StartChar: u1D579.ssty2
Encoding: 120185 -1 48
Width: 1290
Flags: MW
HStem: -30 87 614 65
VStem: 134 102 577 124<207 361.5> 889 123
LayerCount: 2
Fore
SplineSet
1051 476 m 0
 1046 472 1024 448 1020 437 c 1
 1011 401 1010 376 1010 340 c 0
 1010 285 1012 230 1026 176 c 0
 1030 157 1037 139 1046 121 c 0
 1052 108 1056 103 1069 94 c 0
 1076 88 1091 85 1102 85 c 0
 1112 85 1147 87 1169 94 c 1
 1169 76 l 1
 972 -33 l 1
 884 78 l 1
 884 183 884 315 891 367 c 1
 927 415 960 446 1002 472 c 1
 986 472 973 479 963 487 c 0
 949 499 938 514 931 529 c 0
 920 554 904 586 886 600 c 1
 874 608 860 614 844 614 c 0
 817 614 785 598 765 584 c 0
 726 556 702 534 675 501 c 1
 692 453 701 388 701 335 c 0
 701 263 687 191 653 125 c 1
 427 -18 l 1
 417 -22 402 -28 395 -28 c 0
 339 -28 293 -1 255 29 c 1
 351 123 l 1
 372 123 l 1
 378 109 394 90 414 74 c 1
 430 63 449 57 471 57 c 0
 499 57 522 71 542 85 c 1
 558 98 563 116 567 134 c 0
 575 163 577 192 577 222 c 0
 577 292 568 362 543 430 c 0
 524 481 496 530 447 568 c 0
 413 594 370 615 321 615 c 0
 298 615 272 612 255 599 c 0
 241 588 234 575 234 560 c 0
 234 545 244 530 252 517 c 1
 268 497 286 479 306 461 c 1
 322 448 336 434 347 418 c 0
 355 408 358 397 358 385 c 0
 358 359 339 339 317 320 c 0
 282 289 240 265 195 242 c 1
 171 258 l 1
 191 269 210 282 224 297 c 0
 234 308 242 320 242 334 c 0
 242 354 222 373 203 389 c 0
 183 407 166 425 152 445 c 0
 142 460 134 475 134 492 c 0
 134 512 144 531 156 549 c 0
 173 573 194 595 220 613 c 0
 278 652 355 681 435 681 c 0
 489 681 543 666 581 636 c 0
 618 608 644 573 658 535 c 1
 682 557 707 578 733 598 c 0
 788 641 856 678 937 678 c 0
 964 678 995 675 1015 659 c 0
 1026 650 1041 623 1054 595 c 0
 1060 582 1070 571 1082 561 c 1
 1088 554 1096 548 1107 548 c 0
 1127 548 1147 551 1164 557 c 1
 1170 542 l 1
 1138 529 1097 505 1051 476 c 0
EndSplineSet
EndChar

StartChar: u1D57A.ssty2
Encoding: 120186 -1 49
Width: 1283
Flags: MW
HStem: -29 79 577 101 706 20<537 565 565 565>
VStem: 201 130 344 122 932 142<335 347>
LayerCount: 2
Fore
SplineSet
431 608 m 0
 431 632 434 643 469 668 c 0
 488 681 526 713 537 726 c 1
 565 726 l 1
 558 717 553 707 553 696 c 0
 553 687 564 681 575 679 c 0
 588 676 651 674 688 672 c 0
 750 669 811 662 870 648 c 1
 914 636 956 621 989 595 c 0
 1021 571 1039 540 1052 508 c 0
 1069 466 1074 422 1074 378 c 0
 1074 292 1042 208 985 134 c 1
 922 83 856 46 782 13 c 0
 729 -10 672 -29 611 -29 c 0
 541 -29 472 -11 405 8 c 0
 360 21 306 36 268 36 c 0
 216 36 173 11 140 -18 c 1
 117 4 l 1
 215 114 l 1
 254 122 292 131 320 152 c 0
 336 164 344 181 344 199 c 0
 344 218 335 236 325 254 c 0
 310 280 291 304 268 330 c 0
 239 362 213 404 212 434 c 1
 212 478 296 551 376 591 c 1
 392 577 l 1
 364 559 330 535 330 500 c 0
 330 484 358 433 382 402 c 0
 408 370 426 343 447 309 c 0
 453 300 458 286 458 276 c 0
 458 254 450 235 435 216 c 0
 410 186 374 154 338 133 c 1
 362 133 384 131 415 124 c 0
 479 110 544 93 606 74 c 0
 659 57 696 47 768 47 c 0
 796 47 823 62 844 76 c 0
 880 101 897 142 910 177 c 0
 927 226 932 277 932 327 c 0
 932 367 927 408 912 446 c 0
 900 476 884 505 855 527 c 0
 829 547 794 556 758 563 c 0
 708 573 677 576 624 576 c 0
 596 576 572 575 549 573 c 0
 533 572 517 572 501 572 c 0
 450 572 431 598 431 608 c 0
EndSplineSet
EndChar

StartChar: u1D57B.ssty2
Encoding: 120187 -1 50
Width: 1284
Flags: W
HStem: -20 21G<791.5 832.5> 612 69 619 66<308.5 454.5>
VStem: 511 138 852 121<303 406>
LayerCount: 2
Fore
SplineSet
664 -141 m 1xd8
 512 -223 l 1
 482 -209 l 1
 496 -174 500 -139 504 -104 c 0
 510 -52 512 2 512 54 c 1
 482 65 446 76 417 76 c 0
 377 76 344 58 316 36 c 0
 296 21 277 6 260 -12 c 1
 244 7 l 1
 279 54 321 111 361 142 c 0
 389 163 424 179 464 179 c 0
 477 179 493 178 511 173 c 1
 511 369 l 2
 511 412 504 456 488 497 c 0
 475 530 456 561 425 585 c 0
 399 605 367 619 329 619 c 0
 288 619 266 607 251 597 c 1
 235 584 227 567 227 548 c 0
 227 536 238 522 247 512 c 0
 261 496 276 480 293 466 c 0
 322 442 350 407 350 386 c 0
 350 375 349 365 343 356 c 0
 334 342 325 328 312 317 c 0
 272 285 229 260 181 235 c 1
 163 254 l 1
 184 266 195 275 211 292 c 0
 222 304 230 318 230 333 c 0
 230 349 201 379 180 400 c 0
 164 415 146 429 134 446 c 1
 126 455 126 469 126 481 c 0
 126 504 138 525 152 545 c 0
 172 572 198 596 226 618 c 0
 276 656 340 685 425 685 c 0xb8
 484 685 532 668 572 637 c 0
 599 617 625 584 639 557 c 1
 685 593 735 628 792 651 c 0
 835 668 882 681 929 681 c 0
 952 681 976 679 993 666 c 0
 1009 654 1016 624 1019 601 c 0
 1022 581 1031 562 1047 545 c 0
 1058 534 1072 523 1091 523 c 0
 1105 523 1124 527 1136 530 c 1
 1143 511 l 1
 1094 491 1046 470 1005 442 c 0
 988 430 973 415 973 397 c 0
 973 365 993 336 1015 309 c 0
 1040 278 1074 235 1074 205 c 0
 1074 181 1069 157 1053 136 c 0
 1027 101 1000 73 962 42 c 0
 940 24 916 6 888 -5 c 0
 867 -14 844 -20 821 -20 c 0
 762 -20 701 -2 648 19 c 1
 648 -35 654 -87 664 -141 c 1xd8
648 518 m 1
 648 142 l 1
 841 79 l 2
 869 70 896 62 926 62 c 0
 939 62 952 66 961 73 c 0
 974 83 978 95 978 109 c 0
 978 124 970 143 961 156 c 0
 948 177 932 196 915 215 c 0
 885 247 852 291 852 315 c 0
 852 334 862 352 877 367 c 0
 905 395 937 420 970 443 c 1
 949 446 927 452 917 460 c 0
 909 466 892 482 892 522 c 0
 892 537 889 552 885 566 c 0
 882 576 877 586 868 593 c 0
 853 605 833 612 812 612 c 0xd8
 772 612 736 595 708 573 c 0
 697 564 669 540 648 518 c 1
EndSplineSet
EndChar

StartChar: u1D57C.ssty2
Encoding: 120188 -1 51
Width: 1283
Flags: MW
HStem: -82 21 36 94 577 99 706 20<537 565 565 565>
VStem: 344 122 932 142<335 347>
LayerCount: 2
Fore
SplineSet
892 66 m 1
 914 48 936 33 962 19 c 1
 980 11 998 2 1019 2 c 0
 1051 2 1083 9 1114 18 c 1
 1114 -3 l 1
 1055 -31 996 -58 934 -82 c 1
 868 -60 806 -34 748 1 c 1
 709 -16 656 -29 611 -29 c 0
 541 -29 472 -11 405 8 c 0
 360 21 306 36 268 36 c 0
 216 36 173 11 140 -18 c 1
 117 4 l 1
 215 114 l 1
 254 122 292 131 320 152 c 0
 336 164 344 181 344 199 c 0
 344 218 335 236 325 254 c 0
 310 280 291 304 268 330 c 0
 239 362 213 404 212 434 c 1
 212 478 296 551 376 591 c 1
 392 577 l 1
 364 559 330 535 330 500 c 0
 330 484 358 433 382 402 c 0
 408 370 426 343 447 309 c 0
 453 300 458 286 458 276 c 0
 458 254 450 235 435 216 c 0
 410 186 374 154 338 133 c 1
 362 133 384 131 415 124 c 0
 479 110 544 93 606 74 c 0
 659 57 696 47 768 47 c 0
 796 47 823 62 844 76 c 0
 880 101 897 142 910 177 c 0
 927 226 932 277 932 327 c 0
 932 367 927 408 912 446 c 0
 900 476 884 505 855 527 c 0
 829 547 794 556 758 563 c 0
 708 573 677 576 624 576 c 0
 596 576 572 575 549 573 c 0
 533 572 517 572 501 572 c 0
 450 572 431 598 431 608 c 0
 431 632 434 643 469 668 c 0
 488 681 526 713 537 726 c 1
 565 726 l 1
 558 717 553 707 553 696 c 0
 553 687 564 681 575 679 c 0
 588 676 651 674 688 672 c 0
 750 669 811 662 870 648 c 1
 914 636 956 621 989 595 c 0
 1021 571 1039 540 1052 508 c 0
 1069 466 1074 422 1074 378 c 0
 1074 292 1042 208 985 134 c 1
 961 110 923 86 892 66 c 1
EndSplineSet
EndChar

StartChar: u1D57D.ssty2
Encoding: 120189 -1 52
Width: 1284
Flags: MW
HStem: -29 21<993 993> 28 96<247.5 339> 619 71
VStem: 248 125 542 138 895 128
LayerCount: 2
Fore
SplineSet
330 619 m 0
 299 619 266 607 251 597 c 1
 235 584 227 567 227 548 c 0
 227 536 238 522 247 512 c 0
 261 496 276 480 293 466 c 0
 322 442 350 407 350 386 c 0
 350 375 349 365 343 356 c 0
 334 342 325 328 312 317 c 0
 272 285 229 260 181 235 c 1
 163 254 l 1
 184 266 195 275 211 292 c 0
 222 304 230 318 230 333 c 0
 230 349 201 379 180 400 c 0
 164 415 146 429 134 446 c 1
 126 455 126 469 126 481 c 0
 126 504 138 525 152 545 c 0
 172 572 198 596 226 618 c 0
 276 656 346 689 432 689 c 0
 501 689 551 670 596 635 c 0
 625 613 652 583 664 554 c 1
 702 589 748 626 798 652 c 0
 834 670 875 685 918 685 c 0
 946 685 973 678 993 662 c 0
 1016 645 1020 614 1024 588 c 0
 1027 565 1030 535 1047 522 c 0
 1060 512 1078 510 1096 510 c 0
 1108 510 1124 511 1137 515 c 1
 1143 502 l 1
 1041 466 983 440 912 401 c 1
 950 397 993 379 1015 356 c 1
 1015 298 1017 229 1024 193 c 0
 1028 171 1037 148 1051 130 c 0
 1064 114 1077 100 1094 87 c 0
 1102 81 1118 81 1131 81 c 0
 1147 81 1163 88 1179 95 c 1
 1180 72 l 1
 993 -29 l 1
 967 17 930 63 895 108 c 1
 895 154 895 226 892 247 c 0
 889 265 882 292 865 306 c 1
 843 322 822 335 792 340 c 0
 776 343 758 344 742 344 c 0
 720 344 698 337 677 329 c 1
 665 261 644 211 603 150 c 1
 350 -28 l 1
 294 13 l 2
 283 21 269 28 255 28 c 0
 240 28 228 25 216 19 c 0
 198 10 184 -3 171 -18 c 1
 153 -2 l 1
 203 51 278 124 327 124 c 0
 351 124 365 117 376 110 c 0
 396 97 415 82 433 67 c 1
 447 76 461 86 475 96 c 0
 506 120 516 155 524 189 c 0
 538 244 542 300 542 357 c 0
 542 400 535 443 519 485 c 1
 504 518 481 550 448 576 c 0
 417 600 380 619 330 619 c 0
961 458 m 1
 945 458 928 464 916 474 c 0
 900 487 894 515 890 538 c 0
 887 561 880 593 867 603 c 0
 857 611 845 618 831 618 c 0
 799 618 772 604 750 587 c 0
 719 562 701 544 679 514 c 1
 682 497 683 467 683 450 c 0
 683 419 681 391 679 358 c 1
 726 376 794 401 851 405 c 1
 961 458 l 1
EndSplineSet
EndChar

StartChar: u1D57E.ssty2
Encoding: 120190 -1 53
Width: 1285
Flags: MW
HStem: -31 72<545 771> 322 84<785 943.5> 490 94<822 975.5> 610 75
VStem: 195 131<341.5 362> 402 121<362 439> 1009 92
LayerCount: 2
Fore
SplineSet
758 513 m 2
 614 580 l 2
 584 594 550 610 516 610 c 0
 478 610 442 596 415 576 c 0
 351 527 326 458 326 389 c 0
 326 294 360 197 449 129 c 0
 523 72 623 41 728 41 c 0
 814 41 902 59 964 107 c 0
 995 131 1009 165 1009 198 c 0
 1009 230 992 261 962 283 c 0
 922 314 864 322 809 322 c 0
 761 322 714 314 668 305 c 0
 622 297 546 283 531 283 c 0
 494 283 458 290 433 310 c 0
 411 327 402 350 402 374 c 0
 402 411 427 444 461 470 c 0
 492 494 535 507 575 515 c 1
 589 501 l 1
 577 497 566 489 556 482 c 0
 537 468 523 449 523 429 c 0
 523 413 528 398 543 387 c 0
 563 372 593 372 620 372 c 0
 673 372 723 377 774 385 c 0
 823 392 871 406 920 406 c 0
 967 406 1016 396 1050 370 c 1
 1086 341 1102 301 1102 261 c 0
 1102 192 1053 132 990 84 c 0
 887 4 743 -31 599 -31 c 0
 491 -31 388 1 312 60 c 0
 228 124 195 211 195 312 c 0
 195 412 245 496 334 565 c 1
 420 630 514 656 650 685 c 1
 698 669 743 648 790 630 c 0
 845 609 911 584 962 584 c 0
 989 584 1012 591 1032 606 c 0
 1051 620 1059 634 1069 653 c 1
 1096 639 l 1
 1083 608 1059 580 1029 557 c 0
 993 529 946 510 897 499 c 0
 877 495 857 490 836 490 c 0
 808 490 783 502 758 513 c 2
EndSplineSet
EndChar

StartChar: u1D57F.ssty2
Encoding: 120191 -1 54
Width: 1077
Flags: MW
HStem: -30 21<680 709> 42 91 585 96
VStem: 138 76 417 130 585 124<171 261.5>
LayerCount: 2
Fore
SplineSet
983 659 m 1
 850 541 l 1
 818 532 784 528 748 528 c 0
 702 528 641 536 596 543 c 1
 560 515 543 494 543 458 c 0
 543 442 552 422 564 409 c 0
 580 390 599 370 619 353 c 0
 656 321 709 276 709 247 c 0
 709 212 633 156 581 120 c 1
 634 101 710 74 752 74 c 0
 773 74 794 80 812 88 c 1
 843 99 870 115 896 131 c 1
 908 107 l 1
 848 57 779 12 709 -30 c 1
 651 -30 596 -12 544 8 c 0
 501 24 450 42 409 42 c 0
 389 42 368 42 352 37 c 0
 313 24 288 7 256 -15 c 1
 242 3 l 1
 305 54 373 100 453 135 c 1
 486 135 521 134 553 127 c 1
 572 142 585 160 585 182 c 0
 585 206 538 248 505 276 c 0
 484 294 465 313 447 333 c 0
 435 347 425 362 420 378 c 1
 455 441 503 500 567 549 c 1
 484 563 357 586 321 586 c 0
 291 586 252 583 232 567 c 0
 217 556 212 540 212 526 c 0
 212 487 250 458 291 437 c 1
 293 427 l 1
 202 359 l 1
 167 384 138 417 138 455 c 0
 138 506 172 553 218 590 c 1
 288 643 377 680 476 680 c 0
 516 680 612 666 679 655 c 1
 733 648 788 641 844 641 c 0
 895 641 947 664 983 691 c 1
 983 659 l 1
EndSplineSet
EndChar

StartChar: u1D580.ssty2
Encoding: 120192 -1 55
Width: 1145
Flags: MW
HStem: -34 97<540 658> 669 20<471 471>
VStem: 277 135 758 132<349.5 388>
LayerCount: 2
Fore
SplineSet
504 249 m 1
 462 207 399 146 367 128 c 1
 396 124 470 102 516 87 c 0
 556 74 603 63 641 63 c 0
 675 63 701 81 725 99 c 0
 741 112 750 129 751 146 c 0
 755 213 758 280 758 347 c 0
 758 429 753 511 744 593 c 1
 818 617 885 650 950 685 c 1
 968 670 l 1
 941 646 l 1
 914 620 904 586 899 553 c 1
 892 495 890 438 890 380 c 0
 890 319 892 259 896 198 c 0
 898 180 898 176 912 146 c 0
 922 125 937 102 951 87 c 0
 960 78 973 74 988 74 c 0
 1004 74 1036 84 1059 92 c 1
 1063 72 l 1
 843 -39 l 1
 765 84 l 1
 625 -21 l 1
 605 -32 580 -34 565 -34 c 0
 515 -34 467 -20 423 -4 c 0
 366 17 295 38 241 38 c 0
 222 38 193 30 143 -12 c 1
 123 8 l 1
 239 117 l 1
 275 122 317 132 335 142 c 0
 355 153 392 180 402 207 c 0
 406 218 406 233 406 244 c 0
 406 264 400 284 390 304 c 1
 378 331 360 357 342 382 c 0
 313 421 277 472 277 504 c 0
 277 511 277 520 279 526 c 1
 295 551 348 606 393 640 c 0
 416 658 443 674 471 689 c 1
 497 673 l 1
 479 663 462 651 446 639 c 0
 427 625 413 607 413 586 c 0
 413 549 431 513 452 479 c 0
 477 439 497 396 506 352 c 1
 511 335 513 318 513 301 c 0
 513 283 511 266 504 249 c 1
EndSplineSet
EndChar

StartChar: u1D581.ssty2
Encoding: 120193 -1 56
Width: 1289
Flags: MW
HStem: -29 85 86 86 598 87<786 913>
VStem: 251 125 521 140 902 164<187 362.5>
LayerCount: 2
Fore
SplineSet
438 687 m 0
 495 687 541 674 577 646 c 0
 612 619 639 577 649 539 c 1
 695 579 745 620 800 650 c 0
 832 667 866 685 904 685 c 0
 922 685 941 680 959 675 c 0
 983 667 1006 656 1028 644 c 0
 1050 632 1082 615 1098 615 c 0
 1121 615 1143 618 1166 629 c 1
 1168 604 l 1
 1148 594 1130 582 1114 569 c 0
 1073 538 1034 500 1034 454 c 0
 1034 427 1034 396 1040 373 c 1
 1059 278 l 2
 1063 256 1066 233 1066 210 c 0
 1066 164 1048 122 1004 90 c 1
 953 51 888 8 867 -3 c 0
 836 -18 804 -29 767 -29 c 0
 739 -29 711 -21 684 -13 c 0
 640 0 598 16 556 33 c 0
 520 48 483 62 445 73 c 0
 421 80 396 86 371 86 c 0
 346 86 322 79 300 70 c 0
 269 58 240 42 215 24 c 1
 201 42 l 1
 256 84 321 124 383 163 c 1
 416 170 444 185 468 203 c 0
 490 220 500 244 506 268 c 1
 518 304 521 342 521 379 c 0
 521 421 515 463 500 503 c 0
 488 534 470 564 440 587 c 0
 413 608 381 624 338 624 c 0
 305 624 272 607 258 597 c 0
 241 584 234 567 234 548 c 0
 234 536 245 522 254 512 c 0
 268 496 282 480 300 466 c 1
 328 442 357 407 357 386 c 0
 357 375 356 365 349 356 c 1
 340 342 332 328 318 317 c 0
 279 285 236 260 188 235 c 1
 170 254 l 1
 191 266 202 275 217 292 c 0
 228 304 237 318 237 333 c 0
 237 349 207 379 186 400 c 0
 171 415 152 429 140 446 c 1
 132 455 132 469 132 481 c 0
 132 504 145 525 159 545 c 0
 179 572 205 596 233 618 c 0
 282 656 353 687 438 687 c 0
613 262 m 1
 484 174 l 1
 530 173 642 128 719 99 c 0
 770 79 834 55 882 55 c 0
 896 55 914 59 923 67 c 1
 934 75 938 89 938 101 c 0
 938 118 936 139 932 157 c 2
 907 286 l 2
 902 307 902 327 902 348 c 0
 902 377 902 419 916 434 c 0
 945 465 984 497 1020 527 c 1
 976 527 937 543 900 562 c 1
 870 579 832 598 798 598 c 0
 774 598 754 584 738 571 c 1
 707 549 682 522 660 495 c 1
 662 481 662 466 662 452 c 0
 662 387 649 322 613 262 c 1
EndSplineSet
EndChar

StartChar: u1D582.ssty2
Encoding: 120194 -1 57
Width: 1568
Flags: MW
HStem: -31 73 617 66
VStem: 251 113 538 141 874 118 1229 132
LayerCount: 2
Fore
SplineSet
346 617 m 0
 313 617 279 607 264 597 c 1
 248 584 240 567 240 548 c 0
 240 536 251 522 260 512 c 0
 274 496 289 480 306 466 c 0
 335 442 364 407 364 386 c 0
 364 375 362 365 356 356 c 0
 347 342 338 328 325 317 c 0
 285 285 242 260 194 235 c 1
 176 254 l 1
 197 266 208 275 224 292 c 0
 235 304 244 318 244 333 c 0
 244 349 214 379 193 400 c 0
 178 415 159 429 147 446 c 1
 139 455 139 469 139 481 c 0
 139 504 151 525 166 545 c 0
 185 572 212 596 239 618 c 1
 289 656 359 682 443 682 c 0
 511 682 565 663 609 629 c 0
 635 609 654 583 666 556 c 1
 736 601 788 632 862 670 c 1
 900 651 928 622 973 560 c 1
 1014 592 1059 625 1107 651 c 1
 1138 666 1169 682 1206 682 c 0
 1247 682 1283 666 1317 649 c 0
 1350 633 1385 616 1425 616 c 0
 1437 616 1458 623 1469 628 c 1
 1468 603 l 1
 1428 577 1376 542 1344 505 c 0
 1325 483 1318 458 1318 431 c 0
 1318 408 1329 369 1338 338 c 0
 1350 296 1361 257 1361 214 c 0
 1361 192 1359 171 1354 149 c 1
 1349 134 1344 120 1332 108 c 1
 1132 -15 l 1
 1106 -23 1080 -28 1052 -28 c 0
 1014 -28 970 -14 931 -3 c 0
 867 16 804 32 736 39 c 1
 690 20 641 -3 598 -25 c 1
 587 -29 574 -30 559 -30 c 0
 502 -30 449 -10 400 13 c 0
 365 29 326 45 291 45 c 0
 268 45 247 39 228 30 c 0
 202 19 179 3 157 -14 c 1
 142 8 l 1
 198 56 262 98 326 140 c 1
 385 140 425 154 460 181 c 0
 490 204 506 234 519 265 c 1
 534 307 538 351 538 394 c 0
 538 461 522 530 459 578 c 1
 430 602 393 617 346 617 c 0
584 206 m 1
 435 131 l 1
 453 126 508 105 544 89 c 0
 584 71 628 55 675 55 c 0
 682 55 690 57 698 60 c 0
 732 74 772 90 793 110 c 0
 823 137 846 167 857 201 c 0
 874 251 874 297 874 349 c 0
 874 391 871 434 858 475 c 0
 850 503 839 530 812 551 c 0
 796 563 777 573 757 582 c 1
 724 564 699 546 676 529 c 1
 679 515 681 481 681 467 c 0
 681 374 656 282 584 206 c 1
945 212 m 1
 915 175 891 150 861 130 c 1
 914 130 1014 98 1082 76 c 0
 1113 66 1144 56 1179 56 c 0
 1193 56 1206 62 1217 68 c 1
 1229 76 1235 89 1235 120 c 0
 1235 154 1221 216 1207 260 c 0
 1194 301 1186 341 1186 380 c 0
 1186 399 1187 422 1245 466 c 1
 1319 527 l 2
 1317 526 1304 526 1293 526 c 0
 1268 526 1223 546 1204 559 c 0
 1180 575 1127 587 1106 587 c 0
 1084 587 1060 584 1041 575 c 1
 1018 562 1002 550 986 532 c 1
 994 496 1001 451 1001 414 c 0
 1001 344 979 277 945 212 c 1
EndSplineSet
EndChar

StartChar: u1D583.ssty2
Encoding: 120195 -1 58
Width: 1143
Flags: MW
HStem: -32 81<255 357> 315 51<494 519 643 651.5> 581 100
VStem: 519 120
LayerCount: 2
Fore
SplineSet
1024 578 m 1
 879 514 l 1
 827 531 788 564 760 601 c 1
 676 543 643 508 643 366 c 1
 714 366 804 366 856 370 c 1
 786 312 l 1
 739 315 666 315 637 315 c 1
 637 236 659 155 733 98 c 0
 766 72 813 60 861 60 c 0
 896 60 943 76 982 90 c 1
 982 66 l 1
 931 39 884 7 836 -25 c 1
 811 -32 769 -35 766 -35 c 0
 721 -35 678 -21 646 3 c 0
 626 18 612 37 599 55 c 0
 581 82 567 111 555 139 c 1
 491 85 423 33 343 -7 c 0
 321 -18 290 -32 272 -32 c 0
 238 -32 182 -2 140 21 c 1
 229 102 l 1
 248 87 269 73 293 63 c 0
 310 55 328 49 349 49 c 0
 365 49 380 53 393 59 c 0
 413 68 431 80 447 92 c 0
 476 115 490 148 500 178 c 0
 514 223 519 269 519 315 c 1
 442 315 346 315 289 312 c 1
 360 368 l 1
 405 366 467 366 521 366 c 1
 521 404 519 443 508 481 c 1
 500 505 489 527 466 545 c 0
 443 563 414 578 381 578 c 0
 340 578 306 567 279 545 c 2
 234 508 l 1
 214 528 l 1
 272 582 337 632 404 680 c 1
 460 675 516 663 557 632 c 0
 594 603 623 566 629 525 c 1
 656 555 688 582 721 608 c 0
 764 641 817 665 874 682 c 1
 889 652 906 622 936 600 c 1
 946 591 963 590 978 590 c 0
 994 590 1011 594 1024 597 c 1
 1024 578 l 1
EndSplineSet
EndChar

StartChar: u1D584.ssty2
Encoding: 120196 -1 59
Width: 1291
Flags: MW
HStem: -214 48<598.5 605> -27 106 622 61<327 476.5>
VStem: 256 126 526 143 929 143<277.5 317.5>
LayerCount: 2
Fore
SplineSet
344 622 m 0
 310 622 280 607 266 597 c 0
 249 584 241 567 241 548 c 0
 241 536 252 522 261 512 c 0
 275 496 290 480 307 466 c 0
 336 442 365 407 365 386 c 0
 365 375 364 365 357 356 c 1
 348 342 339 328 326 317 c 0
 286 285 244 260 195 235 c 1
 178 254 l 1
 198 266 210 275 225 292 c 0
 236 304 245 318 245 333 c 0
 245 349 215 379 194 400 c 0
 179 415 160 429 148 446 c 1
 140 455 140 469 140 481 c 0
 140 504 152 525 167 545 c 0
 186 572 213 596 240 618 c 1
 290 656 362 683 448 683 c 0
 505 683 549 666 586 638 c 0
 615 615 635 576 648 542 c 1
 694 574 741 604 790 633 c 1
 826 653 862 673 901 689 c 1
 940 649 990 618 1046 594 c 1
 1059 509 1072 422 1072 339 c 0
 1072 216 1042 93 982 -21 c 1
 926 -77 860 -126 780 -163 c 0
 716 -193 643 -214 567 -214 c 0
 500 -214 434 -197 387 -161 c 1
 442 -64 l 1
 458 -66 l 1
 468 -91 481 -116 505 -135 c 0
 535 -158 578 -166 619 -166 c 0
 685 -166 750 -150 797 -114 c 0
 851 -72 876 -16 895 40 c 0
 922 122 929 206 929 291 c 0
 929 344 927 398 914 450 c 0
 906 481 896 513 870 536 c 0
 846 556 816 567 782 567 c 0
 760 567 726 561 708 550 c 0
 685 537 674 530 659 512 c 1
 663 494 666 464 666 446 c 0
 666 369 652 295 601 229 c 1
 551 195 491 159 443 133 c 1
 454 132 518 112 550 99 c 0
 580 87 614 79 646 79 c 0
 665 79 681 87 697 94 c 0
 723 106 746 121 769 137 c 1
 776 116 l 1
 725 61 669 9 596 -27 c 1
 532 -18 472 5 414 30 c 0
 384 43 344 50 314 50 c 0
 289 50 263 43 241 33 c 0
 212 20 186 2 162 -17 c 1
 141 2 l 1
 196 52 251 102 317 144 c 1
 333 147 346 148 360 148 c 0
 375 148 390 147 408 146 c 1
 428 155 452 167 471 182 c 0
 497 203 504 231 512 259 c 1
 523 305 526 352 526 398 c 0
 526 467 501 536 437 585 c 0
 412 605 383 622 344 622 c 0
EndSplineSet
EndChar

StartChar: u1D585.ssty2
Encoding: 120197 -1 60
Width: 1008
Flags: MW
HStem: -137 27<431.5 458> -24 70 289 87<448 557.5> 571 94 698 20<333 333>
VStem: 250 139<-93 -58.5> 644 157<134 240>
LayerCount: 2
Fore
SplineSet
383 664 m 2
 578 670 l 1
 618 670 659 665 688 643 c 0
 703 631 714 615 714 597 c 0
 714 535 667 482 611 438 c 0
 582 416 536 392 501 376 c 1
 614 376 710 372 777 310 c 0
 791 296 801 248 801 232 c 0
 801 177 792 121 770 68 c 0
 752 25 724 -16 682 -49 c 0
 609 -105 510 -137 406 -137 c 0
 367 -137 317 -137 286 -135 c 1
 271 -133 249 -130 249 -115 c 2
 250 -64 l 2
 250 -53 246 -42 236 -35 c 1
 228 -28 217 -24 205 -24 c 0
 180 -24 156 -33 135 -44 c 1
 124 -29 l 1
 157 -7 194 12 234 27 c 0
 264 38 298 46 332 46 c 0
 349 46 368 43 380 34 c 0
 395 22 396 -3 396 -15 c 0
 396 -26 394 -37 392 -47 c 0
 389 -60 389 -75 389 -88 c 0
 389 -98 401 -104 412 -107 c 0
 418 -109 427 -110 436 -110 c 0
 486 -110 532 -94 566 -67 c 1
 597 -44 612 -7 623 25 c 1
 640 67 644 112 644 156 c 0
 644 185 641 232 614 252 c 0
 576 281 521 289 468 289 c 0
 428 289 389 281 350 272 c 1
 332 285 l 1
 393 366 l 1
 447 375 494 398 533 427 c 0
 568 454 580 491 580 528 c 0
 580 537 578 546 569 553 c 0
 550 567 524 571 499 571 c 0
 466 571 433 569 401 566 c 0
 367 562 300 555 296 555 c 0
 271 555 247 562 228 576 c 0
 222 581 215 596 212 609 c 1
 241 646 285 693 313 717 c 1
 333 718 l 1
 330 712 328 705 328 698 c 0
 328 690 331 681 340 674 c 0
 351 666 368 664 383 664 c 2
EndSplineSet
EndChar

StartChar: uni005B.ssty2
Encoding: 91 -1 61
Width: 491
Flags: MW
HStem: -130 32 710 31
VStem: 145 55<-93 699 -93 741 -93 741>
LayerCount: 2
Fore
SplineSet
354 712 m 1
 200 699 l 1
 200 -93 l 1
 354 -100 l 1
 354 -119 l 1
 283 -119 214 -124 145 -130 c 1
 145 741 l 1
 195 736 283 736 354 736 c 1
 354 712 l 1
EndSplineSet
EndChar

StartChar: uni005D.ssty2
Encoding: 93 -1 62
Width: 491
Flags: MW
HStem: -132 31 708 31
VStem: 279 55<-92 700 700 700>
LayerCount: 2
Fore
SplineSet
279 700 m 1
 120 709 l 1
 120 733 l 1
 192 733 272 733 334 739 c 1
 334 -132 l 1
 263 -125 192 -124 120 -124 c 1
 120 -103 l 1
 279 -92 l 1
 279 700 l 1
EndSplineSet
EndChar

StartChar: uni005E.ssty2
Encoding: 94 -1 63
Width: 857
Flags: MW
HStem: 452 21<135 135> 715 20<431 431>
VStem: 105 642<464 486>
LayerCount: 2
Fore
SplineSet
431 735 m 1
 747 486 l 1
 698 459 l 1
 427 673 l 1
 135 452 l 1
 105 464 l 1
 431 735 l 1
EndSplineSet
EndChar

StartChar: u1D586.ssty2
Encoding: 120198 -1 64
Width: 872
Flags: MW
HStem: -32 98 388 52 452 19
VStem: 189 128 511 122
LayerCount: 2
Fore
SplineSet
511 80 m 1
 306 -32 l 1
 263 0 227 36 194 73 c 1
 193 93 192 112 192 132 c 0
 192 211 201 289 215 367 c 1
 291 397 362 434 432 472 c 1
 476 456 523 447 570 440 c 1
 643 468 l 1
 652 461 l 1
 633 395 633 328 633 261 c 0
 633 222 634 182 636 143 c 1
 694 80 l 1
 706 80 729 92 745 100 c 1
 751 82 l 1
 591 -29 l 1
 569 1 543 29 512 54 c 1
 511 80 l 1
510 110 m 1
 508 366 l 1
 454 366 400 377 348 389 c 1
 331 365 318 328 318 236 c 0
 318 204 320 171 323 138 c 1
 350 113 380 86 412 66 c 1
 427 66 481 93 510 110 c 1
EndSplineSet
EndChar

StartChar: u1D587.ssty2
Encoding: 120199 -1 65
Width: 857
Flags: MW
HStem: -32 86 380 94 671 20<433 433>
VStem: 213 125 532 131
LayerCount: 2
Fore
SplineSet
347 384 m 1
 503 474 l 1
 542 457 604 433 656 414 c 1
 658 381 659 347 659 314 c 0
 659 241 654 168 638 96 c 1
 543 48 446 2 340 -32 c 1
 290 0 241 33 200 71 c 1
 214 183 214 298 214 411 c 0
 214 496 211 582 200 666 c 1
 222 674 l 1
 249 596 l 1
 308 630 373 667 433 691 c 1
 450 678 l 1
 421 659 401 642 377 620 c 0
 362 607 352 590 347 573 c 0
 338 547 337 521 337 495 c 2
 337 388 l 1
 347 384 l 1
523 347 m 1
 479 367 452 376 419 384 c 1
 395 380 358 361 339 348 c 1
 339 276 339 155 340 132 c 1
 364 114 392 92 422 77 c 0
 443 66 465 57 489 54 c 1
 511 94 521 137 525 180 c 0
 528 205 529 229 529 252 c 0
 529 284 527 315 523 347 c 1
EndSplineSet
EndChar

StartChar: u1D588.ssty2
Encoding: 120200 -1 66
Width: 719
Flags: MW
HStem: -26 98 393 80
VStem: 195 142
LayerCount: 2
Fore
SplineSet
571 429 m 1
 486 333 l 1
 475 333 l 1
 423 375 376 390 349 396 c 1
 335 377 330 300 330 270 c 0
 330 232 334 192 337 154 c 1
 372 125 408 97 448 72 c 1
 565 114 l 1
 565 93 l 1
 496 52 380 -11 348 -26 c 1
 296 8 249 47 205 88 c 1
 202 130 201 175 201 218 c 0
 201 271 204 322 215 366 c 1
 430 473 l 1
 480 465 528 451 571 429 c 1
EndSplineSet
EndChar

StartChar: u1D589.ssty2
Encoding: 120201 -1 67
Width: 856
Flags: MW
HStem: -29 95 558 74
VStem: 203 130 536 130
LayerCount: 2
Fore
SplineSet
388 459 m 1
 412 449 l 1
 390 434 361 408 340 389 c 1
 329 341 329 301 329 254 c 0
 329 219 331 183 334 148 c 1
 377 114 427 86 482 66 c 1
 509 106 537 175 537 309 c 0
 537 343 535 377 532 411 c 1
 477 451 418 489 352 520 c 1
 312 540 267 558 218 558 c 0
 185 558 149 549 119 538 c 1
 104 557 l 1
 166 587 233 610 300 632 c 1
 359 630 409 608 460 583 c 0
 525 552 599 512 659 475 c 1
 665 439 667 403 667 368 c 0
 667 280 651 192 619 108 c 1
 565 68 465 15 384 -29 c 1
 320 4 258 42 203 85 c 1
 200 103 198 130 198 163 c 0
 198 209 201 269 206 335 c 1
 258 378 328 424 388 459 c 1
EndSplineSet
EndChar

StartChar: u1D58A.ssty2
Encoding: 120202 -1 68
Width: 728
Flags: MW
HStem: -28 96 391 80
VStem: 190 122
LayerCount: 2
Fore
SplineSet
564 108 m 1
 574 92 l 1
 503 51 432 10 357 -28 c 1
 299 6 247 45 198 86 c 1
 195 122 193 158 193 194 c 0
 193 253 198 312 208 370 c 1
 279 404 388 457 420 471 c 1
 469 433 520 395 577 362 c 1
 510 311 401 240 312 181 c 0
 312 180 318 143 331 136 c 1
 360 116 390 98 443 68 c 1
 477 73 525 91 564 108 c 1
310 214 m 1
 360 245 415 281 461 316 c 1
 418 340 349 387 333 399 c 1
 316 330 310 285 310 214 c 1
EndSplineSet
EndChar

StartChar: u1D58B.ssty2
Encoding: 120203 -1 69
Width: 635
Flags: MW
HStem: 359 46<162 242 162 252 146 242 383 513> 611 70<324 418>
VStem: 252 128<300.5 359 300.5 359 300.5 359>
LayerCount: 2
Fore
SplineSet
383 405 m 1
 531 405 l 1
 531 398 l 1
 513 359 l 1
 380 359 l 1
 380 242 380 123 359 12 c 0
 356 -3 348 -20 339 -34 c 2
 215 -242 l 1
 193 -238 l 1
 209 -204 237 -141 242 -107 c 1
 249 -69 252 -24 252 18 c 2
 252 359 l 1
 146 359 l 1
 146 367 l 1
 162 405 l 1
 242 405 l 1
 228 445 223 480 215 520 c 1
 229 568 252 612 298 647 c 0
 327 670 369 681 410 681 c 0
 426 681 444 676 457 669 c 0
 479 659 497 646 515 631 c 1
 435 549 l 1
 417 549 l 1
 405 566 395 579 377 592 c 0
 365 601 348 611 332 611 c 0
 316 611 301 609 289 600 c 0
 277 590 270 575 270 561 c 0
 270 528 299 500 328 476 c 0
 344 463 358 450 369 435 c 0
 377 424 379 419 383 405 c 1
EndSplineSet
EndChar

StartChar: u1D58C.ssty2
Encoding: 120204 -1 70
Width: 863
Flags: MW
HStem: -211 86 -21 89 370 56 453 20
VStem: 205 130 530 121
LayerCount: 2
Fore
SplineSet
525 83 m 1
 307 -50 l 1
 368 -80 459 -125 502 -125 c 0
 520 -125 538 -124 550 -114 c 1
 560 -107 560 -88 560 -74 c 0
 560 -37 541 32 525 83 c 1
123 -138 m 1
 308 -23 l 1
 206 70 l 1
 202 108 200 147 200 185 c 0
 200 246 206 306 224 366 c 1
 294 404 366 441 440 473 c 1
 486 454 540 432 581 426 c 1
 676 465 l 1
 690 461 l 1
 674 431 666 399 660 367 c 1
 653 322 651 277 651 232 c 0
 651 146 686 63 700 -22 c 1
 633 -88 559 -150 478 -206 c 1
 467 -207 455 -208 444 -208 c 0
 409 -208 374 -202 340 -194 c 1
 284 -179 232 -155 184 -129 c 1
 142 -153 l 1
 123 -138 l 1
526 111 m 1
 526 177 l 2
 526 233 529 288 532 343 c 1
 469 351 400 378 354 400 c 1
 342 348 335 288 335 234 c 0
 335 200 337 166 342 132 c 1
 369 107 402 78 440 62 c 1
 526 111 l 1
EndSplineSet
EndChar

StartChar: u1D58D.ssty2
Encoding: 120205 -1 71
Width: 886
Flags: MW
HStem: -207 21 -24 21 376 95 667 20<426 426>
VStem: 202 140 540 123
LayerCount: 2
Fore
SplineSet
347 507 m 2
 345 377 l 1
 401 405 454 439 503 471 c 1
 553 448 606 428 659 410 c 1
 661 363 662 317 662 271 c 0
 662 231 661 190 659 150 c 0
 656 89 652 28 637 -31 c 1
 584 -88 510 -148 427 -203 c 1
 399 -189 l 1
 424 -174 455 -150 481 -128 c 0
 500 -111 511 -84 519 -60 c 0
 529 -27 539 27 539 115 c 0
 539 189 532 263 525 337 c 1
 490 354 443 372 404 379 c 1
 345 347 l 1
 341 308 339 269 339 230 c 0
 339 196 341 162 345 128 c 1
 362 104 382 82 404 60 c 1
 358 36 316 6 277 -24 c 1
 256 6 230 35 202 62 c 1
 211 185 219 308 219 432 c 0
 219 509 216 587 208 664 c 1
 229 673 l 1
 256 597 l 1
 312 628 373 662 426 687 c 1
 446 672 l 1
 433 665 421 658 409 649 c 0
 359 612 347 559 347 507 c 2
EndSplineSet
EndChar

StartChar: u1D58E.ssty2
Encoding: 120206 -1 72
Width: 574
Flags: MW
HStem: -26 108<286 394.5> 387 91 540 146<283 285>
VStem: 222 125
LayerCount: 2
Fore
SplineSet
411 86 m 2
 459 105 l 1
 465 87 l 1
 402 53 344 13 286 -26 c 1
 206 56 l 1
 214 114 217 173 217 232 c 0
 217 277 215 321 212 366 c 1
 170 387 l 1
 127 370 l 1
 107 382 l 1
 159 413 210 443 257 478 c 1
 271 468 316 440 347 422 c 1
 344 366 342 310 342 253 c 0
 342 215 343 176 345 138 c 0
 345 128 350 118 358 109 c 0
 367 98 380 82 392 82 c 0
 397 82 409 85 411 86 c 2
185 613 m 1
 285 686 l 1
 311 661 340 636 371 615 c 1
 283 540 l 1
 248 562 215 587 185 613 c 1
EndSplineSet
EndChar

StartChar: u1D58F.ssty2
Encoding: 120207 -1 73
Width: 574
Flags: MW
HStem: -204 21 380 99 541 142<274 276>
VStem: 238 125
LayerCount: 2
Fore
SplineSet
125 382 m 1
 268 483 l 1
 299 462 328 444 361 425 c 1
 365 369 367 313 367 256 c 0
 367 161 360 65 339 -29 c 1
 271 -90 183 -156 101 -207 c 1
 84 -189 l 1
 122 -168 161 -143 189 -118 c 0
 218 -91 229 -54 233 -18 c 1
 238 51 238 139 238 217 c 0
 238 254 238 307 235 327 c 1
 234 342 230 357 217 368 c 0
 208 375 196 380 183 380 c 0
 182 380 156 369 141 363 c 1
 125 382 l 1
364 614 m 1
 274 541 l 1
 244 563 213 585 186 611 c 1
 276 683 l 1
 286 673 334 637 364 614 c 1
EndSplineSet
EndChar

StartChar: u1D590.ssty2
Encoding: 120208 -1 74
Width: 720
Flags: MW
HStem: -25 93 308 38<157 230 141 232 358 393 393 402 449 536> 515 70 663 11
VStem: 230 125 475 101
LayerCount: 2
Fore
SplineSet
225 115 m 2
 230 308 l 1
 141 308 l 1
 157 346 l 1
 232 346 l 1
 232 453 232 590 219 665 c 1
 242 673 l 1
 252 648 272 598 272 597 c 1
 322 631 379 659 437 683 c 1
 454 667 l 1
 425 653 409 641 391 620 c 0
 379 605 369 589 366 572 c 1
 359 549 358 523 358 499 c 1
 403 528 462 563 510 585 c 1
 527 566 545 546 558 525 c 0
 567 511 572 500 572 484 c 0
 572 463 556 446 540 430 c 2
 449 346 l 1
 555 346 l 1
 536 308 l 1
 354 308 l 1
 354 253 355 190 361 136 c 1
 460 68 l 1
 471 68 536 93 570 109 c 1
 580 90 l 1
 362 -25 l 1
 220 71 l 1
 223 86 224 100 225 115 c 2
358 346 m 1
 393 346 l 2
 411 346 433 365 447 379 c 0
 465 396 475 415 475 435 c 0
 475 465 453 495 430 518 c 1
 412 508 394 497 382 484 c 0
 369 469 364 449 362 432 c 0
 359 404 358 375 358 346 c 1
EndSplineSet
EndChar

StartChar: u1D591.ssty2
Encoding: 120209 -1 75
Width: 579
Flags: MW
VStem: 227 122<292 356.5 292 368.5>
LayerCount: 2
Fore
SplineSet
451 86 m 1
 285 -24 l 1
 261 2 215 54 215 55 c 0
 224 128 227 217 227 312 c 0
 227 425 223 551 218 661 c 1
 240 665 l 1
 261 593 l 1
 313 625 371 656 430 682 c 1
 442 673 l 1
 426 663 409 647 399 638 c 0
 380 621 370 604 364 582 c 0
 355 551 351 519 351 487 c 0
 350 436 349 383 349 330 c 0
 349 254 351 179 359 112 c 1
 388 83 l 1
 398 83 423 92 442 101 c 1
 451 86 l 1
EndSplineSet
EndChar

StartChar: u1D592.ssty2
Encoding: 120210 -1 76
Width: 1223
Flags: MW
HStem: -31 21<295 295> 384 93
VStem: 223 134 536 123 845 129
LayerCount: 2
Fore
SplineSet
667 376 m 2
 829 471 l 1
 880 450 933 432 987 418 c 1
 976 362 972 306 972 250 c 0
 972 208 974 166 977 124 c 1
 1008 86 l 2
 1012 82 1020 77 1027 77 c 0
 1029 77 1039 80 1043 82 c 2
 1081 100 l 1
 1095 78 l 1
 1031 45 972 8 914 -30 c 1
 889 1 862 31 831 59 c 1
 843 93 847 151 847 213 c 0
 847 258 845 304 843 344 c 1
 810 357 761 374 725 382 c 1
 665 348 l 1
 662 309 661 272 661 233 c 0
 661 199 662 165 663 131 c 1
 725 58 l 1
 593 -28 l 1
 571 -1 528 52 528 53 c 0
 538 96 539 152 539 210 c 0
 539 256 539 303 537 346 c 1
 510 357 455 370 421 377 c 1
 355 343 l 1
 354 278 l 2
 354 227 356 176 360 126 c 1
 421 52 l 1
 295 -31 l 1
 272 0 248 32 223 59 c 1
 229 104 232 154 232 205 c 0
 232 256 229 308 227 357 c 1
 188 384 l 1
 137 365 l 1
 123 378 l 1
 271 476 l 1
 296 455 325 436 357 420 c 1
 355 403 352 370 352 369 c 1
 412 399 467 433 518 472 c 1
 567 451 616 429 670 416 c 1
 669 403 667 377 667 376 c 2
EndSplineSet
EndChar

StartChar: u1D593.ssty2
Encoding: 120211 -1 77
Width: 928
Flags: MW
HStem: -28 21<284 284> 388 86<175 251>
VStem: 206 136 525 134
LayerCount: 2
Fore
SplineSet
340 129 m 1
 408 62 l 1
 284 -28 l 1
 258 -2 230 25 198 48 c 1
 207 73 209 117 209 168 c 0
 209 232 205 307 202 366 c 1
 175 388 l 1
 128 367 l 1
 108 381 l 1
 251 474 l 1
 280 456 312 436 342 424 c 1
 340 408 340 377 340 376 c 1
 399 405 454 438 506 474 c 1
 552 452 612 430 668 411 c 1
 660 341 656 271 656 200 c 0
 656 178 656 155 657 132 c 1
 709 80 l 1
 720 83 748 95 764 104 c 1
 774 88 l 1
 717 56 659 14 606 -26 c 1
 581 6 548 38 518 68 c 1
 527 116 530 167 530 219 c 0
 530 261 528 303 526 345 c 1
 492 360 445 372 408 381 c 1
 339 350 l 1
 339 348 339 204 340 129 c 1
EndSplineSet
EndChar

StartChar: u1D594.ssty2
Encoding: 120212 -1 78
Width: 879
Flags: MW
HStem: -34 89 391 91
VStem: 218 134 548 120
LayerCount: 2
Fore
SplineSet
384 -34 m 1
 327 -4 273 28 224 65 c 1
 223 85 222 104 222 124 c 0
 222 204 231 283 247 362 c 1
 325 400 401 440 475 482 c 1
 534 449 601 426 670 410 c 1
 671 386 672 361 672 337 c 0
 672 298 670 260 667 221 c 0
 664 177 658 132 644 89 c 1
 564 41 476 0 384 -34 c 1
520 55 m 1
 540 126 550 199 550 272 c 0
 550 299 549 327 546 354 c 1
 490 361 437 378 387 397 c 1
 370 372 352 318 352 238 c 0
 352 203 356 167 360 131 c 1
 406 98 459 69 520 55 c 1
EndSplineSet
EndChar

StartChar: u1D595.ssty2
Encoding: 120213 -1 79
Width: 873
Flags: MW
HStem: -208 21<247 247> 22 108<361 361> 383 99 538 20<295 295>
VStem: 234 128 541 135
LayerCount: 2
Fore
SplineSet
371 -161 m 1
 247 -208 l 1
 228 -202 l 2
 228 -201 233 -46 235 32 c 1
 190 32 149 14 116 -9 c 1
 103 8 l 1
 142 41 194 85 234 97 c 1
 234 359 l 1
 208 380 184 410 176 437 c 1
 210 481 251 520 295 558 c 1
 317 552 l 1
 306 539 296 525 296 510 c 0
 296 496 304 484 313 473 c 0
 326 456 343 441 361 428 c 1
 361 386 l 1
 519 482 l 1
 667 425 l 1
 673 399 676 338 676 310 c 0
 676 225 668 167 643 84 c 1
 582 55 527 19 476 -19 c 1
 444 3 404 17 361 22 c 1
 361 -39 366 -100 371 -161 c 1
416 391 m 1
 361 356 l 1
 361 130 l 1
 421 122 481 105 534 77 c 1
 546 119 549 157 549 202 c 0
 549 252 545 302 538 349 c 1
 502 363 455 381 416 391 c 1
EndSplineSet
EndChar

StartChar: u1D596.ssty2
Encoding: 120214 -1 80
Width: 864
Flags: MW
HStem: -212 21<524 524> -30 102 386 93
VStem: 202 131 516 122
LayerCount: 2
Fore
SplineSet
648 -171 m 1
 524 -212 l 1
 503 -202 l 1
 516 -109 519 -15 519 78 c 1
 312 -30 l 1
 204 73 l 1
 202 95 201 117 201 140 c 0
 201 217 212 295 230 372 c 1
 444 478 l 1
 488 462 534 449 581 442 c 1
 658 485 l 1
 672 479 l 1
 638 376 638 188 638 41 c 0
 638 -30 643 -100 648 -171 c 1
521 358 m 1
 460 362 396 381 362 397 c 1
 344 368 332 305 332 210 c 0
 332 190 332 169 333 148 c 1
 356 120 386 87 416 65 c 1
 449 76 484 94 515 110 c 1
 515 193 515 283 521 358 c 1
EndSplineSet
EndChar

StartChar: u1D597.ssty2
Encoding: 120215 -1 81
Width: 714
Flags: MW
HStem: -26 96<358 449> 378 95
VStem: 225 138
LayerCount: 2
Fore
SplineSet
436 334 m 2
 386 373 l 1
 380 370 370 363 366 359 c 1
 364 341 362 286 362 236 c 0
 362 206 362 176 364 147 c 0
 365 136 372 126 381 118 c 0
 382 118 427 86 449 70 c 1
 547 101 l 1
 548 80 l 1
 358 -26 l 1
 316 11 269 44 220 76 c 1
 234 119 235 187 235 222 c 0
 235 266 234 296 230 340 c 1
 214 355 198 369 179 380 c 1
 130 368 l 1
 118 382 l 1
 271 473 l 1
 365 411 l 1
 365 380 l 1
 482 471 l 1
 500 448 518 422 540 405 c 0
 546 400 555 398 564 398 c 0
 574 398 591 403 603 407 c 1
 603 394 l 1
 572 368 531 343 491 320 c 0
 488 318 485 316 478 316 c 0
 461 316 452 322 436 334 c 2
EndSplineSet
EndChar

StartChar: u1D598.ssty2
Encoding: 120216 -1 82
Width: 784
Flags: MW
HStem: -35 21 41 90<167.5 295.5> 225 77 342 86<468 544> 459 20
VStem: 190 136 458 125
LayerCount: 2
Fore
SplineSet
635 442 m 1
 478 342 l 1
 458 342 433 351 412 359 c 1
 380 373 350 390 322 408 c 1
 316 385 312 362 312 339 c 0
 312 306 322 269 343 239 c 1
 399 256 457 279 513 302 c 1
 537 292 560 280 581 266 c 1
 587 233 591 199 591 165 c 0
 591 124 585 83 570 44 c 1
 497 21 423 -4 355 -35 c 1
 327 -14 298 6 263 21 c 0
 239 32 214 41 185 41 c 0
 150 41 118 26 91 10 c 1
 79 26 l 1
 217 125 l 1
 236 129 255 131 274 131 c 0
 317 131 402 76 456 38 c 1
 461 61 461 88 461 112 c 0
 461 139 459 167 456 195 c 1
 439 210 420 225 393 225 c 0
 376 225 360 220 345 214 c 0
 323 205 276 183 240 167 c 1
 224 180 208 200 195 218 c 0
 191 224 190 231 190 238 c 2
 190 377 l 1
 395 480 l 1
 468 442 l 2
 487 432 509 428 531 428 c 0
 557 428 597 445 623 461 c 1
 635 442 l 1
EndSplineSet
EndChar

StartChar: u1D599.ssty2
Encoding: 120217 -1 83
Width: 642
Flags: MW
HStem: 359 46<173 247 173 247 157 247 376 476>
VStem: 247 128
LayerCount: 2
Fore
SplineSet
374 359 m 1
 374 284 374 210 380 136 c 0
 381 129 383 122 389 117 c 0
 408 97 440 78 466 73 c 1
 475 74 524 93 548 104 c 1
 553 84 l 1
 357 -27 l 1
 322 5 283 34 240 60 c 1
 247 134 247 260 247 359 c 1
 157 359 l 1
 157 367 l 1
 173 405 l 1
 247 405 l 1
 247 553 l 1
 430 654 l 1
 443 640 l 1
 421 624 399 606 391 598 c 0
 381 589 376 480 376 405 c 1
 493 405 l 1
 493 398 l 1
 476 359 l 1
 374 359 l 1
EndSplineSet
EndChar

StartChar: u1D59A.ssty2
Encoding: 120218 -1 84
Width: 856
Flags: MW
HStem: -32 94 384 89
VStem: 236 117 515 126
LayerCount: 2
Fore
SplineSet
512 424 m 1
 645 468 l 1
 660 459 l 1
 644 359 642 259 642 158 c 0
 642 149 657 104 682 84 c 0
 684 83 690 79 694 79 c 0
 697 79 705 80 708 81 c 2
 763 101 l 1
 769 88 l 1
 594 -32 l 1
 524 73 l 1
 456 48 387 0 345 -35 c 1
 299 -3 229 25 179 42 c 1
 196 65 208 89 217 115 c 1
 228 151 236 188 236 224 c 0
 236 269 226 312 215 356 c 1
 203 368 190 379 169 384 c 1
 130 365 l 1
 115 379 l 1
 262 473 l 1
 266 470 320 433 348 414 c 1
 350 362 352 310 352 259 c 0
 352 228 349 197 343 166 c 1
 337 145 329 123 314 104 c 1
 350 97 401 78 443 62 c 1
 516 98 l 1
 516 201 516 312 512 424 c 1
EndSplineSet
EndChar

StartChar: u1D59B.ssty2
Encoding: 120219 -1 85
Width: 874
Flags: MW
HStem: -28 83 389 87<409 506> 526 20<278 278>
VStem: 213 133 531 130
LayerCount: 2
Fore
SplineSet
621 80 m 1
 343 -28 l 1
 304 8 259 39 210 66 c 1
 219 103 219 163 219 212 c 0
 219 258 216 308 213 355 c 1
 192 376 167 402 167 422 c 0
 167 456 232 509 278 546 c 1
 300 542 l 1
 288 530 280 515 280 500 c 0
 280 479 320 442 348 416 c 1
 346 387 l 1
 506 476 l 1
 659 415 l 1
 661 382 663 349 663 316 c 0
 663 280 661 244 657 208 c 0
 652 164 645 120 621 80 c 1
422 389 m 0
 396 389 366 373 346 361 c 1
 346 152 l 2
 346 146 346 138 348 133 c 0
 351 126 358 120 366 114 c 0
 391 95 430 76 467 59 c 0
 470 58 478 56 482 56 c 0
 486 56 498 58 501 67 c 0
 526 131 533 196 533 263 c 0
 533 291 532 320 530 349 c 1
 496 365 434 389 422 389 c 0
EndSplineSet
EndChar

StartChar: u1D59C.ssty2
Encoding: 120220 -1 86
Width: 1218
Flags: MW
HStem: -33 96 376 94 529 20<280 280>
VStem: 224 132 531 135 868 133
LayerCount: 2
Fore
SplineSet
667 370 m 1
 852 470 l 1
 899 447 950 427 1002 409 c 1
 1000 334 999 259 987 184 c 1
 981 140 971 95 944 56 c 1
 866 29 790 1 718 -33 c 1
 682 -13 646 6 609 22 c 0
 581 34 553 44 522 51 c 1
 533 86 535 162 535 237 c 0
 535 270 534 303 534 332 c 1
 503 352 436 382 427 382 c 0
 413 382 380 371 354 355 c 1
 352 327 351 298 351 270 c 0
 351 218 354 166 358 113 c 1
 414 50 l 1
 294 -30 l 1
 267 2 233 41 204 59 c 1
 216 88 225 145 225 216 c 0
 225 262 222 309 218 356 c 1
 178 395 l 2
 169 404 166 417 166 428 c 0
 166 432 167 436 170 439 c 0
 203 477 241 519 280 549 c 1
 298 547 l 1
 286 533 281 516 281 500 c 0
 281 479 325 443 356 419 c 1
 356 382 l 1
 398 404 457 441 506 471 c 1
 557 445 611 423 667 404 c 1
 667 370 l 1
755 378 m 0
 743 378 696 360 670 345 c 1
 666 304 664 262 664 221 c 0
 664 198 664 176 666 153 c 0
 667 141 673 128 686 121 c 0
 723 99 763 80 807 64 c 0
 809 63 816 61 819 61 c 0
 822 61 830 65 835 78 c 1
 851 112 858 147 863 182 c 0
 871 233 872 284 872 336 c 1
 835 353 767 378 755 378 c 0
EndSplineSet
EndChar

StartChar: u1D59D.ssty2
Encoding: 120221 -1 87
Width: 713
Flags: MW
HStem: -188 64 -29 97 381 90
VStem: 119 77 252 128<185 279>
LayerCount: 2
Fore
SplineSet
570 82 m 1
 373 -29 l 1
 273 44 l 1
 252 41 237 29 223 17 c 0
 204 2 196 -18 196 -38 c 0
 196 -51 203 -64 215 -74 c 0
 254 -105 310 -114 365 -122 c 1
 367 -133 l 1
 264 -188 l 1
 233 -181 201 -171 172 -157 c 0
 152 -147 132 -134 122 -117 c 1
 116 -109 114 -100 114 -91 c 0
 114 -81 116 -71 119 -61 c 1
 157 -15 196 31 246 70 c 1
 252 113 252 162 252 208 c 0
 252 252 251 296 247 339 c 0
 247 346 240 355 237 357 c 2
 186 381 l 1
 176 381 153 371 144 365 c 1
 126 377 l 1
 176 410 244 454 282 471 c 1
 383 413 l 1
 383 377 l 1
 506 468 l 1
 532 437 564 406 599 388 c 1
 512 313 l 1
 501 315 490 317 481 322 c 0
 457 336 420 365 414 370 c 1
 410 368 391 352 387 346 c 1
 382 322 380 297 380 261 c 0
 380 218 380 164 383 132 c 0
 383 131 385 126 386 124 c 0
 391 117 412 104 472 68 c 1
 485 68 534 86 568 100 c 1
 570 82 l 1
EndSplineSet
EndChar

StartChar: u1D59E.ssty2
Encoding: 120222 -1 88
Width: 857
Flags: MW
HStem: -222 21<379 379> -28 21 381 97<422 513> 537 20
VStem: 225 132<305.5 356> 532 132
LayerCount: 2
Fore
SplineSet
668 412 m 1
 671 370 672 329 672 289 c 0
 672 201 666 119 658 39 c 1
 658 -1 627 -34 596 -66 c 0
 562 -100 528 -134 486 -164 c 0
 455 -186 412 -207 379 -222 c 1
 345 -197 l 1
 382 -181 436 -156 446 -149 c 0
 471 -130 489 -110 499 -83 c 0
 506 -64 514 -40 519 -20 c 1
 532 47 535 114 535 182 c 0
 535 234 532 286 527 338 c 1
 496 356 460 372 422 381 c 1
 357 356 l 1
 357 141 l 2
 357 130 357 117 366 108 c 2
 414 53 l 1
 310 -39 l 1
 281 -8 235 39 205 60 c 1
 225 117 225 256 225 355 c 0
 225 359 223 365 220 367 c 0
 198 386 171 411 171 432 c 0
 171 446 181 459 191 471 c 0
 210 493 252 531 284 559 c 1
 304 553 l 1
 293 538 285 524 285 507 c 0
 285 494 298 477 310 465 c 0
 326 448 340 438 359 426 c 1
 359 385 l 1
 513 478 l 1
 563 453 614 431 668 412 c 1
EndSplineSet
EndChar

StartChar: u1D59F.ssty2
Encoding: 120223 -1 89
Width: 717
Flags: MW
HStem: -215 80 371 101
VStem: 96 121 391 113
LayerCount: 2
Fore
SplineSet
486 -103 m 1
 314 -215 l 1
 254 -215 190 -209 146 -175 c 0
 124 -158 107 -137 96 -115 c 1
 171 -17 262 73 371 149 c 1
 335 172 273 181 224 184 c 1
 224 194 l 1
 325 259 l 2
 344 271 364 286 364 306 c 0
 364 323 345 346 327 356 c 0
 307 367 295 371 271 371 c 0
 257 371 244 366 230 361 c 0
 211 353 193 342 176 331 c 1
 159 346 l 1
 217 393 282 434 349 472 c 1
 380 462 409 450 432 432 c 0
 456 413 477 392 477 365 c 0
 477 353 457 336 442 323 c 2
 371 264 l 1
 417 251 460 234 502 214 c 1
 514 168 520 121 520 74 c 0
 520 14 506 -43 486 -103 c 1
382 120 m 1
 315 70 217 -3 217 -46 c 0
 217 -66 230 -82 249 -95 c 0
 305 -133 358 -134 368 -134 c 1
 375 -121 390 -90 390 -4 c 0
 390 29 388 70 382 120 c 1
EndSplineSet
EndChar

StartChar: uni0022.ssty2
Encoding: 34 -1 90
Width: 488
Flags: MW
HStem: 432 21<149 149 149 176 306 334 306 306> 675 19
VStem: 116 88<645 662> 271 88<665.5 670.5>
LayerCount: 2
Fore
SplineSet
149 432 m 1
 124 584 l 1
 119 608 116 633 116 657 c 0
 116 667 117 679 128 686 c 0
 137 692 149 695 161 695 c 0
 171 695 181 695 190 690 c 0
 196 686 204 682 204 675 c 2
 204 623 l 1
 176 432 l 1
 149 432 l 1
306 432 m 1
 278 625 l 2
 276 639 271 663 271 668 c 0
 271 673 274 679 280 683 c 0
 291 691 306 692 322 692 c 0
 333 692 344 691 351 684 c 1
 356 681 359 677 359 673 c 0
 359 657 359 641 358 626 c 2
 334 432 l 1
 306 432 l 1
EndSplineSet
EndChar

StartChar: uni0031.alt.ssty2
Encoding: 1114130 -1 91
Width: 806
Flags: MW
HStem: -9 21<386 386> 594 30 694 20
VStem: 362 148
LayerCount: 2
Fore
SplineSet
510 32 m 1
 386 -9 l 1
 361 5 l 1
 386 190 389 376 377 561 c 0
 377 569 373 577 367 582 c 1
 359 587 350 595 344 595 c 2
 186 595 l 1
 188 626 l 1
 501 712 l 2
 506 714 514 714 519 710 c 0
 523 707 527 702 526 697 c 0
 513 560 505 422 505 284 c 0
 505 200 505 96 510 32 c 1
EndSplineSet
EndChar

StartChar: u1D521.alt01.ssty2
Encoding: 1114131 -1 93
Width: 790
Flags: MW
HStem: -33 85 664 20<282 282>
VStem: 185 98 513 106
LayerCount: 2
Fore
SplineSet
609 439 m 1
 612 414 614 368 614 328 c 0
 614 297 612 267 609 249 c 1
 605 201 600 153 578 109 c 1
 354 -34 l 1
 294 0 235 35 188 81 c 1
 186 111 185 138 185 166 c 0
 185 210 187 259 192 335 c 1
 232 367 274 400 317 427 c 1
 279 439 237 453 213 472 c 0
 195 487 187 507 187 528 c 0
 187 589 229 643 282 684 c 1
 296 674 l 1
 275 653 260 625 260 596 c 0
 260 573 273 551 294 534 c 1
 326 506 371 489 415 476 c 0
 477 457 542 446 609 439 c 1
507 371 m 1
 347 419 l 1
 314 384 303 363 295 346 c 0
 285 323 280 290 280 254 c 0
 280 215 284 171 288 135 c 1
 303 119 323 106 342 94 c 0
 369 78 398 64 428 51 c 0
 432 50 435 48 439 48 c 0
 445 48 450 51 456 58 c 0
 489 102 506 154 512 205 c 0
 515 226 516 246 516 267 c 0
 516 301 512 338 507 371 c 1
EndSplineSet
EndChar

StartChar: u1D521.alt02.ssty2
Encoding: 1114132 -1 94
Width: 791
Flags: MW
HStem: -30 73 562 54
VStem: 192 96 511 107
LayerCount: 2
Fore
SplineSet
378 451 m 1
 307 396 l 1
 286 356 285 297 285 260 c 0
 285 220 288 180 294 140 c 0
 297 118 369 73 433 43 c 1
 511 118 514 266 514 314 c 0
 514 345 512 375 510 406 c 1
 427 477 333 531 220 561 c 1
 195 561 172 557 148 550 c 1
 139 569 l 1
 187 589 236 604 287 616 c 1
 382 598 525 537 613 459 c 1
 615 430 616 401 616 372 c 0
 616 210 581 127 570 102 c 1
 498 53 421 11 343 -30 c 1
 289 4 237 41 191 82 c 1
 189 111 188 139 188 168 c 0
 188 232 193 296 203 360 c 1
 249 397 302 429 355 460 c 1
 378 451 l 1
EndSplineSet
EndChar

StartChar: u1D523.alt01.ssty2
Encoding: 1114133 -1 95
Width: 593
Flags: W
HStem: 351 35<347 470 347 347> 601 80<335 395>
VStem: 236 33<532.5 545> 243 104<279 351 279 351 279 351>
LayerCount: 2
Fore
SplineSet
504 665 m 1xe0
 504 649 l 1
 419 566 l 1
 399 585 374 601 344 601 c 0
 326 601 303 597 290 586 c 0
 276 575 269 561 269 544 c 0xe0
 269 521 279 499 290 478 c 0
 307 445 324 416 345 386 c 1
 486 386 l 1
 470 351 l 1
 347 351 l 1
 347 207 344 -40 325 -70 c 2
 206 -257 l 1
 185 -250 l 1
 197 -220 214 -172 231 -100 c 0
 242 -54 243 -8 243 38 c 2
 243 351 l 1xd0
 133 351 l 1
 151 385 l 1
 246 385 l 1
 241 430 236 485 236 521 c 0
 236 569 263 614 303 648 c 0
 325 666 350 681 380 681 c 0
 410 681 438 667 462 652 c 0
 464 650 468 648 471 648 c 0
 475 648 477 649 480 651 c 2
 504 665 l 1xe0
EndSplineSet
EndChar

StartChar: u1D523.alt02.ssty2
Encoding: 1114134 -1 96
Width: 585
Flags: MW
HStem: 351 35<347 471 347 486> 585 63<375 421>
VStem: 245 102<293 351 351 386 351 396>
LayerCount: 2
Fore
SplineSet
347 351 m 1
 341 41 l 2
 341 4 337 -34 324 -69 c 1
 216 -242 l 1
 191 -240 l 1
 208 -196 235 -85 235 -84 c 0
 239 -56 242 -26 242 3 c 0
 242 119 245 235 245 351 c 1
 133 351 l 1
 152 385 l 1
 245 385 l 1
 245 407 225 470 215 512 c 0
 212 523 212 546 212 560 c 1
 247 606 284 642 329 681 c 1
 354 666 381 648 413 648 c 0
 429 648 455 658 466 667 c 1
 475 660 l 1
 395 585 l 1
 355 585 315 591 277 598 c 1
 277 565 294 534 307 503 c 0
 323 467 342 423 347 386 c 1
 486 386 l 1
 471 351 l 1
 347 351 l 1
EndSplineSet
EndChar

StartChar: u1D524.alt.ssty2
Encoding: 1114135 -1 97
Width: 797
Flags: MW
HStem: -214 64<376.5 385> -31 90 392 79
VStem: 183 100 515 116
LayerCount: 2
Fore
SplineSet
614 -53 m 1
 464 -192 l 1
 435 -208 402 -214 368 -214 c 0
 289 -214 215 -189 158 -143 c 1
 205 -48 l 1
 218 -47 l 1
 224 -71 243 -91 264 -109 c 0
 301 -139 351 -150 402 -150 c 0
 441 -150 483 -140 511 -117 c 0
 529 -102 533 -77 533 -56 c 0
 533 -25 517 47 505 98 c 1
 288 -31 l 1
 188 65 l 1
 187 102 185 139 185 176 c 0
 185 291 200 350 205 368 c 1
 267 404 351 449 398 470 c 1
 441 447 489 433 536 424 c 1
 620 464 l 1
 629 459 l 1
 619 436 614 416 609 390 c 0
 602 353 601 305 601 268 c 0
 600 223 599 136 599 135 c 0
 608 84 624 -2 624 -18 c 0
 624 -30 620 -42 614 -53 c 1
373 48 m 1
 506 124 l 1
 506 192 509 272 515 352 c 1
 444 358 377 370 311 390 c 1
 296 364 283 325 283 245 c 0
 283 204 285 163 290 122 c 1
 313 99 345 67 373 48 c 1
EndSplineSet
EndChar

StartChar: u1D528.alt.ssty2
Encoding: 1114136 -1 98
Width: 593
Flags: MW
HStem: 351 35<147 203 127 204 299 412 299 299>
VStem: 203 96<302 351>
LayerCount: 2
Fore
SplineSet
299 351 m 1
 299 118 l 1
 371 69 l 2
 375 66 379 64 384 64 c 0
 387 64 395 67 399 69 c 0
 401 69 446 89 470 99 c 1
 471 76 l 1
 306 -20 l 1
 195 66 l 1
 201 146 203 253 203 351 c 1
 127 351 l 1
 147 386 l 1
 204 386 l 1
 204 485 203 584 195 671 c 1
 215 676 l 1
 242 598 l 1
 293 629 339 661 392 687 c 1
 411 677 l 1
 384 658 363 640 340 614 c 0
 311 582 301 540 298 500 c 1
 339 528 425 583 426 583 c 0
 445 558 462 532 475 504 c 1
 432 449 l 1
 420 463 407 476 392 488 c 0
 383 496 371 506 357 506 c 0
 348 506 339 502 333 496 c 0
 299 468 297 425 297 386 c 1
 432 386 l 1
 412 351 l 1
 299 351 l 1
EndSplineSet
EndChar

StartChar: u1D531.alt.ssty2
Encoding: 1114137 -1 99
Width: 594
Flags: MW
HStem: 351 35<151 239 151 239 132 239 332 451>
VStem: 239 94
LayerCount: 2
Fore
SplineSet
515 84 m 1
 350 -21 l 1
 312 7 237 61 236 61 c 1
 239 100 239 253 239 351 c 1
 132 351 l 1
 151 386 l 1
 239 386 l 1
 239 433 239 486 236 534 c 1
 336 578 l 1
 349 574 l 1
 337 514 332 447 332 386 c 1
 473 386 l 1
 451 351 l 1
 332 351 l 1
 332 274 332 143 333 123 c 1
 360 104 398 81 419 69 c 0
 421 67 424 67 427 67 c 0
 432 67 437 69 441 71 c 0
 443 71 486 91 507 101 c 1
 515 84 l 1
EndSplineSet
EndChar

StartChar: u1D532.alt.ssty2
Encoding: 1114138 -1 100
Width: 794
Flags: MW
HStem: -21 79 393 83
VStem: 218 86 501 91
LayerCount: 2
Fore
SplineSet
602 468 m 1
 611 462 l 1
 599 383 593 304 593 225 c 0
 593 193 595 161 600 131 c 0
 602 117 612 103 623 91 c 0
 627 86 635 83 643 83 c 0
 646 83 653 84 657 85 c 0
 675 90 689 96 707 103 c 1
 714 88 l 1
 663 54 617 18 571 -19 c 1
 561 -16 l 1
 543 20 529 46 501 78 c 1
 421 47 313 -26 313 -26 c 1
 290 -10 207 36 163 48 c 1
 179 70 188 99 195 127 c 0
 206 172 213 218 213 264 c 0
 213 292 213 319 205 346 c 1
 198 364 188 383 170 396 c 1
 125 376 l 1
 107 386 l 1
 240 474 l 1
 259 455 278 436 302 421 c 1
 303 399 303 378 303 356 c 0
 303 325 302 294 301 264 c 0
 299 210 290 156 272 104 c 1
 391 55 l 1
 499 101 l 1
 503 151 505 215 505 264 c 0
 505 316 503 369 500 424 c 1
 602 468 l 1
EndSplineSet
EndChar

StartChar: uni0030.onum.ssty2
Encoding: 1114139 -1 101
Width: 795
Flags: MW
HStem: -13 72 414 79
VStem: 146 94<220.5 234.5> 554 90<222.5 239.5>
LayerCount: 2
Fore
SplineSet
410 493 m 1
 464 480 515 455 554 421 c 1
 607 378 644 322 644 260 c 0
 644 185 601 117 539 65 c 1
 487 23 425 -13 353 -13 c 0
 302 -13 253 3 218 33 c 0
 167 76 146 137 146 198 c 0
 146 271 187 339 248 391 c 0
 296 431 350 466 410 493 c 1
331 418 m 1
 304 404 289 387 278 373 c 0
 250 339 240 292 240 249 c 0
 240 192 259 135 308 95 c 0
 336 72 379 53 419 53 c 0
 453 53 471 55 495 69 c 0
 541 96 554 168 554 212 c 0
 554 267 530 321 483 360 c 0
 450 388 380 415 331 418 c 1
EndSplineSet
EndChar

StartChar: uni0031.onum.ssty2
Encoding: 1114140 -1 102
Width: 795
Flags: MW
HStem: 0 44 431 38
VStem: 351 103
LayerCount: 2
Fore
SplineSet
456 469 m 1
 468 461 l 1
 456 384 453 307 453 229 c 0
 453 175 455 121 457 67 c 0
 457 61 458 55 463 51 c 0
 467 47 471 43 477 43 c 0
 535 43 591 44 649 46 c 1
 648 -1 l 1
 565 3 482 6 399 6 c 0
 318 6 236 4 152 -1 c 1
 152 44 l 1
 210 43 267 43 325 43 c 0
 332 43 339 44 344 49 c 1
 348 51 349 61 349 68 c 0
 351 86 351 196 351 260 c 0
 351 304 351 362 343 391 c 0
 338 407 323 416 305 421 c 0
 285 426 249 430 222 433 c 1
 221 460 l 1
 300 460 378 462 456 469 c 1
EndSplineSet
EndChar

StartChar: uni0032.onum.ssty2
Encoding: 1114141 -1 103
Width: 795
Flags: MW
HStem: 1 64<323.5 327 323.5 649> 415 59<350.5 452>
VStem: 468 91<315 385>
LayerCount: 2
Fore
SplineSet
667 73 m 2
 679 67 l 1
 649 1 l 1
 170 1 l 1
 168 17 l 2
 169 17 248 79 288 111 c 0
 337 149 384 190 421 236 c 0
 445 266 468 297 468 333 c 0
 468 356 455 377 435 393 c 0
 417 407 393 415 368 415 c 0
 333 415 277 388 234 367 c 1
 222 385 l 1
 257 410 295 434 336 451 c 0
 367 464 401 474 435 474 c 0
 469 474 501 462 524 442 c 0
 547 423 559 398 559 372 c 0
 559 355 552 338 543 321 c 0
 531 298 515 276 498 255 c 0
 444 191 379 134 313 78 c 0
 311 76 308 74 308 73 c 0
 308 65 320 65 327 65 c 0
 441 68 666 73 667 73 c 2
EndSplineSet
EndChar

StartChar: uni0033.onum.ssty2
Encoding: 1114142 -1 104
Width: 795
Flags: MW
HStem: -182 33<283.5 325 275.5 355.5> 170 34<251 251> 422 52<340.5 434>
VStem: 503 110<14 48.5>
LayerCount: 2
Fore
SplineSet
392 210 m 1
 396 203 l 1
 450 203 517 191 557 158 c 0
 594 127 613 85 613 42 c 0
 613 -14 585 -68 537 -107 c 1
 479 -157 397 -182 314 -182 c 0
 253 -182 195 -166 143 -141 c 1
 162 -114 l 1
 205 -133 251 -149 300 -149 c 0
 350 -149 401 -139 435 -110 c 0
 480 -73 503 -23 503 29 c 0
 503 68 491 107 457 135 c 0
 437 152 408 159 380 164 c 0
 337 171 294 172 251 170 c 1
 251 204 l 1
 285 206 320 210 354 220 c 0
 379 228 404 238 423 254 c 0
 446 274 464 298 464 326 c 0
 464 352 453 378 431 397 c 0
 409 415 379 422 348 422 c 0
 333 422 319 418 305 413 c 0
 285 405 267 395 251 385 c 1
 231 396 l 1
 259 418 288 440 323 455 c 0
 351 466 383 474 415 474 c 0
 453 474 493 467 521 444 c 0
 546 424 559 397 559 368 c 0
 559 331 541 296 510 270 c 0
 480 245 432 224 392 210 c 1
EndSplineSet
EndChar

StartChar: uni0034.onum.ssty2
Encoding: 1114143 -1 105
Width: 795
Flags: MW
HStem: -192 21<470 470> -1 42<192 197 197 464> 456 19
VStem: 464 96
LayerCount: 2
Fore
SplineSet
553 476 m 1
 559 473 l 1
 556 390 554 306 554 222 c 0
 554 161 555 101 558 40 c 1
 597 41 636 42 675 45 c 1
 666 -1 l 1
 561 -1 l 1
 561 -54 561 -128 564 -162 c 1
 470 -192 l 1
 456 -183 l 1
 463 -122 464 -62 464 -1 c 1
 110 -1 l 1
 109 22 l 1
 456 451 l 1
 553 476 l 1
197 41 m 1
 464 41 l 1
 464 149 464 287 456 365 c 1
 441 365 l 1
 344 264 263 155 192 41 c 1
 197 41 l 1
EndSplineSet
EndChar

StartChar: uni0035.onum.ssty2
Encoding: 1114144 -1 106
Width: 795
Flags: MW
HStem: -184 30<264.5 311 264.5 333.5> 169 46<319 436.5> 378 80<258.5 263 263 573>
VStem: 194 48<190 366 190 458> 499 127<14 43.5>
LayerCount: 2
Fore
SplineSet
602 458 m 1
 573 378 l 1
 263 378 l 2
 254 378 242 375 242 366 c 2
 242 190 l 1
 253 185 l 1
 301 204 354 215 408 215 c 0
 465 215 524 203 566 168 c 0
 606 135 626 89 626 42 c 0
 626 -14 601 -69 553 -109 c 0
 483 -168 383 -184 284 -184 c 0
 240 -184 195 -174 153 -159 c 1
 168 -134 l 1
 205 -146 245 -154 284 -154 c 0
 338 -154 393 -143 432 -111 c 0
 474 -76 499 -28 499 23 c 0
 499 64 487 106 452 135 c 0
 423 159 384 169 344 169 c 0
 294 169 249 145 216 114 c 1
 194 125 l 1
 194 458 l 1
 602 458 l 1
EndSplineSet
EndChar

StartChar: uni0036.onum.ssty2
Encoding: 1114145 -1 107
Width: 795
Flags: MW
HStem: -13 45 314 63 641 59<521.5 605>
VStem: 151 106 567 95<181 192>
LayerCount: 2
Fore
SplineSet
649 691 m 1
 638 634 l 1
 630 629 l 1
 607 637 582 641 558 641 c 0
 485 641 420 609 366 568 c 1
 281 501 253 402 252 306 c 1
 260 305 l 1
 324 348 399 377 482 377 c 0
 528 377 573 361 606 334 c 1
 644 301 662 256 662 211 c 0
 662 151 626 98 576 56 c 0
 524 13 455 -13 380 -13 c 0
 326 -13 273 2 235 34 c 0
 171 87 151 164 151 238 c 0
 151 363 205 487 312 576 c 1
 354 613 402 645 456 668 c 0
 499 687 547 700 596 700 c 0
 614 700 632 696 649 691 c 1
255 275 m 1
 259 233 267 179 282 139 c 0
 293 110 308 81 333 60 c 1
 355 43 393 26 423 26 c 0
 462 26 478 27 511 44 c 0
 553 65 567 131 567 172 c 0
 567 212 547 251 512 279 c 1
 485 303 422 318 392 318 c 0
 328 318 298 302 255 275 c 1
EndSplineSet
EndChar

StartChar: uni0037.onum.ssty2
Encoding: 1114146 -1 108
Width: 795
Flags: MW
HStem: -181 21<145 233 145 145> 382 86<205 205 205 565 167 205>
VStem: 141 553
LayerCount: 2
Fore
SplineSet
453 458 m 2
 695 458 l 1
 695 442 l 1
 600 330 509 217 422 101 c 0
 354 9 289 -84 233 -181 c 1
 145 -181 l 1
 141 -168 l 1
 294 9 433 193 572 377 c 1
 571 377 567 380 565 382 c 1
 167 382 l 1
 205 468 l 1
 288 460 371 458 453 458 c 2
EndSplineSet
EndChar

StartChar: uni0038.onum.ssty2
Encoding: 1114147 -1 109
Width: 795
Flags: MW
HStem: -10 46 655 51
VStem: 145 100<156.5 178> 546 104
LayerCount: 2
Fore
SplineSet
362 344 m 1
 329 330 303 309 283 286 c 1
 258 255 245 214 245 177 c 0
 245 136 261 95 296 65 c 1
 321 45 368 21 403 21 c 0
 443 21 468 31 488 40 c 1
 520 57 547 103 547 168 c 0
 547 209 521 245 486 274 c 0
 456 299 398 324 362 344 c 1
457 394 m 1
 503 367 573 325 595 307 c 0
 630 278 650 239 650 197 c 0
 650 149 631 100 588 67 c 0
 525 19 461 -10 360 -10 c 0
 302 -10 243 1 201 36 c 0
 163 68 145 112 145 157 c 0
 145 199 159 242 197 272 c 1
 239 308 290 335 343 360 c 1
 303 382 267 409 240 441 c 1
 219 468 204 498 204 530 c 0
 204 570 221 611 258 638 c 0
 300 669 350 689 402 706 c 1
 438 704 474 700 507 691 c 0
 533 684 557 675 576 659 c 0
 605 635 619 602 619 568 c 0
 619 534 601 502 577 475 c 0
 546 441 500 414 457 394 c 1
436 410 m 1
 487 438 516 491 516 544 c 0
 516 572 508 601 484 622 c 1
 452 648 408 669 380 677 c 1
 356 670 318 647 306 623 c 0
 296 605 294 583 294 563 c 0
 294 537 310 513 329 492 c 1
 354 462 400 430 436 410 c 1
EndSplineSet
EndChar

StartChar: uni0039.onum.ssty2
Encoding: 1114148 -1 110
Width: 795
Flags: MW
HStem: -182 28<183 228 183 245> 34 60<374.5 377.5> 416 54
VStem: 129 107<238.5 260> 540 119<189.5 221.5 147.5 235.5>
LayerCount: 2
Fore
SplineSet
528 102 m 1
 521 106 l 1
 475 75 413 34 342 34 c 1
 290 37 239 47 203 78 c 1
 152 119 129 176 129 234 c 0
 129 286 145 340 191 377 c 1
 233 413 312 444 378 470 c 1
 417 468 457 464 494 454 c 0
 524 445 552 434 573 416 c 0
 603 391 623 359 636 326 c 0
 651 285 659 243 659 200 c 0
 659 95 611 -7 521 -82 c 0
 433 -155 307 -182 183 -182 c 1
 183 -154 l 1
 273 -154 367 -135 432 -81 c 0
 487 -35 515 40 528 102 c 1
504 125 m 0
 529 146 540 175 540 204 c 0
 540 267 523 339 468 385 c 0
 438 410 384 430 347 434 c 1
 328 427 308 418 290 400 c 0
 253 363 236 311 236 264 c 0
 236 213 257 162 301 125 c 0
 325 105 357 94 392 94 c 0
 433 94 475 101 504 125 c 0
EndSplineSet
EndChar

StartChar: u1D504.ssty2
Encoding: 120068 -1 111
Width: 1054
Flags: MW
HStem: -27 21<456 456 775 775> 80 74 633 53<314 451>
VStem: 123 77<487 549> 231 83<338.5 395> 539 96<425 539.5> 698 100
LayerCount: 2
Fore
SplineSet
577 319 m 1
 363 155 l 1
 411 155 441 134 468 112 c 2
 525 64 l 1
 540 65 638 117 698 149 c 1
 698 474 l 2
 698 516 695 562 692 601 c 1
 845 697 l 1
 864 686 l 1
 846 673 821 654 813 644 c 0
 805 635 801 623 800 612 c 0
 794 558 794 456 794 378 c 0
 794 317 796 257 800 197 c 0
 801 186 802 174 806 165 c 0
 820 135 836 104 858 80 c 0
 860 77 865 76 869 76 c 0
 875 76 881 78 885 79 c 0
 905 86 923 93 941 101 c 1
 948 85 l 1
 775 -27 l 1
 738 22 718 71 699 123 c 1
 456 -27 l 1
 439 -4 420 18 398 37 c 1
 369 60 321 77 281 77 c 0
 236 77 197 60 155 37 c 1
 135 48 l 1
 270 133 l 2
 349 182 439 239 487 291 c 0
 528 335 539 398 539 452 c 0
 539 499 522 546 481 580 c 0
 441 613 390 633 333 633 c 0
 295 633 259 621 231 598 c 0
 212 583 200 560 200 538 c 0
 200 528 206 519 213 511 c 0
 224 497 237 485 251 474 c 0
 269 459 285 443 299 426 c 1
 307 414 314 402 314 388 c 0
 314 362 297 338 277 318 c 1
 248 291 212 271 174 255 c 1
 155 266 l 1
 176 276 195 289 211 305 c 0
 223 317 231 331 231 346 c 0
 231 356 225 365 218 373 c 0
 207 386 194 398 181 410 c 0
 150 436 123 468 123 506 c 0
 123 546 158 576 191 604 c 0
 220 628 327 686 423 686 c 0
 479 686 531 673 572 640 c 1
 612 606 635 563 635 516 c 0
 635 448 613 380 577 319 c 1
EndSplineSet
EndChar

StartChar: u1D505.ssty2
Encoding: 120069 -1 112
Width: 1278
Flags: MW
HStem: -27 64<709 835> 341 42 623 65
VStem: 155 84 258 89<330.5 401.5> 539 103 954 102<154.5 271>
LayerCount: 2
Fore
SplineSet
743 -27 m 0
 675 -27 608 -6 548 14 c 0
 494 32 441 48 398 48 c 0
 337 48 277 26 227 0 c 1
 212 21 l 1
 361 94 l 2
 511 168 534 224 537 252 c 0
 541 284 544 355 546 402 c 1
 546 564 432 628 356 628 c 0
 309 628 289 621 261 598 c 0
 242 583 240 562 240 541 c 0
 240 527 261 503 286 478 c 0
 315 449 347 414 347 389 c 0
 347 317 239 271 199 255 c 1
 181 266 l 1
 213 281 258 314 258 347 c 0
 258 359 235 386 205 417 c 0
 178 445 156 469 156 507 c 0
 156 547 183 577 217 605 c 0
 246 629 324 691 437 691 c 0
 506 691 577 635 609 580 c 1
 636 603 673 626 704 644 c 1
 749 668 798 686 852 686 c 0
 879 686 908 682 929 665 c 0
 941 655 948 628 955 599 c 0
 963 565 972 528 992 511 c 0
 999 506 1013 505 1022 505 c 0
 1040 507 1058 511 1075 516 c 1
 1075 494 l 1
 1030 480 991 468 952 446 c 2
 845 383 l 1
 977 383 1056 318 1056 224 c 0
 1056 181 1047 161 1029 123 c 1
 888 24 815 -27 743 -27 c 0
644 350 m 1
 691 364 770 388 800 399 c 0
 836 411 867 426 917 455 c 1
 904 460 897 471 891 481 c 0
 881 500 876 520 872 540 c 0
 867 566 858 599 845 610 c 0
 829 623 803 634 781 634 c 0
 734 634 709 621 685 599 c 0
 663 579 645 548 635 523 c 1
 642 498 647 442 647 399 c 0
 647 385 645 364 644 350 c 1
602 207 m 1
 462 117 l 1
 533 117 600 96 666 74 c 0
 716 58 785 37 819 37 c 0
 851 37 881 46 902 64 c 0
 938 93 954 134 954 175 c 0
 954 217 935 257 899 286 c 0
 855 323 798 341 737 341 c 0
 704 341 672 336 642 325 c 1
 637 284 625 244 602 207 c 1
EndSplineSet
EndChar

StartChar: uni212D.ssty2
Encoding: 8493 -1 113
Width: 928
Flags: MW
HStem: -20 66 666 20<704 704>
VStem: 168 96<320 350.5> 462 115<355 414.5>
LayerCount: 2
Fore
SplineSet
417 601 m 1
 456 585 l 1
 531 630 618 659 704 686 c 1
 738 605 l 2
 742 596 744 593 750 587 c 0
 754 583 763 582 773 582 c 0
 792 582 818 587 833 591 c 1
 833 568 l 1
 791 551 739 532 692 527 c 1
 660 543 624 591 596 628 c 1
 581 624 567 617 558 607 c 0
 539 587 537 569 537 560 c 0
 537 542 545 512 553 492 c 0
 559 476 577 430 577 399 c 0
 577 364 569 328 539 303 c 0
 493 266 432 247 368 239 c 1
 354 255 l 1
 387 262 417 277 443 298 c 0
 462 314 462 343 462 367 c 0
 462 390 448 437 437 474 c 1
 430 493 425 514 425 534 c 0
 425 544 427 554 429 564 c 1
 387 563 348 549 321 522 c 0
 278 477 264 419 264 362 c 0
 264 278 288 193 360 133 c 0
 431 73 530 46 630 46 c 0
 671 46 700 52 717 59 c 2
 819 106 l 1
 819 86 l 1
 769 51 704 15 647 -16 c 1
 615 -22 581 -24 548 -24 c 0
 443 -24 337 4 263 65 c 0
 226 95 207 131 192 171 c 0
 173 219 168 269 168 319 c 0
 168 382 186 444 219 500 c 1
 281 539 347 575 417 601 c 1
EndSplineSet
EndChar

StartChar: u1D507.ssty2
Encoding: 120071 -1 114
Width: 1191
Flags: MW
HStem: -27 75<647.5 724> 64 69<270.5 287.5 264 300> 612 74
VStem: 129 29 456 110 902 90<306 443.5>
LayerCount: 2
Fore
SplineSet
539 559 m 1
 558 548 l 1
 541 539 527 528 512 516 c 0
 497 503 482 489 470 474 c 0
 463 464 456 453 456 442 c 0
 456 428 486 391 506 367 c 0
 530 339 564 298 564 277 c 0
 564 247 543 221 519 200 c 0
 485 169 428 146 386 131 c 1
 438 122 497 106 546 91 c 0
 600 75 687 48 711 48 c 0
 737 48 762 49 781 60 c 0
 803 73 833 109 852 133 c 0
 871 157 882 185 889 213 c 0
 899 250 902 287 902 325 c 0
 902 396 882 470 819 522 c 0
 739 589 625 612 512 612 c 0
 413 612 306 596 235 536 c 0
 182 492 158 426 155 367 c 1
 129 378 l 1
 129 460 161 535 231 593 c 0
 267 623 314 648 362 661 c 0
 421 677 483 690 545 690 c 0
 618 690 680 689 759 670 c 0
 811 658 867 625 908 591 c 0
 966 543 992 477 992 410 c 0
 992 314 967 236 926 147 c 1
 851 78 731 -27 660 -27 c 0
 635 -27 566 -5 526 8 c 0
 476 25 436 35 385 48 c 0
 352 56 317 64 283 64 c 0
 258 64 235 54 216 42 c 0
 191 27 171 6 155 -16 c 1
 135 0 l 1
 167 51 211 96 264 133 c 1
 311 133 359 140 399 161 c 0
 429 176 456 199 456 229 c 0
 456 257 439 282 417 303 c 0
 409 311 353 370 353 388 c 0
 353 404 354 420 363 434 c 0
 375 453 392 469 410 484 c 0
 447 515 492 539 539 559 c 1
EndSplineSet
EndChar

StartChar: u1D508.ssty2
Encoding: 120072 -1 115
Width: 988
Flags: MW
HStem: -26 72 527 51 666 20<737 737>
VStem: 200 95<320 350.5> 462 146
LayerCount: 2
Fore
SplineSet
449 601 m 1
 487 585 l 1
 564 630 650 659 737 686 c 1
 770 605 l 1
 775 596 777 592 783 587 c 0
 788 583 797 582 808 582 c 0
 828 582 852 586 866 590 c 1
 866 568 l 1
 823 551 770 532 723 527 c 1
 692 542 656 590 629 627 c 1
 614 623 602 613 591 604 c 1
 582 593 571 580 570 566 c 1
 570 546 573 525 581 506 c 0
 599 461 608 437 608 369 c 1
 731 431 l 1
 756 402 787 376 823 356 c 1
 823 347 l 1
 743 309 l 1
 672 351 l 2
 666 354 660 356 654 356 c 0
 637 356 621 350 608 341 c 1
 601 314 581 291 558 271 c 0
 540 256 517 246 494 239 c 1
 463 228 431 222 398 218 c 1
 379 234 l 1
 414 239 445 254 475 271 c 1
 483 279 488 289 491 299 c 0
 494 313 495 330 495 344 c 0
 495 388 482 431 468 474 c 0
 462 493 457 512 457 532 c 0
 457 542 458 553 462 564 c 1
 420 563 379 549 354 522 c 0
 311 477 295 419 295 362 c 0
 295 278 319 193 391 133 c 0
 463 73 562 46 662 46 c 0
 679 46 695 47 711 48 c 1
 759 62 817 88 852 106 c 1
 852 86 l 1
 798 49 739 16 679 -16 c 1
 647 -21 614 -24 581 -24 c 0
 475 -24 370 4 301 60 c 0
 265 90 241 127 225 167 c 0
 206 215 200 269 200 319 c 0
 200 382 218 444 251 500 c 1
 313 539 378 575 449 601 c 1
EndSplineSet
EndChar

StartChar: u1D509.ssty2
Encoding: 120073 -1 116
Width: 927
Flags: MW
HStem: -155 38 160 59 500 80<665 745> 617 69<317.5 422>
VStem: 225 90 379 89<356.5 427.5> 583 96<48 49>
LayerCount: 2
Fore
SplineSet
539 293 m 1
 685 410 l 1
 713 386 737 361 750 330 c 1
 698 271 l 1
 684 292 665 314 635 314 c 0
 614 314 576 292 550 274 c 1
 653 162 l 2
 673 139 679 103 679 74 c 0
 679 22 653 -27 608 -64 c 0
 542 -119 453 -155 360 -155 c 0
 320 -155 284 -140 258 -117 c 1
 226 -92 221 -38 221 -8 c 0
 221 11 223 29 225 48 c 1
 228 62 229 77 229 92 c 0
 229 134 221 146 212 154 c 0
 206 160 196 162 187 162 c 0
 159 162 129 150 116 144 c 1
 110 165 l 1
 180 204 236 219 268 219 c 0
 281 219 293 216 302 207 c 0
 319 190 329 160 329 134 c 0
 329 108 329 95 321 69 c 1
 316 48 312 27 312 5 c 0
 312 -49 332 -73 347 -85 c 1
 367 -103 393 -120 423 -120 c 0
 465 -120 503 -106 531 -82 c 0
 567 -52 583 -4 583 37 c 0
 583 61 571 84 555 106 c 0
 530 142 504 178 475 213 c 0
 449 243 423 274 403 307 c 0
 391 326 379 346 379 367 c 0
 379 400 402 428 426 452 c 0
 463 489 509 518 558 543 c 1
 516 564 473 583 427 598 c 0
 397 608 366 617 333 617 c 0
 302 617 273 604 251 585 c 0
 212 553 198 507 187 463 c 1
 168 474 l 1
 175 532 194 591 245 633 c 0
 287 668 344 686 404 686 c 0
 440 686 474 676 506 665 c 0
 558 647 606 625 654 601 c 0
 677 590 703 580 731 580 c 0
 759 580 802 617 832 643 c 1
 843 629 l 1
 815 598 777 557 743 530 c 0
 725 516 704 500 679 500 c 0
 651 500 619 511 592 525 c 1
 558 516 517 496 498 478 c 0
 482 463 468 440 468 415 c 0
 468 397 476 379 486 364 c 0
 501 340 519 315 539 293 c 1
EndSplineSet
EndChar

StartChar: u1D50A.ssty2
Encoding: 120074 -1 117
Width: 1136
Flags: MW
HStem: -27 69 396 56 672 20<723 723>
VStem: 174 96 465 112 845 106
LayerCount: 2
Fore
SplineSet
904 606 m 1
 692 452 l 1
 711 454 729 455 746 455 c 0
 814 455 862 432 883 418 c 0
 923 391 950 348 950 303 c 0
 950 224 906 151 839 96 c 1
 654 -8 l 1
 617 -19 593 -25 554 -25 c 0
 451 -25 339 8 277 60 c 0
 195 128 176 224 176 319 c 0
 176 356 181 389 192 425 c 1
 202 453 214 477 229 502 c 1
 288 538 351 572 423 601 c 1
 462 585 l 1
 596 660 l 1
 608 649 l 1
 576 626 545 596 545 559 c 0
 545 533 564 463 576 422 c 1
 637 449 l 1
 677 471 731 506 766 535 c 1
 708 551 653 588 641 628 c 1
 723 692 l 1
 738 668 756 647 780 630 c 0
 799 617 821 607 845 607 c 0
 861 607 881 614 898 629 c 1
 904 606 l 1
379 213 m 1
 360 229 l 1
 396 236 427 256 449 282 c 0
 463 299 470 327 470 348 c 0
 470 380 465 407 456 436 c 0
 445 469 434 501 434 533 c 0
 434 543 436 553 438 564 c 1
 398 562 365 553 337 528 c 0
 289 486 272 425 272 367 c 0
 272 279 297 190 372 128 c 0
 434 76 507 39 595 39 c 0
 656 39 709 46 763 83 c 0
 825 126 846 196 846 255 c 0
 846 292 818 331 788 354 c 0
 748 385 697 402 640 402 c 0
 620 402 600 400 579 396 c 1
 579 352 573 303 535 271 c 0
 492 236 437 221 379 213 c 1
EndSplineSet
EndChar

StartChar: uni210C.ssty2
Encoding: 8460 -1 118
Width: 1058
Flags: MW
HStem: -133 53<605.5 673> 32 69 404 64<621 622> 538 69<570.5 641> 647 18
VStem: 245 100 768 103<195.5 210>
LayerCount: 2
Fore
SplineSet
539 -107 m 1
 596 -43 l 1
 609 -65 636 -80 666 -80 c 0
 680 -80 694 -77 704 -71 c 0
 716 -65 727 -48 735 -34 c 0
 749 -8 756 28 761 56 c 1
 767 101 768 146 768 191 c 0
 768 229 765 266 753 302 c 0
 745 328 734 354 711 372 c 1
 683 396 642 404 602 404 c 0
 567 404 531 393 503 375 c 0
 468 352 449 339 416 307 c 1
 441 255 450 209 450 185 c 0
 450 167 447 147 437 134 c 1
 399 93 311 0 288 -16 c 1
 269 -2 250 10 231 20 c 1
 217 29 200 36 182 36 c 0
 146 36 118 11 101 -4 c 1
 87 10 l 1
 122 62 181 116 230 116 c 0
 269 116 312 86 337 62 c 1
 362 87 364 106 365 131 c 0
 365 156 353 194 337 218 c 0
 309 260 288 303 266 348 c 0
 253 375 245 402 245 431 c 0
 245 473 276 508 307 540 c 0
 356 590 417 630 481 667 c 1
 522 633 575 607 635 607 c 0
 647 607 660 612 669 618 c 1
 678 622 712 644 738 661 c 1
 753 646 l 1
 702 604 621 538 583 538 c 0
 558 538 534 543 511 550 c 1
 476 559 432 577 401 590 c 1
 381 574 367 559 354 537 c 0
 345 521 342 497 342 479 c 0
 342 440 378 376 404 330 c 1
 468 385 542 430 621 468 c 1
 698 468 776 454 839 415 c 1
 858 358 871 299 871 239 c 0
 871 152 863 64 819 -16 c 1
 758 -63 667 -133 621 -133 c 0
 590 -133 560 -125 539 -107 c 1
EndSplineSet
EndChar

StartChar: uni2111.ssty2
Encoding: 8465 -1 119
Width: 858
Flags: MW
HStem: -27 48 601 85<330.5 339>
VStem: 547 107
LayerCount: 2
Fore
SplineSet
723 671 m 1
 737 655 l 1
 680 611 619 573 551 543 c 1
 499 559 431 580 396 590 c 0
 373 596 351 601 327 601 c 0
 291 601 257 591 231 569 c 0
 197 540 168 494 151 456 c 1
 131 467 l 1
 146 502 169 545 188 579 c 0
 201 602 219 628 240 646 c 1
 271 676 307 686 354 686 c 0
 404 686 479 657 539 633 c 0
 559 625 579 617 602 617 c 0
 620 617 644 623 659 630 c 0
 684 641 705 657 723 671 c 1
149 -16 m 1
 143 0 l 1
 182 44 273 124 279 128 c 1
 312 70 318 60 333 47 c 0
 354 30 387 18 416 18 c 0
 452 18 474 30 498 50 c 0
 518 66 530 96 537 118 c 1
 548 147 551 177 551 207 c 0
 551 255 544 296 539 334 c 0
 534 367 529 401 529 429 c 0
 529 441 530 452 531 463 c 1
 579 507 638 553 699 585 c 1
 714 578 l 1
 690 560 667 537 650 514 c 0
 639 498 636 482 636 464 c 0
 636 442 638 410 639 399 c 0
 648 348 654 293 654 245 c 0
 654 183 637 119 583 74 c 0
 515 17 426 -27 327 -27 c 0
 283 -27 245 -3 212 21 c 1
 149 -16 l 1
EndSplineSet
EndChar

StartChar: u1D50D.ssty2
Encoding: 120077 -1 120
Width: 856
Flags: MW
HStem: -139 43 80 64<150 249> 516 64 601 85
VStem: 222 92 558 89<55.5 63.5>
LayerCount: 2
Fore
SplineSet
180 496 m 1
 162 506 l 1
 185 554 215 599 257 637 c 0
 285 663 321 686 366 686 c 0
 387 686 408 679 427 670 c 0
 456 657 481 640 506 623 c 0
 523 611 541 600 560 591 c 0
 573 585 588 580 602 580 c 0
 645 580 685 596 723 612 c 1
 723 591 l 1
 661 564 569 526 531 516 c 1
 495 522 465 540 437 559 c 0
 404 580 369 602 327 602 c 0
 299 602 271 592 251 577 c 0
 221 555 199 525 180 496 c 1
81 60 m 1
 75 73 l 1
 102 91 139 114 169 127 c 0
 191 136 213 144 239 144 c 0
 259 144 281 140 295 128 c 0
 314 112 314 79 314 53 c 0
 314 27 317 1 323 -25 c 0
 327 -41 334 -60 347 -71 c 0
 368 -90 399 -103 429 -103 c 0
 461 -103 489 -95 511 -76 c 1
 545 -49 558 -2 558 37 c 0
 558 90 542 147 525 197 c 0
 508 249 492 310 492 359 c 0
 492 369 493 379 494 388 c 1
 541 442 597 490 660 532 c 1
 679 522 l 1
 653 500 629 478 611 450 c 1
 597 431 596 405 596 383 c 0
 596 347 602 305 611 266 c 0
 626 206 647 106 647 85 c 0
 647 26 613 -28 564 -69 c 0
 516 -110 453 -139 385 -139 c 0
 342 -139 295 -133 264 -107 c 0
 237 -84 230 -52 225 -22 c 1
 222 6 216 44 206 58 c 0
 197 72 180 80 162 80 c 0
 138 80 101 71 81 60 c 1
EndSplineSet
EndChar

StartChar: u1D50E.ssty2
Encoding: 120078 -1 121
Width: 995
Flags: MW
HStem: -27 64 436 64<565 669.5> 628 53
VStem: 360 82 672 92
LayerCount: 2
Fore
SplineSet
858 348 m 1
 656 272 l 1
 656 271 l 1
 674 271 696 267 711 255 c 0
 734 237 745 194 755 152 c 0
 760 127 768 92 789 72 c 0
 800 62 815 53 833 53 c 0
 861 53 897 62 921 77 c 1
 925 60 l 1
 899 38 861 10 829 -6 c 0
 809 -17 787 -27 762 -27 c 0
 738 -27 714 -16 702 0 c 0
 682 25 677 54 672 85 c 0
 666 129 653 187 627 207 c 1
 608 224 579 229 551 229 c 0
 513 229 476 220 443 207 c 1
 443 181 441 154 437 128 c 1
 407 90 372 55 331 26 c 0
 297 2 266 -14 226 -25 c 1
 178 -22 141 2 116 32 c 1
 184 98 l 1
 197 98 l 1
 205 83 216 68 230 56 c 0
 242 45 262 36 280 36 c 0
 305 36 322 45 332 53 c 0
 357 73 360 111 360 144 c 0
 360 194 345 244 327 293 c 0
 311 336 289 399 289 427 c 0
 289 440 295 455 296 457 c 0
 322 510 362 556 410 596 c 0
 476 651 566 681 660 681 c 0
 697 681 734 676 769 664 c 0
 798 654 823 639 839 617 c 1
 839 599 l 2
 839 566 832 532 819 500 c 1
 800 495 l 1
 800 529 785 562 756 586 c 0
 713 622 655 634 589 634 c 0
 519 634 471 617 431 583 c 0
 408 564 386 519 386 490 c 0
 386 456 395 407 410 367 c 1
 452 404 495 438 547 465 c 1
 581 484 619 500 660 500 c 0
 679 500 696 496 711 484 c 0
 732 468 746 436 758 409 c 0
 765 393 781 359 825 359 c 0
 832 359 844 361 850 364 c 1
 858 348 l 1
444 230 m 1
 491 248 534 262 586 270 c 1
 626 283 669 298 707 314 c 1
 680 327 668 360 660 383 c 0
 654 399 635 418 620 427 c 0
 609 433 589 436 581 436 c 0
 549 436 517 423 493 406 c 1
 459 384 439 357 417 327 c 1
 431 299 438 261 444 230 c 1
EndSplineSet
EndChar

StartChar: u1D50F.ssty2
Encoding: 120079 -1 122
Width: 993
Flags: MW
HStem: -27 91<642 679 632.5 688.5> 404 48 639 47
VStem: 289 96<458.5 536> 671 112 847 24
LayerCount: 2
Fore
SplineSet
852 197 m 1
 871 186 l 1
 862 148 853 108 836 70 c 0
 826 47 815 23 794 5 c 0
 761 -23 711 -27 666 -27 c 0
 618 -27 571 -18 524 -7 c 0
 457 9 392 30 327 53 c 0
 303 62 277 69 251 69 c 0
 215 69 178 26 149 -15 c 1
 135 0 l 1
 159 47 181 88 221 127 c 0
 230 136 253 141 269 143 c 1
 306 143 l 1
 325 148 363 166 379 182 c 0
 394 197 401 212 401 227 c 0
 401 250 368 303 347 335 c 0
 331 360 315 386 303 413 c 0
 296 431 289 449 289 468 c 0
 289 491 300 512 312 531 c 0
 330 557 353 580 379 601 c 0
 446 658 539 686 635 686 c 0
 678 686 721 680 752 654 c 0
 776 635 784 607 784 571 c 0
 784 560 783 549 781 538 c 0
 779 519 779 491 779 483 c 0
 779 476 783 469 789 464 c 0
 800 454 837 452 859 452 c 1
 859 434 l 1
 718 404 l 1
 715 404 l 2
 698 404 667 425 667 450 c 0
 667 462 668 482 673 511 c 0
 674 522 675 532 675 542 c 0
 675 571 670 595 647 614 c 0
 620 636 585 644 548 644 c 0
 501 644 455 630 421 602 c 0
 397 582 385 550 385 522 c 0
 385 502 390 485 397 467 c 0
 407 441 422 413 437 388 c 0
 457 353 487 298 487 267 c 0
 487 260 485 254 481 250 c 0
 436 204 373 146 348 132 c 1
 402 113 469 92 527 80 c 0
 567 71 611 64 654 64 c 0
 704 64 757 70 794 101 c 0
 825 127 840 162 852 197 c 1
EndSplineSet
EndChar

StartChar: u1D510.ssty2
Encoding: 120080 -1 123
Width: 1452
Flags: MW
HStem: -27 21<327 327 1158 1158> 26 80<208 279> 623 63
VStem: 129 83 239 89 519 102 839 109<383 388.5> 1088 96<271 292.5>
LayerCount: 2
Fore
SplineSet
602 569 m 0
 619 587 637 605 660 617 c 0
 702 641 749 660 800 660 c 0
 828 660 857 655 877 639 c 1
 897 621 911 600 920 577 c 1
 947 603 978 625 1011 644 c 0
 1053 669 1099 692 1152 692 c 0
 1173 692 1195 684 1209 671 c 0
 1223 658 1233 633 1242 612 c 0
 1248 597 1254 580 1267 569 c 1
 1277 562 1290 560 1302 560 c 0
 1321 560 1339 564 1356 569 c 1
 1356 554 l 1
 1307 533 1261 506 1223 474 c 1
 1207 448 1199 420 1194 392 c 1
 1185 354 1184 315 1184 277 c 0
 1184 230 1184 170 1196 138 c 1
 1205 117 1207 114 1224 98 c 0
 1233 90 1251 80 1261 80 c 0
 1268 80 1305 90 1331 101 c 1
 1331 82 l 1
 1158 -27 l 1
 1089 99 l 1
 1088 271 l 2
 1088 314 1097 357 1107 399 c 1
 1134 433 1166 463 1203 490 c 1
 1195 491 1185 499 1177 506 c 0
 1171 511 1159 541 1152 559 c 0
 1143 580 1131 610 1119 617 c 1
 1109 625 1095 628 1081 628 c 0
 1051 628 1014 620 991 603 c 0
 965 584 950 572 931 546 c 1
 938 515 948 467 948 436 c 0
 948 330 920 225 871 128 c 1
 723 -22 l 1
 701 -5 663 21 641 21 c 0
 630 21 618 21 609 16 c 0
 594 9 584 0 570 -14 c 1
 554 0 l 1
 584 36 635 90 660 101 c 0
 666 104 672 104 679 104 c 0
 687 104 696 103 704 101 c 0
 715 99 754 77 773 66 c 1
 803 90 811 119 819 149 c 1
 839 213 839 294 839 367 c 0
 839 410 837 452 829 494 c 0
 824 521 818 547 800 569 c 0
 782 592 749 601 717 601 c 0
 692 601 664 592 648 578 c 1
 630 565 617 547 606 529 c 1
 614 501 618 454 618 447 c 0
 618 334 602 220 531 122 c 1
 327 -27 l 1
 311 -12 291 1 270 12 c 1
 257 20 242 26 225 26 c 0
 191 26 163 6 143 -16 c 1
 129 0 l 1
 150 28 174 55 203 78 c 0
 222 92 243 106 270 106 c 0
 288 106 304 100 320 92 c 0
 339 83 369 61 386 48 c 1
 407 61 427 76 449 94 c 0
 480 120 492 163 500 198 c 1
 516 254 521 310 521 367 c 2
 521 408 l 1
 519 460 505 519 473 556 c 0
 440 594 387 630 331 630 c 0
 284 630 260 622 237 607 c 0
 221 596 212 573 212 564 c 0
 212 531 240 498 257 481 c 0
 271 467 294 444 305 427 c 0
 313 416 321 399 321 389 c 0
 321 360 304 337 283 317 c 0
 257 292 213 271 174 255 c 1
 156 266 l 1
 177 276 199 292 214 308 c 0
 226 320 233 332 233 347 c 0
 233 357 225 366 217 374 c 1
 207 387 192 404 180 417 c 0
 153 445 131 469 131 507 c 0
 131 547 158 577 192 605 c 0
 221 629 308 691 411 691 c 0
 467 691 518 657 554 620 c 0
 570 604 583 583 594 561 c 1
 597 563 600 566 602 569 c 0
EndSplineSet
EndChar

StartChar: u1D511.ssty2
Encoding: 120081 -1 124
Width: 1192
Flags: MW
HStem: -22 64 490 64 628 58<781.5 855>
VStem: 129 83 231 96 545 90<312 326.5> 848 86
LayerCount: 2
Fore
SplineSet
603 533 m 1
 619 548 659 594 666 604 c 0
 701 652 777 686 845 686 c 0
 865 686 884 685 903 681 c 0
 918 678 931 674 941 665 c 0
 956 652 966 631 973 612 c 0
 978 597 989 572 992 569 c 0
 1003 561 1015 554 1031 554 c 0
 1049 554 1069 558 1085 565 c 1
 1085 551 l 1
 1049 530 1011 507 979 484 c 0
 967 476 956 465 954 452 c 1
 939 395 935 336 935 277 c 0
 935 235 938 193 951 152 c 0
 960 124 969 106 995 85 c 0
 999 81 1010 76 1017 76 c 0
 1044 76 1073 89 1093 98 c 1
 1093 76 l 1
 920 -29 l 1
 844 104 l 1
 845 271 l 2
 845 311 845 367 852 388 c 0
 854 396 859 403 864 410 c 0
 889 438 912 458 942 484 c 1
 920 488 910 499 903 507 c 0
 894 518 885 540 877 564 c 0
 871 582 860 599 845 612 c 0
 833 622 817 628 800 628 c 0
 763 628 723 610 696 589 c 1
 659 557 642 538 616 501 c 1
 625 459 635 394 635 351 c 0
 635 273 626 192 583 122 c 0
 577 113 567 98 564 96 c 0
 513 59 464 28 406 -4 c 0
 393 -11 365 -22 349 -22 c 0
 307 -22 268 8 246 36 c 1
 313 101 l 1
 328 101 l 1
 333 88 344 72 360 58 c 0
 373 47 395 40 413 40 c 0
 446 40 471 60 494 79 c 0
 516 97 524 123 531 148 c 0
 542 187 545 226 545 266 c 0
 545 387 511 507 474 550 c 0
 441 588 389 622 332 622 c 0
 285 622 260 618 233 597 c 0
 218 586 212 572 212 551 c 0
 212 531 241 492 259 475 c 0
 273 461 295 438 306 421 c 0
 314 410 323 393 323 383 c 0
 323 354 305 331 284 311 c 0
 258 286 214 265 175 249 c 1
 157 260 l 1
 179 270 200 286 215 302 c 0
 227 314 234 326 234 341 c 0
 234 351 226 360 219 368 c 2
 181 411 l 1
 154 439 132 463 132 501 c 0
 132 541 159 571 193 599 c 0
 222 623 300 685 413 685 c 0
 468 685 520 651 555 614 c 0
 574 595 591 564 603 533 c 1
EndSplineSet
EndChar

StartChar: u1D512.ssty2
Encoding: 120082 -1 125
Width: 1187
Flags: MW
HStem: -27 64 596 68 709 20<500 519 519 519>
VStem: 193 102<404 492.5> 321 89<182 275.5> 883 109<299 436>
LayerCount: 2
Fore
SplineSet
615 596 m 1
 512 593 l 2
 489 593 465 596 445 606 c 0
 431 613 417 624 417 639 c 0
 417 679 471 698 500 729 c 1
 519 729 l 1
 514 722 507 712 507 703 c 0
 507 687 531 680 551 676 c 0
 573 671 653 666 704 662 c 0
 746 659 787 653 827 642 c 0
 857 633 887 620 908 601 c 1
 972 548 992 473 992 399 c 0
 992 340 985 281 963 225 c 1
 948 183 924 141 883 112 c 1
 830 72 774 36 710 9 c 0
 665 -11 615 -27 564 -27 c 0
 498 -27 433 -15 372 5 c 0
 351 12 330 20 308 26 c 0
 288 32 266 37 245 37 c 0
 198 37 156 16 129 -16 c 1
 110 0 l 1
 144 37 180 73 219 106 c 1
 272 121 321 157 321 207 c 0
 321 222 315 236 308 250 c 0
 297 269 284 286 270 303 c 2
 207 377 l 1
 200 387 193 398 193 410 c 0
 193 445 211 477 236 505 c 0
 267 540 308 568 354 591 c 1
 379 580 l 1
 356 566 335 550 318 530 c 0
 306 517 295 501 295 484 c 0
 295 467 302 451 311 435 c 1
 321 411 337 389 354 367 c 1
 378 333 410 290 410 261 c 0
 410 235 397 212 380 191 c 0
 357 161 322 135 289 112 c 1
 304 112 323 108 336 104 c 0
 374 94 411 81 449 69 c 0
 510 50 582 36 649 36 c 0
 738 36 807 73 843 141 c 1
 875 198 883 268 883 330 c 0
 883 374 878 418 864 461 c 1
 852 493 835 524 806 548 c 1
 786 566 758 576 729 584 c 0
 692 593 654 596 615 596 c 1
EndSplineSet
EndChar

StartChar: u1D513.ssty2
Encoding: 120083 -1 126
Width: 1181
Flags: MW
HStem: -219 21<487 487> -11 75 80 74<382 444.5> 633 59<766.5 876>
VStem: 129 77<260 346> 233 89 494 92 819 89<331.5 404> 935 64
LayerCount: 2
Fore
SplineSet
589 509 m 1
 589 122 l 1
 590 122 l 1
 649 106 755 77 764 74 c 1
 787 69 821 62 840 62 c 0
 869 62 896 70 915 87 c 1
 933 101 937 118 937 138 c 0
 937 154 927 175 920 190 c 1
 908 211 894 231 877 250 c 0
 852 280 819 317 819 346 c 0
 819 366 833 384 846 400 c 0
 867 424 897 445 926 464 c 1
 910 467 890 479 877 490 c 0
 861 502 859 531 858 554 c 0
 857 576 854 605 839 617 c 0
 824 630 801 633 781 633 c 0
 752 633 727 628 704 615 c 0
 652 585 624 554 589 509 c 1
574 540 m 1
 577 543 580 546 583 548 c 0
 605 571 627 593 654 612 c 0
 714 655 783 692 864 692 c 0
 888 692 912 685 929 671 c 0
 949 653 956 612 960 580 c 0
 962 567 965 550 973 543 c 0
 984 534 997 530 1011 530 c 0
 1026 530 1042 534 1056 538 c 1
 1062 522 l 1
 1025 506 990 488 960 463 c 0
 947 451 933 439 923 426 c 1
 915 418 908 409 908 399 c 0
 908 370 932 340 954 314 c 1
 978 283 998 250 998 213 c 0
 998 144 959 81 896 37 c 0
 859 12 817 -11 768 -11 c 0
 756 -11 742 -8 731 -5 c 2
 589 37 l 1
 589 -25 593 -87 602 -149 c 1
 595 -154 525 -196 487 -219 c 1
 462 -208 l 1
 468 -196 476 -152 481 -123 c 0
 492 -61 494 0 494 63 c 1
 455 73 419 80 398 80 c 0
 366 80 337 66 314 48 c 1
 291 28 271 6 251 -16 c 1
 239 5 l 1
 261 43 285 81 321 112 c 0
 351 137 392 154 437 154 c 0
 452 154 473 151 494 146 c 1
 494 396 l 2
 494 450 480 511 446 550 c 0
 414 588 361 622 305 622 c 0
 257 622 228 615 204 597 c 0
 189 585 183 572 183 551 c 0
 183 526 213 492 231 475 c 0
 245 461 268 438 279 421 c 0
 286 410 295 393 295 383 c 0
 295 354 278 331 257 311 c 0
 230 286 186 265 148 249 c 1
 129 260 l 1
 151 270 172 286 188 302 c 0
 200 314 206 326 206 341 c 0
 206 351 198 360 191 368 c 0
 180 381 166 398 153 411 c 0
 126 439 104 463 104 501 c 0
 104 541 132 571 165 599 c 0
 194 623 273 685 385 685 c 0
 440 685 492 651 528 614 c 0
 548 594 564 567 574 540 c 1
EndSplineSet
EndChar

StartChar: u1D514.ssty2
Encoding: 120084 -1 127
Width: 1187
Flags: MW
HStem: -27 64 596 68 709 20<500 519 519 519>
VStem: 193 102<404 492.5> 321 89<182 275.5> 883 109<347.5 352>
LayerCount: 2
Fore
SplineSet
615 596 m 1
 512 593 l 2
 489 593 465 596 445 606 c 0
 431 613 417 624 417 639 c 0
 417 647 418 660 430 671 c 2
 500 729 l 1
 519 729 l 1
 514 722 507 712 507 703 c 0
 507 699 509 696 512 692 c 0
 522 683 537 679 551 676 c 0
 573 671 653 666 704 662 c 0
 746 659 787 653 827 642 c 0
 857 633 887 620 908 601 c 1
 972 548 992 473 992 399 c 0
 992 296 966 174 883 112 c 0
 863 97 842 82 821 68 c 1
 842 48 863 29 889 14 c 0
 907 4 926 -6 948 -6 c 0
 980 -6 1010 6 1037 21 c 1
 1037 -6 l 1
 896 -69 l 1
 857 -59 818 -46 781 -29 c 0
 757 -18 733 -6 713 10 c 1
 710 9 l 1
 665 -11 615 -27 564 -27 c 0
 498 -27 433 -15 372 5 c 0
 351 12 330 20 308 26 c 0
 288 32 266 37 245 37 c 0
 198 37 156 16 129 -16 c 1
 110 0 l 1
 144 37 180 73 219 106 c 1
 272 121 321 157 321 207 c 0
 321 222 315 236 308 250 c 0
 297 269 284 286 270 303 c 2
 207 377 l 1
 200 387 193 398 193 410 c 0
 193 445 211 477 236 505 c 0
 267 540 308 568 354 591 c 1
 379 580 l 1
 356 566 335 550 318 530 c 0
 306 517 295 501 295 484 c 0
 295 467 302 451 311 435 c 1
 321 411 337 389 354 367 c 1
 378 333 410 290 410 261 c 0
 410 235 397 212 380 191 c 0
 357 161 318 132 287 113 c 1
 302 113 323 108 336 104 c 0
 374 94 411 81 449 69 c 0
 510 50 578 37 644 37 c 0
 733 37 811 78 847 146 c 0
 878 203 883 268 883 330 c 0
 883 374 878 418 864 461 c 1
 852 493 835 524 806 548 c 1
 786 566 758 576 729 584 c 0
 692 593 654 596 615 596 c 1
EndSplineSet
EndChar

StartChar: uni211C.ssty2
Encoding: 8476 -1 128
Width: 1187
Flags: MW
HStem: -27 21<929 929> 26 80<211.5 277> 341 47 628 58
VStem: 129 77 231 90 519 98 852 98
LayerCount: 2
Fore
SplineSet
615 348 m 1
 641 359 699 381 754 388 c 1
 908 463 l 1
 893 464 876 469 864 479 c 0
 855 486 847 523 845 548 c 0
 843 567 836 585 825 601 c 1
 816 617 797 628 775 628 c 0
 745 628 713 618 692 600 c 0
 662 576 639 550 612 512 c 1
 614 507 619 464 619 451 c 0
 619 418 619 382 615 348 c 1
599 548 m 1
 603 553 l 1
 623 573 644 594 666 612 c 0
 716 654 780 686 852 686 c 0
 878 686 905 677 921 660 c 0
 939 642 945 615 948 591 c 0
 950 575 949 558 954 541 c 0
 958 527 963 513 1010 513 c 0
 1026 513 1042 515 1056 517 c 1
 1064 504 l 1
 1029 493 993 477 960 463 c 0
 918 445 855 416 813 388 c 1
 873 388 903 373 935 351 c 1
 938 285 943 181 954 154 c 0
 962 132 972 111 986 91 c 1
 995 81 1003 69 1017 69 c 0
 1023 69 1064 82 1088 90 c 1
 1088 74 l 1
 929 -27 l 1
 852 90 l 1
 854 121 856 150 856 179 c 0
 856 277 835 296 821 308 c 0
 795 329 756 343 721 343 c 0
 693 343 643 332 611 324 c 1
 607 302 602 279 596 257 c 0
 582 206 563 163 529 119 c 1
 461 74 393 19 327 -27 c 1
 301 -5 255 26 230 26 c 0
 193 26 164 8 143 -16 c 1
 129 0 l 1
 149 25 170 55 203 78 c 0
 222 92 242 106 270 106 c 0
 284 106 310 99 328 89 c 0
 349 76 366 63 383 48 c 1
 425 72 458 100 481 138 c 0
 498 166 504 197 510 228 c 1
 517 274 522 320 522 367 c 0
 522 414 521 494 474 551 c 0
 442 590 389 623 332 623 c 0
 285 623 265 616 237 593 c 0
 218 578 216 558 216 536 c 0
 216 524 241 493 259 476 c 0
 273 462 295 439 306 422 c 0
 314 411 323 394 323 384 c 0
 323 355 305 332 284 312 c 0
 258 287 214 266 175 250 c 1
 157 261 l 1
 179 271 200 287 215 303 c 0
 227 315 234 327 234 342 c 0
 234 352 226 361 219 369 c 2
 181 412 l 1
 154 440 132 464 132 502 c 0
 132 542 159 572 193 600 c 0
 222 624 300 686 413 686 c 0
 468 686 520 652 555 615 c 0
 573 597 588 573 599 548 c 1
EndSplineSet
EndChar

StartChar: u1D516.ssty2
Encoding: 120086 -1 129
Width: 1187
Flags: MW
HStem: -27 53<595.5 610> 341 69<742.5 856> 511 80 628 64
VStem: 175 89 372 90<377 434.5> 908 90
LayerCount: 2
Fore
SplineSet
504 508 m 1
 519 495 l 1
 504 491 492 483 481 474 c 0
 467 461 462 443 462 426 c 0
 462 410 468 394 481 383 c 0
 495 371 517 367 539 367 c 0
 565 367 632 380 679 388 c 1
 729 398 793 410 833 410 c 0
 879 410 926 395 960 367 c 0
 989 343 998 310 998 277 c 0
 998 203 965 132 902 80 c 0
 809 2 675 -27 545 -27 c 0
 453 -27 359 -7 293 48 c 0
 211 116 164 212 164 309 c 0
 164 406 211 495 294 564 c 1
 374 632 495 670 607 689 c 1
 671 661 750 627 794 611 c 0
 823 601 852 591 883 591 c 0
 909 591 930 597 949 612 c 0
 967 627 975 650 981 666 c 1
 1004 655 l 1
 995 623 975 593 948 569 c 1
 914 541 870 525 825 511 c 1
 788 514 722 546 673 569 c 0
 639 586 605 601 569 613 c 0
 547 621 524 628 500 628 c 0
 440 628 389 599 347 564 c 0
 288 515 264 446 264 378 c 0
 264 280 301 182 385 112 c 0
 452 55 548 26 643 26 c 0
 720 26 798 31 853 77 c 0
 891 110 909 161 909 207 c 0
 909 244 896 283 864 309 c 0
 837 331 800 341 762 341 c 0
 723 341 672 332 627 325 c 0
 582 317 533 309 487 309 c 0
 457 309 426 312 404 330 c 0
 385 346 372 366 372 388 c 0
 372 417 387 443 410 463 c 1
 437 484 469 500 504 508 c 1
EndSplineSet
EndChar

StartChar: u1D517.ssty2
Encoding: 120087 -1 130
Width: 996
Flags: MW
HStem: -27 21 48 71 623 63<396.5 398.5>
VStem: 135 52 410 95 558 83<198 265>
LayerCount: 2
Fore
SplineSet
825 133 m 1
 839 117 l 1
 805 85 770 55 732 28 c 0
 702 6 669 -13 635 -27 c 1
 582 -21 534 0 487 21 c 0
 453 36 417 48 379 48 c 0
 356 48 335 41 314 33 c 0
 284 21 258 6 231 -11 c 1
 219 5 l 1
 265 45 314 82 366 117 c 1
 378 118 390 118 402 118 c 0
 425 118 447 117 468 112 c 1
 493 124 516 140 534 159 c 0
 547 173 558 189 558 207 c 0
 558 221 551 233 542 244 c 1
 530 262 516 278 500 293 c 0
 464 327 417 372 410 404 c 1
 420 438 438 468 459 497 c 1
 488 533 521 566 558 596 c 1
 495 614 431 623 366 623 c 0
 312 623 256 615 217 583 c 0
 197 566 186 540 186 516 c 0
 186 477 221 445 264 431 c 1
 187 367 l 1
 149 392 126 425 126 465 c 0
 126 520 175 583 224 621 c 0
 283 667 356 686 437 686 c 0
 505 686 573 677 641 665 c 1
 687 658 737 649 781 649 c 0
 831 649 876 672 908 703 c 1
 908 681 l 1
 825 591 l 1
 800 578 771 575 743 575 c 0
 697 575 634 580 589 589 c 1
 562 571 554 564 533 538 c 0
 518 520 500 486 500 463 c 0
 500 450 506 438 513 427 c 0
 523 411 536 397 551 383 c 0
 576 360 599 335 618 309 c 0
 630 292 641 275 641 255 c 0
 641 230 624 208 606 189 c 0
 576 156 539 129 502 103 c 1
 553 83 619 58 666 58 c 0
 692 58 717 67 740 78 c 0
 771 92 800 112 825 133 c 1
EndSplineSet
EndChar

StartChar: u1D518.ssty2
Encoding: 120088 -1 131
Width: 968
Flags: MW
HStem: -27 75<410 493.5> 677 20<360 360>
VStem: 168 102<488.5 571> 289 83<231.5 304.5> 647 90<250 261 261 308>
LayerCount: 2
Fore
SplineSet
643 120 m 1
 506 -6 l 1
 486 -19 462 -27 437 -27 c 0
 383 -27 332 -11 283 5 c 0
 237 20 187 37 143 37 c 0
 132 37 122 31 115 26 c 0
 101 17 89 6 78 -6 c 1
 66 11 l 1
 162 101 l 1
 191 103 221 129 245 149 c 0
 276 176 289 213 289 250 c 0
 289 269 282 287 275 304 c 0
 263 330 248 354 231 378 c 0
 204 418 168 471 168 506 c 0
 168 526 180 545 193 562 c 0
 212 588 237 611 264 633 c 0
 293 657 324 680 360 697 c 1
 372 681 l 1
 354 670 337 657 321 644 c 0
 291 620 270 588 270 554 c 0
 270 522 294 481 314 447 c 0
 331 419 347 390 357 361 c 1
 366 338 372 316 372 293 c 0
 372 267 367 241 354 218 c 1
 233 106 l 1
 267 106 315 92 354 80 c 1
 393 66 450 48 475 48 c 0
 512 48 543 68 570 90 c 0
 597 113 631 141 641 165 c 0
 647 181 647 221 647 250 c 0
 647 366 644 481 635 596 c 1
 787 686 l 1
 806 676 l 1
 785 658 765 637 756 612 c 0
 737 564 737 513 737 463 c 2
 737 261 l 2
 737 239 738 218 743 197 c 0
 752 159 763 120 794 90 c 0
 802 83 813 79 824 79 c 0
 853 79 884 94 896 101 c 1
 896 80 l 1
 723 -27 l 1
 643 120 l 1
EndSplineSet
EndChar

StartChar: u1D519.ssty2
Encoding: 120089 -1 132
Width: 1191
Flags: MW
HStem: -27 59<699.5 783.5> 90 64<347 374.5 347 380.5> 628 58
VStem: 129 83 239 89 519 102 882 116
LayerCount: 2
Fore
SplineSet
551 224 m 1
 439 151 l 1
 486 148 522 129 596 90 c 0
 675 49 733 32 768 32 c 0
 799 32 829 39 852 57 c 1
 869 72 875 92 879 111 c 1
 888 143 890 175 890 207 c 0
 890 231 887 264 883 293 c 1
 881 326 877 360 877 394 c 0
 877 417 882 441 890 463 c 1
 979 548 l 1
 944 548 913 564 883 580 c 0
 851 598 816 617 775 617 c 0
 740 617 695 581 695 581 c 1
 662 554 636 522 617 486 c 1
 617 386 600 304 551 224 c 1
673 601 m 0
 700 626 732 647 767 664 c 0
 791 676 817 686 845 686 c 0
 888 686 926 670 960 649 c 0
 1005 622 1037 617 1057 617 c 0
 1068 617 1078 619 1088 623 c 1
 1088 607 l 1
 1069 596 1052 583 1037 569 c 1
 993 534 967 487 967 436 c 0
 967 402 973 369 979 335 c 0
 987 296 998 239 998 218 c 0
 998 187 990 156 973 128 c 0
 960 106 945 86 921 71 c 2
 781 -14 l 2
 764 -25 739 -27 717 -27 c 0
 682 -27 626 -18 539 26 c 0
 515 38 407 90 354 90 c 0
 295 90 243 63 206 26 c 1
 193 42 l 1
 239 85 289 124 347 154 c 1
 402 154 451 180 481 218 c 0
 498 240 505 265 510 291 c 0
 517 328 521 365 522 403 c 1
 521 455 506 513 474 551 c 0
 441 589 389 623 332 623 c 0
 285 623 254 614 230 596 c 0
 219 588 212 573 212 552 c 0
 212 528 241 493 259 476 c 0
 273 462 295 439 306 422 c 0
 314 411 323 394 323 384 c 0
 323 355 305 332 284 312 c 0
 258 287 214 266 175 250 c 1
 157 261 l 1
 179 271 200 287 215 303 c 0
 227 315 234 327 234 342 c 0
 234 352 226 361 219 369 c 2
 181 412 l 1
 154 440 132 464 132 502 c 0
 132 542 159 572 193 600 c 0
 222 624 300 686 413 686 c 0
 468 686 520 652 555 615 c 0
 575 594 596 555 607 526 c 1
 623 548 640 570 673 601 c 0
EndSplineSet
EndChar

StartChar: u1D51A.ssty2
Encoding: 120090 -1 133
Width: 1449
Flags: MW
HStem: -28 71 628 58
VStem: 135 84 239 89 512 96 825 83 1160 100<200.5 205.5>
LayerCount: 2
Fore
SplineSet
1171 485 m 2
 1242 548 l 1
 1220 548 1181 570 1152 585 c 0
 1121 602 1087 617 1050 617 c 0
 1023 617 999 607 980 594 c 0
 949 573 929 556 907 530 c 1
 910 497 912 462 912 427 c 0
 912 348 903 271 877 200 c 1
 860 181 810 125 783 101 c 1
 834 101 921 68 986 42 c 0
 1005 35 1027 32 1050 32 c 0
 1088 32 1119 47 1139 74 c 0
 1152 92 1160 119 1160 186 c 0
 1160 225 1157 265 1152 303 c 0
 1149 332 1146 362 1146 391 c 0
 1146 430 1151 454 1158 468 c 0
 1161 474 1166 480 1171 485 c 2
519 191 m 1
 469 157 423 132 378 110 c 1
 432 75 501 42 570 42 c 0
 641 42 707 70 756 112 c 1
 786 136 798 171 807 205 c 0
 822 256 825 309 825 362 c 0
 825 414 817 466 791 514 c 0
 771 551 737 589 692 605 c 1
 659 580 624 554 598 525 c 1
 600 516 607 487 607 476 c 0
 607 461 602 389 585 328 c 0
 572 280 553 233 519 191 c 1
588 551 m 1
 602 564 l 2
 653 610 709 649 768 686 c 1
 831 656 878 590 896 559 c 1
 935 593 975 626 1021 653 c 0
 1049 670 1079 686 1113 686 c 0
 1134 686 1153 681 1171 674 c 1
 1199 665 1224 652 1248 639 c 0
 1269 627 1294 620 1319 620 c 0
 1334 620 1349 623 1363 628 c 1
 1356 607 l 1
 1317 583 1281 557 1260 522 c 1
 1245 494 1242 468 1242 434 c 0
 1242 411 1244 389 1248 367 c 0
 1255 316 1260 264 1260 213 c 0
 1260 188 1257 163 1249 139 c 0
 1242 121 1232 105 1215 92 c 0
 1165 52 1109 17 1050 -14 c 1
 1026 -20 1002 -25 978 -25 c 0
 942 -25 905 -18 871 -6 c 0
 813 15 750 37 692 37 c 1
 643 18 595 -2 551 -27 c 1
 544 -27 538 -28 531 -28 c 0
 478 -28 423 -12 379 11 c 0
 347 28 305 48 276 48 c 0
 262 48 235 40 220 32 c 0
 196 18 174 6 152 -11 c 1
 135 5 l 1
 180 48 229 87 283 122 c 1
 287 122 l 2
 343 122 397 142 437 175 c 0
 467 200 482 233 493 267 c 0
 508 310 512 356 512 402 c 0
 511 454 497 513 464 551 c 0
 432 589 379 623 323 623 c 0
 275 623 244 615 219 596 c 0
 205 585 203 576 203 554 c 0
 203 524 231 493 249 476 c 0
 263 462 286 439 297 422 c 0
 304 411 313 394 313 384 c 0
 313 355 296 332 275 312 c 0
 248 287 204 266 166 250 c 1
 147 261 l 1
 169 271 190 287 206 303 c 0
 218 315 224 327 224 342 c 0
 224 352 216 361 209 369 c 0
 198 382 184 399 171 412 c 0
 144 440 122 464 122 502 c 0
 122 542 150 572 183 600 c 0
 212 624 291 686 403 686 c 0
 458 686 510 652 546 615 c 0
 563 598 577 575 588 551 c 1
EndSplineSet
EndChar

StartChar: u1D51B.ssty2
Encoding: 120091 -1 134
Width: 1056
Flags: W
HStem: -27 80<697 804.5> -22 70<209.5 318> 325 42<750 750> 333 34<464.5 500>
VStem: 500 83<317 333 367 385>
LayerCount: 2
Fore
SplineSet
191 527 m 1x18
 368 686 l 1
 421 684 475 670 512 639 c 0
 528 626 539 609 547 593 c 0
 560 568 569 542 577 516 c 1
 595 547 618 577 647 601 c 0
 692 639 744 669 803 689 c 1
 817 666 829 642 843 620 c 0
 847 613 852 607 858 601 c 1
 869 593 882 588 896 588 c 0
 909 588 931 597 948 604 c 1
 948 585 l 1
 825 527 l 1
 801 536 781 549 762 564 c 0
 744 579 717 602 711 616 c 1
 693 606 674 593 661 579 c 0
 641 556 624 528 611 500 c 0
 590 458 583 413 583 367 c 1
 794 367 l 1x18
 750 325 l 1x28
 695 331 638 332 583 333 c 1
 583 292 585 251 596 218 c 1
 609 171 631 125 673 90 c 0
 702 66 740 53 781 53 c 0
 828 53 870 74 908 96 c 1
 908 74 l 1
 775 -16 l 1
 756 -21 731 -27 717 -27 c 0x98
 677 -27 637 -13 608 11 c 0
 563 49 539 101 525 154 c 1
 475 112 l 2
 435 79 393 47 347 21 c 0
 325 9 303 -2 279 -11 c 0
 265 -16 248 -22 231 -22 c 0
 188 -22 152 2 129 32 c 1
 200 101 l 1
 218 70 253 48 295 48 c 0
 341 48 382 69 413 95 c 0
 463 136 480 194 494 250 c 0
 499 270 500 301 500 333 c 1x58
 429 333 360 333 289 325 c 1x28
 333 367 l 1
 500 367 l 1
 500 403 500 438 494 474 c 0
 488 508 474 536 444 561 c 0
 423 579 396 594 366 594 c 0
 327 594 297 587 270 564 c 0
 249 547 226 527 211 512 c 1
 191 527 l 1x18
EndSplineSet
EndChar

StartChar: u1D51C.ssty2
Encoding: 120092 -1 135
Width: 1194
Flags: MW
HStem: -219 48<514 633> -22 80 628 58
VStem: 129 90 245 83 519 96 890 96<306.5 350>
LayerCount: 2
Fore
SplineSet
521 397 m 1
 521 450 507 511 473 551 c 0
 440 589 387 623 331 623 c 0
 284 623 248 610 227 596 c 1
 211 584 210 572 210 551 c 0
 210 530 240 493 257 476 c 0
 271 462 294 439 305 422 c 0
 313 411 321 394 321 384 c 0
 321 355 304 332 283 312 c 0
 257 287 213 266 174 250 c 1
 156 261 l 1
 177 271 199 287 214 303 c 0
 226 315 233 327 233 342 c 0
 233 352 225 361 217 369 c 1
 207 382 192 399 180 412 c 0
 153 440 131 464 131 502 c 0
 131 542 158 572 192 600 c 0
 221 624 299 686 411 686 c 0
 467 686 518 652 554 615 c 0
 574 594 591 566 602 537 c 1
 608 542 l 2
 641 569 675 594 711 617 c 1
 751 644 793 668 839 686 c 1
 873 650 920 622 967 596 c 1
 986 516 986 426 986 341 c 0
 986 272 980 204 966 137 c 0
 955 84 938 32 908 -16 c 1
 855 -83 781 -136 698 -176 c 0
 647 -200 591 -219 531 -219 c 0
 497 -219 462 -213 431 -200 c 0
 405 -189 383 -172 372 -149 c 1
 452 -78 l 1
 464 -78 l 1
 476 -128 532 -171 597 -171 c 0
 669 -171 712 -150 758 -111 c 1
 788 -87 813 -47 833 -16 c 1
 857 25 867 70 875 115 c 0
 887 181 890 247 890 314 c 0
 890 386 885 458 858 527 c 1
 827 556 793 586 750 601 c 1
 741 598 659 566 611 512 c 1
 614 498 615 482 615 468 c 0
 613 377 594 285 531 207 c 1
 392 115 l 1
 421 108 455 94 482 83 c 0
 512 70 545 58 577 58 c 0
 618 58 653 81 679 106 c 1
 690 90 l 1
 662 60 635 31 602 5 c 1
 585 -7 563 -21 540 -21 c 0
 504 -21 449 2 413 20 c 1
 368 41 321 54 293 54 c 0
 237 54 185 22 141 -4 c 1
 129 11 l 1
 173 50 227 89 275 124 c 1
 301 124 336 124 357 122 c 1
 378 132 411 154 437 175 c 0
 467 200 485 233 498 267 c 0
 513 309 520 353 521 397 c 1
EndSplineSet
EndChar

StartChar: uni2128.ssty2
Encoding: 8488 -1 136
Width: 916
Flags: MW
HStem: -139 32 -16 53 319 56 597 74 709 20<289 308 308 308>
VStem: 231 102<-128 -32> 627 109
LayerCount: 2
Fore
SplineSet
314 309 m 1
 366 372 l 1
 419 375 463 400 500 431 c 0
 536 461 558 501 558 543 c 0
 558 557 551 570 539 580 c 0
 519 595 494 601 468 601 c 0
 440 601 413 598 385 596 c 0
 353 594 294 591 289 591 c 0
 264 591 237 592 219 607 c 0
 211 614 206 623 206 633 c 1
 289 729 l 1
 308 729 l 1
 303 722 299 713 299 705 c 0
 299 698 302 691 308 686 c 0
 327 671 367 671 398 671 c 0
 408 671 445 672 468 673 c 0
 487 673 506 676 525 676 c 0
 547 676 569 675 589 671 c 0
 603 668 618 663 627 655 c 0
 647 639 660 619 660 596 c 0
 660 546 632 499 589 463 c 0
 548 429 500 398 454 374 c 1
 459 372 l 1
 479 375 507 378 525 378 c 0
 599 378 675 361 717 309 c 1
 731 272 737 235 737 197 c 0
 737 109 699 25 641 -48 c 1
 558 -105 455 -139 347 -139 c 0
 308 -139 270 -136 231 -128 c 1
 231 -103 231 -67 230 -54 c 0
 229 -44 228 -34 219 -27 c 0
 211 -20 199 -16 187 -16 c 0
 173 -16 144 -30 125 -42 c 1
 110 -27 l 1
 138 -8 168 8 199 21 c 1
 224 30 249 37 276 37 c 0
 295 37 318 37 327 21 c 0
 333 11 333 -21 333 -43 c 0
 333 -60 333 -82 347 -93 c 0
 360 -104 389 -109 408 -109 c 0
 463 -109 502 -94 541 -62 c 0
 571 -37 594 2 606 35 c 0
 621 75 627 117 627 159 c 0
 627 182 625 205 618 227 c 0
 612 243 603 259 589 271 c 0
 549 305 493 319 437 319 c 0
 398 319 361 312 327 298 c 1
 314 309 l 1
EndSplineSet
EndChar

StartChar: u1D51E.ssty2
Encoding: 120094 -1 137
Width: 794
Flags: MW
HStem: -36 92 392 79
VStem: 171 97 492 90
LayerCount: 2
Fore
SplineSet
492 91 m 1
 282 -36 l 1
 246 -4 211 30 177 65 c 1
 176 95 174 126 174 156 c 0
 174 226 181 297 199 365 c 1
 402 471 l 1
 435 452 474 438 513 431 c 1
 594 465 l 1
 603 459 l 1
 591 392 585 324 585 256 c 0
 585 210 585 165 587 119 c 1
 630 74 l 1
 656 81 668 87 685 96 c 1
 693 83 l 1
 546 -27 l 1
 494 46 l 1
 492 91 l 1
492 119 m 1
 491 365 l 1
 434 365 375 378 320 392 c 1
 291 367 284 330 278 295 c 0
 273 264 271 233 271 201 c 0
 271 174 272 148 275 121 c 1
 290 104 321 77 347 56 c 0
 348 55 351 55 355 55 c 0
 373 55 420 78 492 119 c 1
EndSplineSet
EndChar

StartChar: u1D51F.ssty2
Encoding: 120095 -1 138
Width: 809
Flags: MW
HStem: -31 73 386 84 673 13
VStem: 204 104 534 91
LayerCount: 2
Fore
SplineSet
259 599 m 1
 403 686 l 1
 423 673 l 2
 422 673 399 656 387 647 c 0
 335 609 315 556 312 499 c 0
 309 456 309 407 309 365 c 1
 318 363 l 1
 372 401 428 440 486 470 c 1
 531 448 578 427 626 409 c 1
 628 377 629 345 629 313 c 0
 629 241 623 168 606 97 c 1
 518 50 428 5 332 -31 c 1
 288 2 229 46 200 71 c 1
 217 144 217 228 217 307 c 0
 217 428 216 548 209 668 c 1
 229 672 l 1
 249 595 l 1
 259 599 l 1
311 332 m 1
 311 123 l 1
 349 90 407 42 439 42 c 0
 458 42 474 53 487 64 c 0
 506 81 515 103 521 125 c 0
 530 159 533 193 533 227 c 0
 533 268 533 299 528 340 c 1
 517 352 489 364 426 386 c 1
 389 382 343 353 311 332 c 1
EndSplineSet
EndChar

StartChar: u1D520.ssty2
Encoding: 120096 -1 139
Width: 660
Flags: MW
HStem: -29 87 390 76
VStem: 182 103
LayerCount: 2
Fore
SplineSet
528 92 m 1
 321 -29 l 1
 273 5 230 44 189 84 c 1
 185 129 183 173 183 218 c 0
 183 247 184 307 198 363 c 1
 396 466 l 1
 443 463 486 444 525 422 c 1
 463 343 l 1
 452 340 l 1
 413 369 352 394 308 394 c 1
 287 364 282 295 282 246 c 0
 282 211 286 177 291 147 c 1
 313 118 355 86 392 58 c 1
 431 68 477 89 518 109 c 1
 528 92 l 1
EndSplineSet
EndChar

StartChar: u1D521.ssty2
Encoding: 120097 -1 140
Width: 791
Flags: MW
HStem: -34 84 546 64
VStem: 188 91 513 96
LayerCount: 2
Fore
SplineSet
578 109 m 1
 354 -34 l 1
 294 0 235 35 188 81 c 1
 186 111 185 138 185 166 c 0
 185 210 187 259 192 335 c 1
 242 375 297 418 350 447 c 1
 373 443 l 1
 317 393 304 366 295 346 c 0
 285 323 280 290 280 254 c 0
 280 215 284 171 288 135 c 1
 303 119 323 106 342 94 c 0
 369 78 398 64 428 51 c 0
 432 50 434 49 438 49 c 0
 444 49 450 52 456 59 c 0
 489 103 506 154 512 205 c 0
 515 226 516 246 516 267 c 0
 516 311 510 355 501 399 c 1
 455 440 403 478 344 508 c 1
 305 529 260 546 212 546 c 0
 203 546 187 546 183 545 c 2
 128 527 l 1
 113 543 l 1
 164 567 224 591 278 612 c 1
 386 600 509 524 609 455 c 1
 610 437 614 380 614 328 c 0
 614 297 612 267 609 249 c 1
 605 201 600 153 578 109 c 1
EndSplineSet
EndChar

StartChar: u1D522.ssty2
Encoding: 120098 -1 141
Width: 674
Flags: MW
HStem: -31 92 399 68
VStem: 175 102 435 100
LayerCount: 2
Fore
SplineSet
198 366 m 1
 392 467 l 1
 432 425 481 389 534 358 c 1
 451 292 348 212 278 166 c 1
 278 157 281 148 284 140 c 0
 288 126 356 79 404 61 c 1
 409 62 426 62 432 64 c 2
 521 103 l 1
 527 87 l 1
 462 45 395 5 324 -31 c 1
 276 6 228 43 187 85 c 1
 183 119 181 154 181 188 c 0
 181 248 187 307 198 366 c 1
275 193 m 1
 330 227 392 271 437 312 c 1
 392 336 347 365 308 396 c 0
 308 397 307 397 306 397 c 0
 296 397 289 375 287 369 c 0
 276 337 275 246 275 193 c 1
EndSplineSet
EndChar

StartChar: u1D523.ssty2
Encoding: 120099 -1 142
Width: 588
Flags: W
HStem: 351 35<151 239 151 240 133 239>
VStem: 206 47<521 574.5> 240 104<351 351> 241 98<111.5 135.5>
LayerCount: 2
Fore
SplineSet
344 351 m 1xa0
 339 145 l 1
 339 78 339 -6 324 -53 c 1
 312 -87 294 -120 272 -150 c 1
 212 -238 l 1
 189 -231 l 1
 221 -141 l 2
 229 -118 235 -93 237 -69 c 0
 240 -34 241 62 241 128 c 0x90
 241 143 241 275 240 351 c 1xa0
 133 351 l 1
 151 386 l 1
 239 386 l 1
 239 387 228 431 222 453 c 0
 215 478 206 514 206 528 c 0
 206 572 235 609 272 640 c 0
 289 654 307 667 327 679 c 1
 378 679 438 672 476 639 c 1
 420 547 l 1
 408 546 l 1
 398 563 386 579 371 592 c 1
 355 604 335 615 314 615 c 0
 299 615 279 612 267 603 c 1
 257 593 253 581 253 568 c 0xc0
 253 551 267 527 278 509 c 2
 338 414 l 2
 344 406 347 397 349 388 c 1
 486 388 l 1
 471 351 l 1
 344 351 l 1xa0
EndSplineSet
EndChar

StartChar: u1D524.ssty2
Encoding: 120100 -1 143
Width: 797
Flags: MW
HStem: -209 74<385 463> 389 81
VStem: 188 94 507 95
LayerCount: 2
Fore
SplineSet
116 -131 m 1
 170 -100 223 -63 277 -24 c 1
 191 65 l 1
 188 99 186 134 186 168 c 0
 186 235 192 302 204 368 c 1
 267 405 332 438 398 470 c 1
 439 447 487 434 535 425 c 1
 621 465 l 1
 629 459 l 1
 612 430 609 397 607 365 c 0
 602 310 602 222 602 150 c 0
 602 136 605 122 608 109 c 2
 643 -17 l 1
 582 -81 518 -144 447 -201 c 1
 433 -205 414 -209 404 -209 c 0
 366 -209 329 -200 294 -188 c 0
 249 -172 209 -150 171 -125 c 1
 129 -144 l 1
 116 -131 l 1
507 97 m 1
 427 50 348 -2 273 -55 c 1
 301 -78 332 -100 366 -115 c 0
 392 -127 421 -135 451 -135 c 0
 475 -135 498 -125 515 -111 c 0
 533 -95 540 -66 540 -45 c 0
 540 -23 521 50 507 97 c 1
371 41 m 1
 505 123 l 1
 505 199 507 276 516 351 c 1
 446 359 362 372 305 394 c 1
 285 354 283 304 283 260 c 0
 283 215 284 169 289 124 c 1
 307 95 341 64 371 41 c 1
EndSplineSet
EndChar

StartChar: u1D525.ssty2
Encoding: 120101 -1 144
Width: 819
Flags: MW
HStem: -206 21 -26 21<254 254> 390 88 669 20<382 383>
VStem: 192 102 519 100
LayerCount: 2
Fore
SplineSet
371 -184 m 1
 447 -129 l 1
 461 -121 470 -110 479 -98 c 1
 499 -64 506 -26 512 11 c 0
 522 71 524 132 524 193 c 0
 524 221 517 300 512 354 c 1
 481 373 446 390 407 390 c 0
 369 390 324 361 294 341 c 1
 288 126 l 1
 353 49 l 1
 254 -26 l 1
 188 65 l 1
 197 187 201 309 201 431 c 0
 201 512 200 594 194 675 c 1
 209 677 l 1
 237 601 l 1
 285 631 381 689 383 689 c 2
 403 678 l 1
 303 601 295 536 295 481 c 2
 294 371 l 1
 333 397 411 443 471 478 c 1
 511 448 560 430 611 417 c 1
 615 360 619 303 619 246 c 0
 619 192 617 137 611 84 c 0
 606 45 600 6 587 -31 c 1
 533 -97 464 -150 390 -198 c 1
 371 -184 l 1
EndSplineSet
EndChar

StartChar: u1D526.ssty2
Encoding: 120102 -1 145
Width: 528
Flags: MW
HStem: -21 101 391 84 556 119
VStem: 206 91
LayerCount: 2
Fore
SplineSet
129 369 m 1
 114 382 l 1
 155 410 199 443 240 475 c 1
 263 455 285 436 312 420 c 1
 303 360 302 300 302 239 c 0
 302 200 303 160 308 128 c 0
 310 109 331 88 347 75 c 1
 351 75 359 76 362 78 c 0
 380 85 402 96 410 102 c 1
 419 83 l 1
 372 46 321 11 271 -21 c 1
 206 55 l 1
 209 108 210 148 210 194 c 0
 210 252 209 308 205 367 c 1
 180 391 l 1
 167 387 145 379 129 369 c 1
321 616 m 1
 253 556 l 1
 228 575 205 596 183 617 c 1
 207 637 234 654 255 675 c 1
 277 654 303 628 321 616 c 1
EndSplineSet
EndChar

StartChar: u1D527.ssty2
Encoding: 120103 -1 146
Width: 530
Flags: MW
HStem: -208 21 387 88 555 118<247 255>
VStem: 240 95
LayerCount: 2
Fore
SplineSet
299 -44 m 0
 245 -99 181 -151 105 -202 c 1
 86 -184 l 1
 121 -162 156 -139 186 -113 c 0
 201 -100 211 -83 217 -66 c 0
 236 -10 239 113 239 203 c 0
 239 253 239 322 227 352 c 0
 220 369 196 389 189 389 c 0
 186 389 180 387 179 386 c 2
 144 367 l 1
 127 380 l 1
 254 475 l 1
 280 459 306 441 332 422 c 1
 332 370 331 154 325 26 c 0
 324 1 319 -25 299 -44 c 0
317 615 m 1
 247 555 l 1
 225 570 203 595 182 616 c 1
 255 673 l 1
 275 652 294 633 317 615 c 1
EndSplineSet
EndChar

StartChar: u1D528.ssty2
Encoding: 120104 -1 147
Width: 660
Flags: MW
HStem: 308 35<137 210 126 211 305 326 398 495>
VStem: 210 95<128 308 128 308 128 308> 443 86<434 491.5>
LayerCount: 2
Fore
SplineSet
517 110 m 1
 533 95 l 1
 481 58 399 13 331 -26 c 1
 203 69 l 1
 207 88 210 109 210 127 c 2
 210 308 l 1
 126 308 l 1
 137 343 l 1
 211 343 l 1
 211 570 210 605 203 669 c 1
 223 673 l 1
 233 649 245 594 245 593 c 1
 294 625 348 661 401 686 c 1
 420 676 l 1
 389 652 353 624 339 603 c 0
 317 571 308 534 305 498 c 1
 355 530 404 555 457 585 c 1
 477 569 495 551 510 531 c 0
 521 516 529 500 529 483 c 0
 529 465 517 447 501 434 c 2
 398 343 l 1
 512 343 l 1
 495 308 l 1
 305 308 l 1
 305 128 l 1
 333 104 369 80 403 60 c 1
 442 76 482 89 517 110 c 1
305 343 m 1
 347 343 381 356 409 383 c 0
 427 401 443 422 443 446 c 0
 443 459 435 470 428 481 c 1
 416 495 402 507 386 518 c 1
 362 508 339 495 325 476 c 0
 314 460 311 442 308 424 c 0
 305 399 305 370 305 343 c 1
EndSplineSet
EndChar

StartChar: u1D529.ssty2
Encoding: 120105 -1 148
Width: 528
Flags: MW
HStem: -20 95 666 20<410 410>
VStem: 216 97
LayerCount: 2
Fore
SplineSet
410 686 m 1
 429 673 l 1
 403 654 377 637 359 613 c 0
 317 559 316 507 316 391 c 0
 316 301 317 212 318 122 c 1
 329 108 349 93 369 81 c 1
 385 85 402 95 416 104 c 1
 429 87 l 1
 275 -20 l 1
 213 56 l 1
 221 164 223 273 223 382 c 0
 223 478 222 573 216 668 c 1
 236 672 l 1
 257 594 l 1
 410 686 l 1
EndSplineSet
EndChar

StartChar: u1D52A.ssty2
Encoding: 120106 -1 149
Width: 1113
Flags: MW
HStem: -23 18 388 86
VStem: 203 96 510 84 793 95
LayerCount: 2
Fore
SplineSet
299 376 m 1
 451 475 l 1
 497 452 545 432 595 418 c 1
 595 379 l 1
 648 409 701 440 750 474 c 1
 796 453 852 428 895 418 c 1
 890 361 892 304 891 247 c 2
 890 126 l 1
 903 110 918 93 935 79 c 1
 959 86 968 89 991 105 c 1
 1006 88 l 1
 854 -19 l 1
 842 0 808 35 783 60 c 1
 791 102 796 135 796 274 c 0
 796 300 796 324 793 342 c 0
 792 348 791 354 783 357 c 0
 750 374 711 383 673 391 c 1
 645 379 620 367 595 353 c 1
 595 135 l 2
 595 127 595 118 600 113 c 0
 600 112 636 68 655 47 c 1
 552 -26 l 1
 536 0 508 26 487 46 c 1
 498 85 504 127 504 248 c 0
 504 281 503 314 498 347 c 1
 468 369 413 382 372 391 c 1
 299 349 l 1
 299 152 l 2
 299 136 299 112 305 106 c 0
 305 105 339 67 357 48 c 1
 258 -22 l 1
 199 58 l 1
 206 98 208 138 208 177 c 0
 208 240 206 302 203 365 c 1
 171 391 l 1
 120 367 l 1
 105 379 l 1
 239 472 l 1
 259 455 299 421 299 420 c 2
 299 376 l 1
EndSplineSet
EndChar

StartChar: u1D52B.ssty2
Encoding: 120107 -1 150
Width: 825
Flags: MW
HStem: -23 21<255 255> 384 86
VStem: 197 112 504 113
LayerCount: 2
Fore
SplineSet
308 367 m 1
 481 475 l 1
 523 451 569 432 617 417 c 1
 612 374 606 315 606 253 c 1
 612 127 l 1
 621 114 631 100 643 87 c 0
 647 83 653 82 659 82 c 0
 660 82 667 85 671 87 c 2
 708 109 l 1
 722 93 l 1
 570 -19 l 1
 504 65 l 1
 511 100 514 146 514 195 c 0
 514 249 511 306 507 358 c 1
 473 373 425 382 386 385 c 1
 308 341 l 1
 303 134 l 2
 303 124 308 110 312 106 c 2
 360 52 l 1
 255 -23 l 1
 239 2 219 25 197 46 c 1
 206 92 209 150 209 211 c 0
 209 263 207 316 205 365 c 1
 176 388 l 1
 134 368 l 1
 119 380 l 1
 159 410 242 470 243 470 c 0
 258 457 285 439 308 425 c 1
 308 367 l 1
EndSplineSet
EndChar

StartChar: u1D52C.ssty2
Encoding: 120108 -1 151
Width: 779
Flags: MW
HStem: -28 71 398 83
VStem: 175 89 503 95
LayerCount: 2
Fore
SplineSet
295 -28 m 1
 253 2 210 34 176 68 c 1
 176 157 182 266 198 364 c 1
 271 399 341 439 409 481 c 1
 463 451 522 426 587 415 c 1
 590 377 593 340 593 302 c 0
 593 231 585 161 566 92 c 1
 480 46 390 4 295 -28 c 1
419 44 m 0
 425 44 439 57 445 63 c 0
 473 91 483 130 489 170 c 0
 498 232 498 259 498 356 c 1
 444 359 373 381 319 401 c 1
 303 379 296 366 286 329 c 0
 278 299 273 254 273 211 c 0
 273 178 276 147 281 123 c 1
 301 102 324 83 350 68 c 0
 372 56 393 47 419 44 c 0
EndSplineSet
EndChar

StartChar: u1D52D.ssty2
Encoding: 120109 -1 152
Width: 794
Flags: MW
HStem: -212 21 37 68 388 90 518 20<247 247>
VStem: 201 95<19.5 347> 518 97
LayerCount: 2
Fore
SplineSet
300 -170 m 1
 204 -214 l 1
 191 -207 l 1
 195 -124 201 -8 201 47 c 1
 174 47 146 40 125 24 c 1
 111 38 l 1
 141 61 186 95 203 105 c 1
 203 352 l 1
 187 370 153 407 153 408 c 0
 150 412 147 417 147 422 c 0
 147 430 151 437 156 444 c 0
 181 478 212 510 247 538 c 1
 264 529 l 1
 252 517 242 503 242 487 c 0
 242 474 248 461 257 449 c 1
 267 433 282 419 297 406 c 0
 297 405 296 384 295 372 c 1
 354 405 409 441 465 478 c 1
 507 450 557 430 607 414 c 1
 610 370 613 326 613 282 c 0
 613 260 612 238 611 216 c 0
 608 173 603 129 585 89 c 1
 425 -18 l 1
 386 8 343 30 295 37 c 1
 295 -32 296 -101 300 -170 c 1
296 347 m 1
 296 106 l 1
 344 106 426 76 485 52 c 1
 504 82 516 135 516 230 c 0
 516 271 513 312 509 353 c 1
 479 366 430 381 394 391 c 1
 359 380 328 364 296 347 c 1
EndSplineSet
EndChar

StartChar: u1D52E.ssty2
Encoding: 120110 -1 153
Width: 780
Flags: MW
HStem: -219 21 -29 87 398 79
VStem: 168 95<136.5 219.5> 480 110
LayerCount: 2
Fore
SplineSet
584 -179 m 1
 485 -224 l 1
 471 -214 l 1
 476 -116 480 -6 480 93 c 1
 413 47 345 9 272 -29 c 1
 171 65 l 1
 169 94 168 122 168 151 c 0
 168 224 176 298 195 369 c 1
 264 400 333 432 393 473 c 1
 428 455 465 439 505 432 c 1
 589 480 l 1
 599 473 l 1
 581 388 576 253 576 141 c 0
 576 34 576 -74 584 -179 c 1
359 50 m 1
 387 63 442 98 480 121 c 1
 480 201 481 287 486 367 c 1
 425 370 365 383 306 398 c 1
 289 373 281 344 275 316 c 0
 266 278 263 239 263 200 c 0
 263 181 263 147 264 144 c 1
 264 137 265 130 271 125 c 0
 297 103 332 71 359 50 c 1
EndSplineSet
EndChar

StartChar: u1D52F.ssty2
Encoding: 120111 -1 154
Width: 660
Flags: MW
HStem: -21 81<337 403> 381 93
VStem: 213 102
LayerCount: 2
Fore
SplineSet
315 382 m 1
 446 469 l 1
 458 451 473 433 489 417 c 0
 499 408 511 398 525 398 c 0
 539 398 560 408 570 413 c 1
 570 400 l 1
 499 345 l 2
 488 337 474 335 459 335 c 0
 445 335 431 340 420 346 c 0
 401 356 377 371 360 384 c 1
 340 372 323 359 315 350 c 1
 315 152 l 2
 315 136 327 123 338 111 c 0
 357 92 379 75 403 60 c 1
 510 102 l 1
 512 83 l 1
 337 -21 l 1
 293 8 253 41 213 75 c 1
 221 134 221 184 221 245 c 0
 221 271 220 299 219 322 c 0
 218 354 210 365 210 365 c 1
 199 373 187 380 175 387 c 1
 129 371 l 1
 115 381 l 1
 236 474 l 1
 261 453 288 433 315 414 c 1
 315 382 l 1
EndSplineSet
EndChar

StartChar: u1D530.ssty2
Encoding: 120112 -1 155
Width: 724
Flags: MW
HStem: -30 65 47 64<163 248.5> 234 66 404 75
VStem: 179 90 452 91
LayerCount: 2
Fore
SplineSet
327 244 m 2
 475 300 l 1
 501 293 522 278 542 262 c 1
 544 236 546 210 546 185 c 0
 546 139 541 94 527 50 c 1
 462 26 396 1 335 -30 c 1
 308 -9 279 11 247 27 c 0
 227 37 205 47 181 47 c 0
 145 47 112 31 75 3 c 1
 63 12 l 1
 81 28 126 67 152 88 c 0
 174 105 204 111 233 111 c 0
 264 111 293 103 319 89 c 2
 416 35 l 2
 417 34 419 34 421 34 c 0
 428 34 435 39 439 48 c 0
 450 78 452 109 452 140 c 0
 452 165 448 203 437 214 c 0
 419 231 404 236 389 236 c 0
 373 236 363 233 348 226 c 2
 225 168 l 1
 207 187 188 213 174 235 c 1
 174 284 175 332 181 377 c 1
 363 479 l 1
 461 433 l 2
 470 429 480 427 492 427 c 0
 519 427 547 440 579 457 c 1
 585 441 l 1
 475 363 l 1
 389 367 324 390 293 415 c 1
 269 396 269 359 269 336 c 0
 269 311 271 286 283 263 c 0
 288 254 294 242 307 242 c 0
 314 242 321 242 327 244 c 2
EndSplineSet
EndChar

StartChar: u1D531.ssty2
Encoding: 120113 -1 156
Width: 593
Flags: MW
HStem: 351 35<147 235 147 236 128 235 331 439 331 331>
VStem: 235 95<386 418.5 386 558>
LayerCount: 2
Fore
SplineSet
371 641 m 1
 387 627 l 1
 355 601 l 2
 349 596 345 589 344 582 c 0
 331 518 330 451 330 386 c 1
 459 386 l 1
 439 351 l 1
 331 351 l 1
 332 123 l 1
 356 105 385 84 408 73 c 0
 414 70 421 68 428 68 c 0
 446 68 472 77 512 100 c 1
 516 78 l 1
 351 -21 l 1
 235 62 l 2
 235 63 235 254 236 351 c 1
 128 351 l 1
 147 386 l 1
 235 386 l 1
 235 558 l 1
 371 641 l 1
EndSplineSet
EndChar

StartChar: u1D532.ssty2
Encoding: 120114 -1 157
Width: 814
Flags: MW
HStem: -23 81 396 78<170 240>
VStem: 217 86 500 91
LayerCount: 2
Fore
SplineSet
602 468 m 1
 611 462 l 1
 599 383 595 304 595 225 c 0
 595 193 597 161 602 131 c 0
 605 117 612 103 623 91 c 0
 627 86 635 83 643 83 c 0
 655 83 695 98 707 103 c 1
 714 88 l 1
 663 54 614 19 567 -18 c 1
 558 -16 l 1
 535 16 511 51 496 87 c 1
 415 42 313 -26 313 -26 c 1
 282 -9 207 36 163 48 c 1
 179 70 188 99 195 127 c 0
 206 172 213 218 213 264 c 0
 213 292 213 319 205 346 c 1
 198 364 188 383 170 396 c 1
 125 376 l 1
 107 386 l 1
 240 474 l 1
 259 455 278 436 302 421 c 1
 303 399 303 378 303 356 c 0
 303 325 302 294 301 264 c 0
 299 210 290 156 272 104 c 1
 394 56 l 1
 499 115 l 1
 503 165 503 215 503 264 c 0
 503 316 503 369 500 424 c 1
 602 468 l 1
EndSplineSet
EndChar

StartChar: u1D533.ssty2
Encoding: 120115 -1 158
Width: 807
Flags: MW
HStem: -28 77 396 81 510 20
VStem: 207 95 527 92
LayerCount: 2
Fore
SplineSet
212 231 m 0
 212 262 210 300 207 345 c 0
 207 353 203 358 197 364 c 0
 186 376 176 382 167 394 c 0
 162 402 158 410 158 418 c 0
 158 424 164 438 168 444 c 0
 193 476 222 506 254 533 c 1
 271 529 l 1
 260 515 252 500 252 483 c 0
 252 473 265 452 275 438 c 0
 281 430 296 418 307 408 c 1
 307 374 l 1
 479 477 l 1
 522 453 567 432 617 416 c 1
 624 350 624 316 624 245 c 0
 624 208 606 126 585 86 c 1
 327 -28 l 1
 290 5 247 37 204 66 c 1
 209 121 212 167 212 231 c 0
307 348 m 1
 303 155 l 2
 303 130 320 108 344 93 c 0
 345 93 374 74 389 64 c 1
 403 56 421 49 439 49 c 0
 455 49 468 58 479 68 c 0
 492 79 500 93 507 108 c 0
 523 148 528 207 528 243 c 0
 528 281 524 320 518 358 c 1
 491 379 453 390 416 396 c 1
 383 394 341 369 307 348 c 1
EndSplineSet
EndChar

StartChar: u1D534.ssty2
Encoding: 120116 -1 159
Width: 1121
Flags: MW
HStem: -28 72 386 87 513 20<246 246>
VStem: 203 92<181 190 146 230> 495 103 824 102
LayerCount: 2
Fore
SplineSet
599 368 m 1
 769 471 l 1
 818 447 869 425 920 405 c 1
 926 377 929 313 929 268 c 0
 929 175 906 135 879 72 c 1
 655 -28 l 1
 602 -1 548 24 494 46 c 1
 500 105 504 164 504 222 c 0
 504 262 502 302 498 341 c 1
 470 357 431 378 414 385 c 0
 405 388 394 392 386 392 c 0
 380 392 370 390 365 387 c 0
 340 375 320 362 297 348 c 1
 296 314 295 222 295 158 c 0
 295 134 302 109 319 88 c 1
 329 74 341 59 351 48 c 1
 261 -27 l 1
 241 2 219 30 191 52 c 1
 200 103 203 155 203 207 c 0
 203 253 203 299 199 345 c 0
 198 353 194 358 188 364 c 0
 178 376 168 382 158 394 c 1
 154 402 150 410 150 418 c 0
 150 424 156 438 159 444 c 1
 185 476 213 506 246 533 c 1
 263 529 l 1
 252 515 243 500 243 483 c 0
 243 473 257 452 266 438 c 0
 272 430 288 418 299 408 c 1
 299 376 l 1
 350 406 402 437 446 473 c 1
 495 447 547 425 600 405 c 1
 599 368 l 1
695 386 m 1
 668 386 619 353 599 341 c 1
 598 304 596 270 596 235 c 0
 596 209 597 182 600 154 c 1
 601 131 615 110 635 95 c 0
 667 70 705 44 755 44 c 0
 764 44 775 51 783 58 c 0
 804 75 813 103 818 127 c 0
 827 172 829 218 829 264 c 0
 829 292 824 317 815 348 c 1
 780 366 734 381 695 386 c 1
EndSplineSet
EndChar

StartChar: u1D535.ssty2
Encoding: 120117 -1 160
Width: 659
Flags: MW
HStem: -188 21<245 245> -25 84<349 422> 384 89
VStem: 114 61 235 96
LayerCount: 2
Fore
SplineSet
327 376 m 1
 458 465 l 1
 479 437 509 417 541 398 c 1
 461 339 l 1
 427 353 404 381 389 390 c 1
 372 381 339 357 331 347 c 1
 327 329 325 306 325 289 c 0
 324 234 326 174 331 117 c 1
 354 97 379 79 407 63 c 0
 411 60 417 59 422 59 c 0
 428 60 438 59 448 64 c 2
 524 98 l 1
 528 80 l 1
 349 -25 l 1
 319 3 284 27 248 49 c 1
 228 33 209 16 194 -5 c 0
 183 -20 175 -36 175 -54 c 0
 175 -74 187 -91 204 -105 c 0
 230 -127 287 -136 321 -139 c 1
 321 -148 l 1
 245 -188 l 1
 205 -180 164 -169 134 -144 c 0
 119 -132 109 -115 109 -98 c 0
 109 -73 125 -51 140 -30 c 0
 165 4 189 29 222 59 c 1
 229 101 230 150 230 192 c 0
 230 246 231 300 227 353 c 1
 216 363 201 376 191 381 c 0
 187 383 181 386 179 386 c 0
 175 386 169 384 164 382 c 0
 153 377 131 368 129 368 c 1
 114 377 l 1
 153 411 195 442 239 473 c 1
 269 451 314 416 330 407 c 1
 327 376 l 1
EndSplineSet
EndChar

StartChar: u1D536.ssty2
Encoding: 120118 -1 161
Width: 791
Flags: MW
HStem: -219 21<363 363> -26 21 391 82<399 470> 508 20
VStem: 204 89 517 97
LayerCount: 2
Fore
SplineSet
204 255 m 0
 204 286 204 290 200 336 c 0
 199 344 196 349 190 355 c 0
 179 367 169 374 160 386 c 0
 155 392 151 400 151 410 c 0
 151 414 157 429 161 435 c 0
 186 467 215 497 247 524 c 1
 264 520 l 1
 253 506 245 491 245 474 c 0
 245 464 258 443 267 429 c 0
 273 421 289 409 300 399 c 1
 300 367 l 1
 470 473 l 1
 515 451 559 429 608 414 c 1
 617 354 621 284 621 228 c 0
 621 148 612 54 585 -23 c 1
 570 -69 446 -168 363 -219 c 1
 318 -202 l 1
 359 -185 398 -166 431 -140 c 1
 457 -118 474 -89 486 -60 c 0
 499 -28 505 6 509 39 c 0
 515 89 517 139 517 189 c 0
 517 245 511 301 504 356 c 1
 475 371 440 386 408 391 c 1
 390 391 338 363 300 340 c 1
 300 276 297 259 297 152 c 0
 297 114 316 86 352 48 c 1
 262 -27 l 1
 241 2 215 34 191 52 c 1
 202 113 204 178 204 255 c 0
EndSplineSet
EndChar

StartChar: u1D537.ssty2
Encoding: 120119 -1 162
Width: 662
Flags: MW
HStem: -215 61<254 323> 388 83
VStem: 89 95 385 89<36.5 38.5>
LayerCount: 2
Fore
SplineSet
445 -99 m 1
 281 -215 l 1
 227 -215 175 -200 132 -174 c 0
 110 -160 93 -140 89 -116 c 1
 97 -89 153 -25 193 13 c 0
 244 62 291 102 345 147 c 1
 303 163 260 177 213 181 c 1
 213 192 l 1
 215 192 271 236 301 259 c 0
 320 274 342 292 342 315 c 0
 342 338 323 360 302 372 c 0
 287 381 270 388 254 388 c 0
 246 388 242 386 234 382 c 0
 205 368 179 352 153 335 c 1
 140 347 l 1
 194 392 252 434 315 471 c 1
 344 459 374 446 397 427 c 0
 409 418 420 407 427 396 c 0
 433 388 438 379 438 370 c 0
 438 357 431 344 420 334 c 2
 323 247 l 1
 367 234 417 218 457 198 c 1
 470 155 474 109 474 64 c 0
 474 9 462 -46 445 -99 c 1
367 130 m 1
 318 95 270 59 231 16 c 0
 207 -11 183 -40 183 -73 c 0
 183 -90 195 -104 210 -115 c 1
 237 -139 276 -154 317 -154 c 0
 329 -154 335 -150 344 -142 c 0
 356 -132 366 -105 371 -85 c 0
 379 -50 385 -15 385 20 c 0
 385 57 380 94 367 130 c 1
EndSplineSet
EndChar

StartChar: u1D6AA.ssty2
Encoding: 120490 -1 163
Width: 831
Flags: MW
HStem: -9 21<242 242> 631 61
VStem: 223 144 741 36
LayerCount: 2
Fore
SplineSet
757 692 m 1
 777 511 l 1
 744 508 l 1
 697 586 l 2
 684 606 662 622 633 626 c 0
 591 631 550 633 508 633 c 0
 473 633 439 631 403 630 c 0
 387 629 369 620 369 606 c 1
 366 569 366 479 366 416 c 0
 366 287 367 159 376 31 c 1
 242 -9 l 1
 222 3 l 1
 227 182 228 539 228 587 c 0
 228 608 223 630 205 645 c 2
 168 675 l 1
 170 692 l 1
 545 692 l 1
 757 692 l 1
EndSplineSet
EndChar

StartChar: u1D6AB.ssty2
Encoding: 120491 -1 164
Width: 1117
Flags: MW
HStem: -2 59 679 20<697 697>
VStem: 132 844
LayerCount: 2
Fore
SplineSet
552 669 m 1
 697 699 l 1
 735 574 778 450 831 328 c 0
 872 235 920 145 975 55 c 1
 976 44 l 1
 833 -7 l 1
 755 -1 403 6 403 6 c 1
 280 6 158 0 135 -1 c 1
 135 0 133 20 132 34 c 1
 279 243 447 483 552 669 c 1
244 67 m 1
 759 55 l 1
 773 64 782 69 782 69 c 1
 704 230 635 404 572 568 c 1
 568 566 557 564 556 564 c 0
 460 400 349 225 244 67 c 1
EndSplineSet
EndChar

StartChar: u1D6AF.ssty2
Encoding: 120495 -1 165
Width: 1332
Flags: MW
HStem: 651 48
VStem: 956 160
LayerCount: 2
Fore
SplineSet
810 429 m 2
 828 473 l 1
 852 473 l 1
 852 229 l 1
 822 229 l 1
 806 285 l 2
 802 296 788 300 777 301 c 0
 726 304 621 303 543 301 c 0
 528 301 511 296 506 284 c 2
 484 229 l 1
 462 229 l 1
 462 348 l 1
 462 473 l 1
 492 473 l 1
 506 422 l 2
 507 418 516 411 543 411 c 0
 621 409 706 408 777 410 c 0
 792 411 806 418 810 429 c 2
601 -14 m 0
 497 -14 388 5 313 64 c 0
 227 131 194 227 194 321 c 0
 194 424 234 526 327 598 c 0
 372 633 429 657 489 673 c 0
 560 692 635 699 709 699 c 0
 818 699 931 682 1010 621 c 0
 1089 559 1117 470 1117 383 c 0
 1117 276 1085 166 987 89 c 0
 886 10 742 -14 601 -14 c 0
677 32 m 0
 752 32 822 56 874 98 c 1
 907 123 926 159 939 193 c 0
 955 238 961 285 961 331 c 0
 961 383 954 435 936 485 c 1
 920 524 898 561 862 590 c 0
 806 634 728 655 648 655 c 0
 584 655 504 639 460 607 c 0
 370 542 354 443 354 348 c 0
 354 255 387 161 472 94 c 0
 525 52 603 32 677 32 c 0
EndSplineSet
EndChar

StartChar: u1D6B2.ssty2
Encoding: 120498 -1 166
Width: 1192
Flags: MW
HStem: -13 21<835 835> 674 20<694 694>
VStem: 126 926<16 39>
LayerCount: 2
Fore
SplineSet
572 672 m 1
 694 694 l 1
 722 596 752 499 787 402 c 0
 814 330 843 258 879 188 c 1
 900 150 923 108 956 80 c 0
 972 67 994 62 1016 62 c 0
 1027 62 1038 63 1049 66 c 1
 1052 39 l 1
 835 -13 l 1
 802 -2 778 19 766 45 c 1
 753 77 643 374 583 539 c 1
 565 539 l 1
 454 366 363 200 270 20 c 1
 140 -4 l 1
 126 16 l 1
 289 228 438 447 572 672 c 1
EndSplineSet
EndChar

StartChar: u1D6B5.ssty2
Encoding: 120501 -1 167
Width: 966
Flags: MW
HStem: -3 109 169 20<795 795> 306 107 505 21<135 170 135 135 798 824 798 798> 584 115
VStem: 135 693<186 505>
LayerCount: 2
Fore
SplineSet
828 186 m 1
 803 -14 l 1
 163 -6 l 1
 139 186 l 1
 169 188 l 1
 189 136 l 2
 197 115 226 106 253 106 c 2
 711 106 l 2
 735 106 763 113 771 133 c 2
 795 189 l 1
 828 186 l 1
278 413 m 1
 688 413 l 1
 693 406 l 1
 658 308 l 1
 345 307 l 2
 314 307 281 305 250 302 c 1
 241 308 l 1
 278 413 l 1
799 693 m 1
 824 505 l 1
 798 505 l 1
 772 547 l 2
 765 560 749 569 731 574 c 1
 709 582 685 584 661 584 c 2
 269 585 l 2
 243 585 214 582 202 562 c 2
 170 505 l 1
 135 505 l 1
 158 700 l 1
 799 693 l 1
EndSplineSet
EndChar

StartChar: u1D6B7.ssty2
Encoding: 120503 -1 168
Width: 1189
Flags: MW
HStem: -14 21<799 799> 623 65
VStem: 243 146 788 146
LayerCount: 2
Fore
SplineSet
936 214 m 2
 945 19 l 1
 799 -14 l 1
 780 -3 l 1
 786 191 l 2
 787 231 789 440 789 601 c 0
 789 617 770 623 744 623 c 2
 434 623 l 2
 416 623 396 615 394 599 c 0
 388 562 388 411 388 316 c 0
 388 220 390 124 397 27 c 1
 256 -9 l 1
 238 1 l 1
 242 103 243 206 243 309 c 0
 243 408 240 507 240 605 c 0
 240 619 234 633 216 638 c 2
 139 659 l 1
 139 690 l 1
 221 687 302 686 385 686 c 2
 854 686 l 1
 1048 686 l 1
 1046 653 l 1
 976 641 l 2
 951 636 936 615 934 595 c 1
 932 554 932 512 932 471 c 0
 932 385 932 288 936 214 c 2
EndSplineSet
EndChar

StartChar: u1D6BA.ssty2
Encoding: 120506 -1 169
Width: 1035
Flags: MW
HStem: 0 20 623 66
VStem: 137 737
LayerCount: 2
Fore
SplineSet
542 378 m 2
 306 125 l 1
 492 125 678 126 862 134 c 1
 869 119 l 1
 831 -1 l 1
 785 2 737 2 690 2 c 0
 506 3 322 1 137 1 c 1
 160 68 l 1
 250 150 353 260 434 350 c 1
 206 626 l 1
 206 639 l 1
 298 690 l 1
 477 690 658 690 838 699 c 1
 850 691 l 1
 806 623 l 1
 729 626 545 626 410 626 c 1
 404 619 l 1
 545 442 l 2
 556 428 560 419 560 411 c 0
 560 403 552 389 542 378 c 2
EndSplineSet
EndChar

StartChar: u1D6BC.ssty2
Encoding: 120508 -1 170
Width: 1131
Flags: MW
HStem: -6 21<509 509> 605 96
VStem: 139 26 492 148 954 36
LayerCount: 2
Fore
SplineSet
650 27 m 1
 509 -6 l 1
 485 2 l 1
 491 68 492 134 492 200 c 0
 492 276 483 353 458 426 c 0
 439 480 411 533 360 572 c 0
 335 592 300 602 264 602 c 0
 203 602 180 567 162 530 c 1
 139 535 l 1
 143 581 157 616 200 650 c 0
 235 677 285 691 334 691 c 0
 382 691 432 681 467 654 c 0
 504 625 521 594 534 555 c 0
 554 495 562 433 564 371 c 1
 576 371 l 1
 591 434 607 493 637 552 c 0
 657 592 680 632 720 662 c 1
 753 689 798 707 845 707 c 0
 881 707 914 703 940 683 c 0
 959 668 970 647 977 627 c 0
 987 597 990 567 990 536 c 1
 961 534 l 1
 956 554 949 570 932 583 c 0
 918 594 896 601 875 601 c 0
 839 601 809 592 785 573 c 0
 733 532 700 479 678 424 c 0
 650 355 641 283 641 210 c 0
 641 149 646 88 650 27 c 1
EndSplineSet
EndChar

StartChar: u1D6BD.ssty2
Encoding: 120509 -1 171
Width: 1338
Flags: MW
HStem: 0 29 90 26<577 577> 555 32 657 28
VStem: 195 166<313 373.5> 583 157 968 162<338.5 373.5>
LayerCount: 2
Fore
SplineSet
850 661 m 1
 759 646 l 2
 746 644 734 636 734 625 c 2
 734 598 l 1
 745 587 l 1
 809 587 877 582 937 571 c 0
 982 562 1027 549 1060 523 c 0
 1112 482 1130 424 1130 367 c 0
 1130 296 1110 223 1045 172 c 0
 967 112 853 92 745 90 c 1
 734 80 l 1
 734 54 l 1
 736 48 755 45 766 43 c 2
 860 28 l 1
 861 0 l 1
 475 0 l 1
 476 27 l 1
 508 32 575 42 576 42 c 0
 585 44 588 52 589 59 c 1
 589 80 l 1
 577 90 l 1
 520 91 458 97 404 110 c 0
 357 122 311 140 276 168 c 0
 218 213 195 278 195 342 c 0
 195 405 223 466 279 510 c 1
 315 537 359 555 407 567 c 0
 460 581 521 587 577 588 c 0
 579 588 587 597 589 598 c 1
 589 622 l 2
 589 634 581 641 566 644 c 2
 475 658 l 1
 475 685 l 1
 850 685 l 1
 850 661 l 1
746 116 m 1
 797 118 851 132 888 161 c 0
 917 183 934 212 947 242 c 1
 962 280 968 319 968 358 c 0
 968 389 963 420 952 450 c 0
 943 474 929 497 907 514 c 0
 865 546 802 555 745 556 c 1
 734 546 l 1
 734 127 l 1
 746 116 l 1
577 556 m 1
 528 554 475 543 439 515 c 0
 382 470 361 407 361 344 c 0
 361 282 379 218 436 173 c 0
 473 144 525 119 577 116 c 1
 589 126 l 1
 589 546 l 1
 577 556 l 1
EndSplineSet
EndChar

StartChar: u1D6BF.ssty2
Encoding: 120511 -1 172
Width: 1115
Flags: W
HStem: -1 21G<374 759 374 374> 683 20G<267 286.5>
VStem: 202 145 489 143<214.5 240 240 240> 489 150<74 252 240 252> 494 140<291 353.5 287 355.5>
LayerCount: 2
Fore
SplineSet
939 592 m 2xe4
 897 418 l 2
 891 395 885 373 873 352 c 0
 850 313 831 294 760 275 c 0
 722 264 680 257 639 252 c 1
 632 243 l 1
 632 186 636 130 644 74 c 0
 646 62 656 50 671 46 c 2
 759 26 l 1
 759 -1 l 1
 374 -1 l 1
 375 28 l 1
 458 44 l 2
 476 47 489 60 489 74 c 2
 489 240 l 1xf0
 481 249 l 1
 438 254 394 260 353 270 c 0
 327 277 299 284 279 300 c 0
 251 321 234 349 223 378 c 0
 208 415 204 453 202 492 c 1
 202 540 202 614 179 633 c 1
 164 644 146 649 127 649 c 0
 118 649 94 646 78 640 c 1
 70 664 l 1
 137 678 256 703 278 703 c 0
 295 703 314 701 327 691 c 0
 340 681 345 665 345 651 c 0
 346 599 346 563 347 511 c 1
 350 436 372 356 443 304 c 0
 453 297 469 289 483 285 c 1
 494 291 l 1xe4
 494 420 493 607 489 666 c 1
 621 698 l 1
 639 686 l 1xe8
 634 559 634 420 634 287 c 1
 643 281 l 1
 653 283 682 290 693 299 c 0
 726 325 748 358 753 394 c 1
 786 581 l 2
 791 607 799 633 818 655 c 1
 876 670 937 682 998 688 c 1
 994 661 l 1
 959 650 946 620 939 592 c 2xe4
EndSplineSet
EndChar

StartChar: u1D6C0.ssty2
Encoding: 120512 -1 173
Width: 1322
Flags: MW
HStem: 0 104 659 41<642.5 695.5>
VStem: 218 167<342 416.5 342 427.5> 936 164
LayerCount: 2
Fore
SplineSet
1181 105 m 1
 1140 -5 l 1
 1069 -1 955 5 927 5 c 0
 849 5 769 4 690 -1 c 1
 720 94 l 1
 771 105 816 127 853 156 c 0
 885 180 902 212 915 245 c 0
 931 288 936 333 936 379 c 0
 936 464 910 552 831 613 c 0
 788 647 726 659 665 659 c 0
 600 659 533 648 487 612 c 0
 407 550 385 460 385 373 c 0
 385 311 403 250 443 197 c 1
 479 151 530 113 596 95 c 1
 557 3 l 1
 488 7 418 8 347 8 c 0
 279 8 211 6 142 3 c 1
 135 14 l 1
 168 109 l 1
 262 103 351 97 446 96 c 1
 450 108 l 1
 307 154 218 264 218 385 c 0
 218 470 256 553 332 614 c 1
 372 644 422 664 475 677 c 0
 540 694 608 700 677 700 c 0
 742 700 806 694 867 678 c 1
 918 666 966 647 1003 617 c 0
 1077 559 1099 476 1099 395 c 0
 1099 317 1072 237 1001 181 c 0
 956 145 914 122 851 106 c 1
 855 95 l 1
 956 100 1081 105 1181 105 c 1
EndSplineSet
EndChar

StartChar: u1D6C2.ssty2
Encoding: 120514 -1 174
Width: 1038
Flags: MW
HStem: -16 88 413 61
VStem: 209 124
LayerCount: 2
Fore
SplineSet
824 476 m 1
 902 440 l 1
 746 261 l 1
 801 112 l 2
 807 98 815 83 829 73 c 0
 836 67 845 64 856 64 c 0
 868 64 895 81 916 95 c 1
 931 94 l 1
 943 79 l 1
 912 53 881 28 846 7 c 1
 824 -5 801 -18 773 -18 c 0
 756 -18 737 -15 724 -4 c 0
 698 19 671 101 653 158 c 1
 644 159 l 1
 613 129 565 86 543 69 c 0
 513 45 480 24 441 8 c 0
 411 -5 379 -14 344 -14 c 0
 317 -14 289 -7 270 8 c 0
 248 26 235 49 226 72 c 0
 214 103 209 136 209 168 c 0
 209 257 249 344 330 407 c 0
 383 449 454 474 530 474 c 0
 577 474 619 459 653 433 c 0
 674 416 698 374 716 333 c 1
 727 333 l 1
 824 476 l 1
633 220 m 1
 622 248 609 281 596 308 c 0
 583 335 568 365 540 386 c 0
 520 402 495 414 466 414 c 0
 437 414 409 403 389 386 c 1
 367 369 356 346 349 322 c 1
 337 288 334 252 334 217 c 0
 334 191 337 165 346 141 c 0
 353 122 364 104 381 90 c 0
 395 79 414 72 433 72 c 0
 468 72 496 90 520 108 c 0
 546 128 582 158 633 220 c 1
EndSplineSet
EndChar

StartChar: u1D6C3.ssty2
Encoding: 120515 -1 175
Width: 1022
Flags: MW
HStem: -194 21<245 245> -11 37<540 555> 338 34<426 446> 630 46<506.5 513>
VStem: 237 129 675 144
LayerCount: 2
Fore
SplineSet
368 -152 m 1
 245 -194 l 1
 229 -184 l 1
 235 -62 235 156 235 326 c 0
 235 384 237 442 258 497 c 1
 276 540 300 582 340 614 c 0
 393 655 470 676 543 676 c 0
 598 676 655 670 694 639 c 0
 723 616 742 585 742 552 c 0
 742 506 719 462 677 429 c 0
 649 408 618 393 580 383 c 1
 578 372 l 1
 613 369 647 367 679 358 c 0
 709 349 738 338 760 320 c 0
 798 291 818 248 818 206 c 0
 818 150 799 93 748 53 c 0
 686 5 598 -11 512 -11 c 0
 490 -11 467 -10 445 -5 c 0
 429 -1 412 4 401 13 c 0
 393 19 387 26 382 34 c 1
 453 109 l 1
 467 106 l 1
 472 86 481 65 497 49 c 0
 511 36 530 26 550 26 c 0
 578 26 603 35 622 50 c 0
 642 66 655 88 662 109 c 0
 672 136 675 165 675 194 c 0
 675 222 656 279 617 309 c 0
 599 323 574 327 549 331 c 0
 509 337 467 338 425 338 c 1
 426 372 l 1
 481 372 534 388 572 418 c 0
 611 448 625 490 625 531 c 0
 625 556 612 583 590 600 c 0
 564 620 531 630 495 630 c 0
 458 630 425 616 401 595 c 0
 382 579 374 556 368 535 c 0
 359 498 357 461 357 424 c 0
 357 423 364 40 368 -152 c 1
EndSplineSet
EndChar

StartChar: u1D6C4.ssty2
Encoding: 120516 -1 176
Width: 958
Flags: MW
HStem: -201 19 407 65
VStem: 440 88
LayerCount: 2
Fore
SplineSet
459 -201 m 1
 375 -152 l 1
 446 -7 l 1
 439 68 422 174 396 246 c 0
 378 296 359 346 311 384 c 0
 292 399 263 408 235 408 c 0
 194 408 151 387 121 366 c 1
 102 391 l 1
 158 435 230 471 311 471 c 0
 356 471 400 460 431 436 c 1
 470 404 494 363 505 319 c 0
 520 260 526 208 528 133 c 1
 539 131 l 1
 616 241 672 342 716 463 c 1
 738 475 l 1
 830 444 l 1
 755 329 675 233 595 138 c 0
 578 117 543 62 532 33 c 1
 532 -27 532 -112 523 -166 c 1
 459 -201 l 1
EndSplineSet
EndChar

StartChar: u1D6C5.ssty2
Encoding: 120517 -1 177
Width: 887
Flags: MW
HStem: -11 69<361 482.5> 624 49
VStem: 199 119<208.5 213> 599 92
LayerCount: 2
Fore
SplineSet
399 390 m 1
 345 350 318 293 318 236 c 0
 318 181 338 125 389 85 c 0
 409 69 434 58 463 58 c 0
 502 58 548 67 571 87 c 0
 592 105 600 141 600 169 c 0
 600 201 578 230 556 257 c 0
 524 296 482 329 437 361 c 1
 399 390 l 1
632 655 m 1
 611 612 l 1
 588 616 523 624 480 624 c 0
 459 624 437 623 416 619 c 0
 403 617 389 614 380 606 c 1
 369 599 365 588 365 577 c 0
 365 558 383 542 400 528 c 0
 430 502 479 470 520 443 c 0
 568 412 612 378 646 338 c 0
 670 310 691 279 691 244 c 0
 691 177 659 111 599 64 c 0
 541 19 466 -11 385 -11 c 0
 337 -11 289 -1 256 26 c 1
 211 61 199 113 199 163 c 0
 199 263 273 351 372 411 c 1
 354 425 338 439 323 455 c 0
 305 474 285 495 285 518 c 0
 285 561 313 599 351 629 c 0
 373 646 401 655 430 661 c 0
 469 670 508 672 526 672 c 0
 546 672 594 667 624 664 c 1
 632 655 l 1
EndSplineSet
EndChar

StartChar: u1D6DC.ssty2
Encoding: 120540 -1 178
Width: 890
Flags: MW
HStem: -7 62<413.5 573> 218 44 429 42<473.5 508.5>
VStem: 202 135
LayerCount: 2
Fore
SplineSet
619 263 m 1
 600 219 l 1
 561 219 l 2
 476 219 390 218 348 216 c 1
 340 207 l 1
 347 164 370 121 411 89 c 0
 446 62 496 55 543 55 c 0
 603 55 660 72 706 100 c 1
 716 99 l 1
 730 80 l 1
 653 24 549 -7 444 -7 c 0
 383 -7 320 1 276 36 c 0
 219 80 202 145 202 206 c 0
 202 279 230 350 296 402 c 0
 353 447 431 471 511 471 c 0
 586 471 658 446 709 403 c 1
 647 339 l 1
 630 342 l 1
 617 364 601 386 579 403 c 0
 556 421 525 429 492 429 c 0
 455 429 419 418 393 397 c 0
 352 364 335 318 334 273 c 1
 341 264 l 1
 384 262 427 262 468 262 c 0
 518 262 569 262 619 263 c 1
EndSplineSet
EndChar

StartChar: u1D6C7.ssty2
Encoding: 120519 -1 179
Width: 816
Flags: MW
HStem: -129 21<599 599> -10 86 586 34 655 20
VStem: 195 133 606 93
LayerCount: 2
Fore
SplineSet
599 -129 m 1
 574 -115 l 1
 591 -93 606 -69 606 -42 c 0
 606 -33 600 -23 592 -15 c 1
 577 -3 564 -1 531 -1 c 0
 513 -1 494 -3 476 -4 c 0
 446 -7 402 -9 387 -9 c 0
 363 -9 291 1 262 24 c 0
 215 60 197 112 197 162 c 0
 197 242 236 317 291 385 c 0
 337 442 396 492 456 540 c 0
 475 554 495 567 516 580 c 1
 513 589 l 1
 483 590 420 596 380 603 c 0
 356 607 331 614 310 623 c 1
 307 634 l 1
 350 674 l 1
 363 674 l 1
 386 660 414 647 440 640 c 1
 472 630 533 617 595 617 c 0
 621 617 648 620 671 623 c 1
 671 599 l 1
 617 585 566 565 523 536 c 0
 466 498 423 450 389 398 c 0
 351 341 330 287 330 214 c 0
 330 172 338 128 375 97 c 0
 401 76 460 72 471 72 c 0
 489 72 511 73 535 75 c 0
 559 77 582 78 602 78 c 0
 610 78 660 75 683 58 c 1
 693 49 698 38 698 26 c 0
 698 4 685 -16 671 -37 c 0
 650 -69 626 -99 599 -129 c 1
EndSplineSet
EndChar

StartChar: u1D6C8.ssty2
Encoding: 120520 -1 180
Width: 965
Flags: MW
HStem: -197 21<608 608> -7 21<257 257> 398 72
VStem: 252 123 597 125
LayerCount: 2
Fore
SplineSet
731 -156 m 1
 608 -197 l 1
 592 -185 l 1
 599 -79 599 61 599 184 c 0
 599 232 599 292 593 326 c 1
 591 346 585 367 567 381 c 0
 549 395 526 402 503 402 c 0
 454 402 411 386 372 365 c 1
 372 291 374 53 376 31 c 1
 257 -7 l 1
 244 3 l 1
 244 104 253 206 253 307 c 0
 253 336 253 374 233 390 c 0
 227 395 218 396 208 396 c 0
 187 396 158 381 136 369 c 1
 118 392 l 1
 152 417 178 436 213 451 c 0
 240 463 266 470 296 470 c 0
 315 470 332 466 345 456 c 0
 357 446 364 431 368 406 c 1
 380 403 l 1
 413 420 448 435 483 447 c 0
 520 460 560 469 599 469 c 0
 635 469 664 456 688 437 c 0
 709 420 714 393 716 370 c 1
 720 340 721 253 721 195 c 0
 721 78 721 -39 731 -156 c 1
EndSplineSet
EndChar

StartChar: u1D6C9.ssty2
Encoding: 120521 -1 181
Width: 961
Flags: MW
HStem: -14 67<400.5 512> 317 44<325 469 469 470 325 325 470 628> 622 55<442 559>
VStem: 202 108<280.5 388> 640 118<286 422.5>
LayerCount: 2
Fore
SplineSet
535 677 m 0
 583 677 630 667 665 640 c 0
 699 613 720 578 735 542 c 1
 752 496 758 447 758 398 c 0
 758 330 750 262 726 196 c 1
 706 146 678 98 630 61 c 1
 575 17 503 -14 423 -14 c 0
 378 -14 332 -1 299 25 c 0
 262 54 242 95 228 135 c 0
 208 192 202 251 202 310 c 0
 202 369 206 440 229 496 c 0
 248 541 273 581 317 612 c 0
 376 654 454 677 535 677 c 0
469 361 m 1
 628 361 l 1
 638 370 l 1
 635 403 629 442 621 472 c 0
 610 516 592 559 550 591 c 0
 528 609 491 622 459 622 c 0
 425 622 397 612 373 593 c 1
 347 574 334 546 327 519 c 0
 313 471 310 405 310 371 c 1
 323 361 l 1
 469 361 l 1
314 306 m 1
 318 272 324 237 336 204 c 0
 351 160 371 113 411 81 c 0
 439 58 463 53 494 53 c 0
 530 53 563 58 586 81 c 0
 606 100 620 129 627 154 c 0
 637 190 640 264 640 308 c 1
 629 317 l 1
 470 317 l 1
 325 317 l 1
 314 306 l 1
EndSplineSet
EndChar

StartChar: u1D6CA.ssty2
Encoding: 120522 -1 182
Width: 620
Flags: MW
HStem: -11 79<320 426> 449 20<357 357>
VStem: 248 117
LayerCount: 2
Fore
SplineSet
495 104 m 1
 509 92 l 1
 494 73 477 54 458 39 c 0
 424 12 381 -11 330 -11 c 0
 310 -11 287 0 274 12 c 0
 267 19 254 39 250 54 c 0
 243 82 243 111 243 139 c 0
 243 239 243 338 237 438 c 1
 357 469 l 1
 372 461 l 1
 366 362 364 264 364 165 c 0
 364 135 366 91 383 77 c 0
 391 71 400 68 410 68 c 0
 442 68 465 86 485 104 c 1
 495 104 l 1
EndSplineSet
EndChar

StartChar: u1D6CB.ssty2
Encoding: 120523 -1 183
Width: 886
Flags: MW
HStem: -9 18 451 19
VStem: 237 122
LayerCount: 2
Fore
SplineSet
670 467 m 1
 757 437 l 1
 757 427 l 1
 721 414 614 371 566 344 c 0
 523 320 496 305 458 278 c 1
 503 235 547 196 596 158 c 0
 644 120 699 80 748 49 c 1
 749 40 l 1
 625 -12 l 1
 575 26 526 65 480 106 c 2
 369 208 l 1
 359 201 l 1
 359 141 360 85 363 25 c 1
 250 -7 l 1
 237 -1 l 1
 237 75 240 150 240 226 c 0
 240 233 236 367 234 437 c 1
 356 471 l 1
 368 459 l 1
 359 259 l 1
 367 255 l 1
 419 298 484 347 523 375 c 0
 569 408 618 439 670 467 c 1
EndSplineSet
EndChar

StartChar: u1D6CC.ssty2
Encoding: 120524 -1 184
Width: 901
Flags: MW
HStem: -11 21 624 55
VStem: 139 628
LayerCount: 2
Fore
SplineSet
441 374 m 1
 407 315 369 250 351 215 c 0
 318 151 279 73 259 20 c 1
 148 -6 l 1
 139 7 l 1
 180 79 226 150 274 220 c 2
 405 408 l 2
 411 416 418 427 423 436 c 1
 403 484 380 530 372 545 c 0
 360 565 345 587 325 603 c 0
 307 617 285 626 259 626 c 0
 234 626 206 622 179 615 c 1
 168 638 l 1
 224 659 285 679 349 679 c 0
 386 679 422 668 447 647 c 1
 469 630 481 608 492 586 c 0
 525 525 549 461 578 398 c 0
 634 277 694 158 761 41 c 1
 758 29 l 1
 642 -8 l 1
 614 3 l 1
 561 131 509 247 450 374 c 1
 441 374 l 1
EndSplineSet
EndChar

StartChar: u1D6CD.ssty2
Encoding: 120525 -1 185
Width: 959
Flags: MW
HStem: -10 21G<666 689.5>
VStem: 234 119 591 121
LayerCount: 2
Fore
SplineSet
591 116 m 1
 592 255 l 2
 592 307 590 379 589 441 c 1
 702 474 l 1
 716 468 l 1
 715 378 713 247 713 199 c 0
 713 163 713 109 733 93 c 0
 740 88 749 84 758 84 c 0
 782 84 806 97 827 110 c 1
 838 109 l 1
 849 96 l 1
 818 68 787 41 750 19 c 0
 728 5 704 -10 675 -10 c 0
 657 -10 634 -6 622 4 c 0
 602 21 593 47 591 74 c 1
 555 52 516 31 475 15 c 0
 444 3 411 -6 378 -6 c 0
 347 -6 317 0 294 22 c 1
 285 19 l 1
 285 -27 l 2
 285 -74 295 -120 316 -164 c 1
 234 -196 l 1
 215 -182 l 1
 232 26 234 254 234 254 c 1
 234 315 229 376 226 437 c 1
 346 473 l 1
 363 465 l 1
 359 395 356 324 356 254 c 0
 356 216 356 178 364 141 c 0
 368 119 376 96 396 81 c 1
 410 69 437 69 459 69 c 0
 509 69 554 94 591 116 c 1
EndSplineSet
EndChar

StartChar: u1D6CE.ssty2
Encoding: 120526 -1 186
Width: 950
Flags: MW
HStem: -6 21<479 479> 405 65
VStem: 103 703
LayerCount: 2
Fore
SplineSet
716 471 m 1
 799 445 l 1
 804 432 l 1
 794 413 784 393 772 373 c 2
 562 20 l 1
 479 -6 l 1
 467 -1 l 1
 447 83 426 169 392 251 c 0
 380 278 365 305 349 330 c 0
 339 346 294 405 233 405 c 0
 206 405 180 397 158 387 c 1
 135 416 l 1
 181 452 248 473 313 473 c 0
 353 473 397 465 425 441 c 0
 460 412 479 372 495 333 c 0
 523 268 541 198 557 131 c 1
 568 130 l 1
 630 256 l 1
 657 322 678 389 687 456 c 1
 716 471 l 1
EndSplineSet
EndChar

StartChar: u1D6CF.ssty2
Encoding: 120527 -1 187
Width: 890
Flags: MW
HStem: -126 21<672 672> 1 87 339 29 607 29 669 20<313 313>
VStem: 190 142 687 86<-55 36.5>
LayerCount: 2
Fore
SplineSet
672 -126 m 1
 648 -110 l 1
 665 -91 687 -64 687 -46 c 0
 687 -33 679 -20 668 -11 c 0
 653 1 625 3 603 3 c 0
 541 3 449 -9 405 -9 c 0
 373 -9 340 -5 309 2 c 0
 286 8 263 17 244 31 c 0
 206 61 190 103 190 145 c 0
 190 194 229 235 272 269 c 0
 303 293 356 319 395 331 c 1
 395 342 l 1
 384 344 326 356 298 377 c 0
 273 396 263 423 263 449 c 0
 263 484 286 514 317 538 c 0
 337 553 361 565 386 576 c 0
 405 584 422 590 442 596 c 1
 439 606 l 1
 406 607 373 609 339 614 c 0
 313 618 275 625 262 640 c 1
 313 689 l 1
 322 688 l 1
 340 673 369 659 395 651 c 0
 429 640 473 635 510 635 c 0
 557 635 589 637 629 641 c 1
 633 612 l 1
 595 608 556 602 520 592 c 1
 495 584 470 575 452 560 c 1
 423 538 396 511 396 478 c 0
 396 451 401 422 426 402 c 0
 444 388 468 382 491 377 c 0
 527 370 563 368 599 367 c 1
 599 341 l 1
 524 336 446 323 392 280 c 0
 358 254 329 221 329 183 c 0
 329 154 331 124 358 103 c 0
 388 80 432 77 474 77 c 0
 530 77 614 88 656 88 c 0
 677 88 698 87 717 83 c 0
 731 81 744 78 755 70 c 0
 769 59 773 44 773 29 c 0
 773 4 764 -20 750 -42 c 0
 730 -73 701 -100 672 -126 c 1
EndSplineSet
EndChar

StartChar: u1D6D1.ssty2
Encoding: 120529 -1 188
Width: 980
Flags: MW
HStem: -5 21 388 97<254 735 303 371 433 582 433 433 706 735 735 761.5 303 796 706 706> 509 14
VStem: 572 123
LayerCount: 2
Fore
SplineSet
303 485 m 2
 735 485 l 2
 788 485 850 493 881 523 c 1
 899 511 l 1
 881 478 858 439 836 410 c 1
 818 389 806 388 796 388 c 2
 706 388 l 1
 700 344 695 294 695 258 c 0
 695 203 695 126 729 100 c 0
 742 89 760 81 780 81 c 0
 799 81 824 94 841 107 c 1
 853 105 l 1
 864 85 l 1
 837 63 809 40 775 23 c 0
 751 11 723 1 693 1 c 0
 663 1 632 6 610 23 c 0
 592 37 586 58 582 78 c 0
 574 113 574 148 574 183 c 0
 574 248 580 315 590 380 c 1
 582 388 l 1
 433 388 l 1
 417 314 397 241 373 169 c 1
 353 113 326 58 299 4 c 1
 284 -4 l 1
 194 8 l 1
 192 21 l 1
 208 40 273 125 314 200 c 0
 337 243 361 333 371 388 c 1
 262 388 l 2
 246 388 230 381 219 371 c 0
 190 347 172 314 158 279 c 1
 126 291 l 1
 141 355 169 450 197 468 c 0
 209 476 220 478 234 481 c 0
 256 485 280 485 303 485 c 2
EndSplineSet
EndChar

StartChar: u1D6D2.ssty2
Encoding: 120530 -1 189
Width: 917
Flags: MW
HStem: -196 21<263 263> 2 51 437 37
VStem: 226 126 614 147
LayerCount: 2
Fore
SplineSet
370 -166 m 1
 263 -196 l 1
 247 -193 234 -188 234 -181 c 0
 229 -68 226 55 226 162 c 0
 226 213 230 265 247 315 c 1
 257 350 282 397 316 420 c 0
 381 464 437 474 516 474 c 0
 583 474 653 459 700 421 c 1
 751 382 762 325 762 270 c 0
 762 226 757 183 742 141 c 1
 729 109 712 79 683 55 c 1
 636 19 567 -2 516 -2 c 0
 459 -2 398 14 354 55 c 1
 344 53 l 1
 344 -15 361 -88 379 -154 c 1
 370 -166 l 1
361 133 m 0
 368 112 379 92 398 77 c 0
 419 61 450 53 479 53 c 0
 513 53 542 66 566 85 c 0
 588 102 601 130 607 154 c 0
 618 192 620 227 620 266 c 0
 620 297 614 332 605 362 c 0
 598 383 586 403 568 418 c 0
 552 431 530 439 506 439 c 0
 473 439 440 429 416 410 c 0
 390 390 378 364 368 337 c 1
 356 300 349 261 349 222 c 0
 349 198 351 160 361 133 c 0
EndSplineSet
EndChar

StartChar: u1D6D4.ssty2
Encoding: 120532 -1 190
Width: 1022
Flags: MW
HStem: -11 43<463.5 493.5 463.5 510.5> 421 43
VStem: 205 146<210 256.5> 615 124
LayerCount: 2
Fore
SplineSet
482 425 m 0
 453 425 427 414 406 397 c 0
 380 377 351 324 351 228 c 0
 351 192 353 157 365 122 c 1
 372 98 382 75 404 57 c 1
 424 42 450 32 477 32 c 0
 510 32 538 47 560 64 c 0
 582 82 593 106 601 129 c 0
 613 163 615 198 615 233 c 0
 615 267 613 302 603 335 c 0
 597 357 582 378 564 396 c 0
 546 413 511 425 482 425 c 0
886 475 m 1
 895 471 l 1
 870 393 l 1
 858 386 l 1
 629 421 l 1
 622 414 l 1
 647 402 661 391 684 372 c 0
 728 335 740 281 740 231 c 0
 740 166 722 100 663 53 c 1
 612 14 546 -11 475 -11 c 0
 405 -11 332 -2 281 38 c 0
 220 86 205 157 205 224 c 0
 205 289 214 361 274 408 c 0
 330 452 404 464 482 464 c 0
 613 465 755 472 886 475 c 1
EndSplineSet
EndChar

StartChar: u1D6D5.ssty2
Encoding: 120533 -1 191
Width: 882
Flags: MW
HStem: -7 78 372 88<543 634 634 658.5 292 684 543 543> 483 15
VStem: 141 34 389 126
LayerCount: 2
Fore
SplineSet
684 372 m 2
 543 372 l 1
 529 361 l 1
 523 320 514 261 514 223 c 0
 514 197 517 166 524 141 c 0
 530 117 540 98 560 82 c 0
 571 73 588 69 603 69 c 0
 618 69 643 80 664 93 c 1
 675 92 l 1
 687 77 l 1
 662 55 625 28 591 13 c 0
 567 2 540 -7 511 -7 c 0
 483 -7 452 -4 433 11 c 0
 417 24 403 38 396 56 c 0
 388 79 387 103 387 127 c 0
 387 147 388 180 390 200 c 0
 398 260 404 305 410 361 c 1
 400 371 l 1
 314 371 l 2
 289 371 243 368 223 353 c 0
 197 332 183 298 171 268 c 1
 141 276 l 1
 150 315 164 370 170 391 c 0
 175 407 182 422 195 434 c 1
 221 453 257 460 292 460 c 2
 634 460 l 2
 683 460 731 472 769 497 c 1
 782 488 l 1
 771 446 740 413 706 381 c 0
 700 375 692 372 684 372 c 2
EndSplineSet
EndChar

StartChar: u1D6D6.ssty2
Encoding: 120534 -1 192
Width: 930
Flags: MW
HStem: 0 64 391 82
VStem: 248 123 668 99
LayerCount: 2
Fore
SplineSet
579 399 m 1
 576 411 l 1
 672 472 l 1
 691 466 l 1
 750 422 766 357 766 295 c 0
 766 208 719 126 641 65 c 0
 588 23 516 -2 439 -2 c 0
 393 -2 345 5 311 31 c 0
 273 61 250 106 250 145 c 0
 250 149 249 252 248 305 c 0
 248 334 243 366 226 381 c 0
 219 387 208 392 198 392 c 0
 175 392 149 381 126 371 c 1
 108 390 l 1
 165 423 245 471 289 471 c 0
 309 471 329 465 343 454 c 0
 368 435 368 380 368 371 c 2
 368 240 l 2
 368 211 371 180 381 152 c 0
 389 130 402 110 423 94 c 1
 447 74 483 65 518 65 c 0
 554 65 591 77 617 97 c 0
 657 129 668 183 668 230 c 0
 668 293 633 352 579 399 c 1
EndSplineSet
EndChar

StartChar: u1D6DF.ssty2
Encoding: 120543 -1 193
Width: 1222
Flags: MW
HStem: -7 35<507 531 507 531 673 701> 437 32<503.5 528 673 695>
VStem: 205 147<219 252 219 259> 541 122<-40 -16 -40 -16> 874 147<230.5 263.5>
LayerCount: 2
Fore
SplineSet
548 -196 m 1
 532 -185 l 1
 536 -130 541 -73 541 -16 c 1
 531 -7 l 1
 478 -7 430 -5 380 7 c 0
 345 15 311 27 286 47 c 0
 226 94 205 161 205 227 c 0
 205 291 223 358 282 404 c 0
 317 431 382 469 530 469 c 1
 540 479 l 1
 538 532 535 584 534 637 c 1
 656 672 l 1
 665 663 l 1
 663 637 663 561 662 479 c 1
 673 469 l 1
 727 469 782 469 851 454 c 0
 889 445 926 432 955 409 c 0
 1005 370 1021 313 1021 259 c 0
 1021 186 995 114 929 62 c 0
 856 5 759 -7 673 -7 c 1
 663 -16 l 1
 663 -64 663 -111 664 -159 c 1
 548 -196 l 1
528 437 m 1
 479 437 443 421 404 391 c 0
 383 374 370 352 364 330 c 0
 355 301 352 268 352 236 c 0
 352 202 357 167 369 134 c 0
 379 109 394 84 417 65 c 0
 448 40 483 28 531 28 c 1
 540 38 l 1
 540 427 l 1
 528 437 l 1
673 28 m 1
 729 28 775 46 806 71 c 0
 830 90 846 116 857 143 c 1
 869 177 874 213 874 248 c 0
 874 279 871 310 861 340 c 0
 853 361 844 382 823 398 c 0
 775 437 717 437 673 437 c 1
 662 428 l 1
 662 36 l 1
 673 28 l 1
EndSplineSet
EndChar

StartChar: u1D6D8.ssty2
Encoding: 120536 -1 194
Width: 890
Flags: MW
HStem: -194 70 385 78
VStem: 100 698
LayerCount: 2
Fore
SplineSet
793 -116 m 1
 799 -138 l 1
 765 -153 731 -168 697 -179 c 0
 675 -186 651 -193 627 -193 c 0
 601 -193 576 -185 557 -171 c 1
 530 -149 511 -121 494 -94 c 0
 474 -61 433 11 401 71 c 1
 388 71 l 1
 361 41 294 -44 228 -191 c 1
 213 -197 l 1
 117 -162 l 1
 195 -62 282 32 369 124 c 1
 335 190 292 270 274 299 c 0
 259 324 239 355 218 372 c 0
 207 380 194 386 180 386 c 0
 175 386 168 385 163 383 c 0
 154 380 132 369 116 359 c 1
 95 381 l 1
 123 402 158 426 192 442 c 0
 214 453 240 462 266 462 c 0
 281 462 298 460 309 451 c 0
 334 432 349 409 363 385 c 0
 366 381 415 291 452 222 c 1
 463 222 l 1
 677 464 l 1
 695 470 l 1
 758 436 l 1
 756 425 l 1
 672 334 570 255 481 167 c 1
 534 70 604 -54 657 -97 c 0
 677 -113 704 -122 731 -122 c 0
 752 -122 773 -119 793 -116 c 1
EndSplineSet
EndChar

StartChar: u1D6D9.ssty2
Encoding: 120537 -1 195
Width: 1162
Flags: MW
HStem: -196 21<534 534> -6 34 391 81 652 20<643 643>
VStem: 233 123<174 251> 528 121 856 110<256 275.5>
LayerCount: 2
Fore
SplineSet
643 672 m 1
 653 663 l 1
 648 615 648 407 648 279 c 2
 648 43 l 1
 658 35 l 1
 710 42 758 61 788 85 c 0
 842 127 856 190 856 248 c 0
 856 303 824 353 773 390 c 1
 773 404 l 1
 851 465 l 1
 851 465 873 459 879 458 c 1
 932 414 966 356 966 295 c 0
 966 217 931 136 860 81 c 0
 820 49 769 27 715 13 c 0
 697 8 674 5 658 2 c 1
 648 -8 l 1
 649 -59 649 -108 650 -159 c 1
 534 -196 l 1
 519 -185 l 1
 524 -129 526 -71 528 -13 c 1
 519 -5 l 1
 472 -5 423 -3 378 6 c 0
 345 13 314 22 291 40 c 0
 270 57 256 78 248 101 c 1
 236 129 233 159 233 189 c 0
 233 224 236 259 236 294 c 0
 236 360 227 371 215 381 c 0
 206 388 193 391 180 391 c 0
 160 391 135 380 117 371 c 1
 102 390 l 1
 135 412 170 433 208 450 c 0
 231 461 257 471 285 471 c 0
 302 471 321 467 334 457 c 0
 348 446 359 428 359 352 c 0
 359 312 356 271 356 231 c 0
 356 197 358 162 369 129 c 0
 378 104 393 79 416 61 c 0
 444 40 481 28 520 28 c 1
 530 36 l 1
 530 266 l 2
 530 390 524 513 520 637 c 1
 643 672 l 1
EndSplineSet
EndChar

StartChar: u1D6DA.ssty2
Encoding: 120538 -1 196
Width: 1337
Flags: MW
HStem: -7 77 478 20
VStem: 195 115<167.5 305.5> 606 118<257 311 257 369 257 375> 1034 100<208.5 333.5>
LayerCount: 2
Fore
SplineSet
936 432 m 1
 1014 495 l 1
 1038 499 l 1
 1070 485 1096 453 1110 426 c 1
 1127 390 1134 352 1134 315 c 0
 1134 220 1092 128 1006 61 c 0
 953 19 882 -7 807 -7 c 0
 757 -7 704 -2 668 26 c 0
 652 38 639 58 630 74 c 1
 613 74 l 1
 584 52 552 31 517 15 c 0
 484 0 441 -9 398 -9 c 0
 351 -9 305 4 272 30 c 0
 215 74 195 137 195 198 c 0
 195 287 223 379 306 443 c 0
 338 468 379 486 423 496 c 1
 443 476 l 1
 422 467 403 455 387 441 c 1
 331 398 310 336 310 275 c 0
 310 211 335 148 393 102 c 0
 418 82 454 73 491 73 c 0
 528 73 549 86 575 106 c 0
 600 126 606 174 606 207 c 2
 606 369 l 2
 606 381 603 431 600 464 c 1
 724 496 l 1
 736 486 l 1
 729 416 724 346 724 276 c 0
 724 238 727 201 738 164 c 0
 746 139 758 114 781 96 c 0
 807 76 838 67 873 67 c 0
 911 67 949 79 976 100 c 0
 1019 134 1034 185 1034 232 c 0
 1034 300 1004 366 939 413 c 1
 936 432 l 1
EndSplineSet
EndChar

StartChar: u1D6C6.ssty2
Encoding: 120518 -1 197
Width: 827
Flags: MW
HStem: -16 79 234 51 436 36<433.5 441.5>
VStem: 253 88
LayerCount: 2
Fore
SplineSet
523 286 m 1
 485 222 l 1
 470 226 426 233 410 233 c 0
 391 233 369 223 360 215 c 0
 345 201 339 187 339 168 c 0
 339 139 356 111 381 90 c 1
 411 67 455 61 496 61 c 0
 556 61 613 85 660 114 c 1
 669 113 l 1
 683 96 l 1
 640 63 592 34 539 13 c 0
 495 -4 446 -16 397 -16 c 0
 350 -16 303 -4 271 24 c 0
 243 48 227 83 227 118 c 0
 227 152 244 180 273 208 c 0
 284 218 303 230 333 239 c 1
 332 245 l 1
 318 249 308 254 291 267 c 0
 265 287 253 316 253 343 c 0
 253 379 273 405 306 428 c 0
 349 458 407 472 460 472 c 0
 516 472 572 459 612 427 c 1
 562 352 l 1
 549 352 l 1
 539 371 527 392 511 405 c 0
 488 423 458 436 425 436 c 0
 403 436 382 430 366 418 c 0
 352 407 342 394 342 378 c 0
 342 356 351 335 371 320 c 0
 387 307 411 299 433 294 c 0
 461 287 494 286 523 286 c 1
EndSplineSet
EndChar

StartChar: u1D6DD.ssty2
Encoding: 120541 -1 198
Width: 951
Flags: MW
HStem: -8 74<388.5 501.5> 291 80 633 43<472.5 484.5>
VStem: 229 123<222.5 224> 637 103
LayerCount: 2
Fore
SplineSet
120 273 m 1
 105 293 l 1
 162 327 235 370 282 370 c 0
 300 370 317 367 330 357 c 0
 352 339 352 279 352 237 c 0
 352 208 352 177 361 149 c 0
 368 129 380 108 400 93 c 1
 422 75 452 66 484 66 c 0
 519 66 533 72 559 90 c 0
 577 103 607 136 621 195 c 0
 630 232 636 270 638 307 c 1
 630 315 l 1
 508 335 l 1
 463 346 419 359 386 385 c 0
 339 422 308 469 308 521 c 0
 308 562 323 604 361 634 c 0
 397 662 447 676 498 676 c 0
 549 676 599 661 635 633 c 0
 736 554 740 449 740 351 c 1
 748 342 l 1
 768 342 801 341 815 341 c 1
 815 306 l 1
 781 306 762 306 744 307 c 1
 734 300 l 1
 721 209 676 133 617 78 c 0
 569 34 485 -8 410 -8 c 0
 367 -8 323 0 293 25 c 0
 270 43 252 68 243 93 c 0
 231 129 229 166 229 204 c 0
 229 244 227 264 214 276 c 0
 204 285 192 291 176 291 c 0
 158 291 138 282 120 273 c 1
640 359 m 1
 640 377 l 2
 640 423 633 468 615 511 c 1
 603 545 584 578 552 602 c 1
 530 620 501 633 468 633 c 0
 447 633 426 628 411 616 c 0
 397 605 387 587 387 565 c 0
 387 499 421 451 479 406 c 0
 515 377 581 361 631 353 c 1
 640 359 l 1
EndSplineSet
EndChar

StartChar: u1D6E1.ssty2
Encoding: 120545 -1 199
Width: 1291
Flags: MW
HStem: -11 79 474 69
VStem: 202 111 588 123 1009 100
LayerCount: 2
Fore
SplineSet
419 381 m 1
 431 367 l 1
 429 364 l 1
 407 355 387 343 369 329 c 0
 332 300 314 260 314 219 c 0
 314 174 330 129 371 97 c 0
 396 77 431 65 467 65 c 0
 501 65 534 72 557 91 c 0
 571 102 578 124 583 143 c 0
 590 174 590 206 590 235 c 2
 589 314 l 1
 698 346 l 1
 715 330 l 1
 713 298 709 237 709 234 c 0
 711 204 712 175 722 146 c 0
 729 126 740 104 758 89 c 1
 779 73 804 60 833 60 c 0
 874 60 915 71 945 93 c 0
 991 126 1009 178 1009 227 c 0
 1009 290 984 353 927 398 c 0
 891 426 843 443 794 454 c 0
 728 469 659 473 591 473 c 0
 519 473 446 465 378 446 c 0
 324 431 273 410 236 375 c 1
 216 389 l 1
 233 408 247 424 267 441 c 1
 314 477 383 514 433 525 c 0
 500 539 578 547 656 547 c 0
 730 547 811 540 882 524 c 0
 936 512 990 492 1030 461 c 0
 1086 417 1108 354 1108 291 c 0
 1108 202 1064 116 996 64 c 0
 932 16 851 -11 772 -11 c 0
 727 -11 681 2 649 26 c 0
 634 38 621 54 615 66 c 1
 602 69 l 1
 577 49 550 29 520 16 c 1
 484 -2 444 -11 401 -11 c 0
 349 -11 299 3 263 32 c 0
 219 66 202 114 202 162 c 0
 202 222 234 279 288 321 c 0
 324 349 369 369 419 381 c 1
EndSplineSet
EndChar

StartChar: u1D6D7.ssty2
Encoding: 120535 -1 200
Width: 1156
Flags: MW
HStem: 421 47<711.5 712.5>
VStem: 204 135 480 122 822 138<236.5 281.5>
LayerCount: 2
Fore
SplineSet
491 -201 m 1
 474 -197 l 1
 477 -154 480 -60 480 -9 c 1
 473 -1 l 1
 448 0 430 3 404 8 c 0
 359 17 315 33 281 59 c 0
 226 103 204 165 204 227 c 0
 204 287 226 347 280 390 c 1
 334 431 406 460 479 472 c 1
 490 448 l 1
 455 439 423 424 396 403 c 0
 351 367 338 316 338 266 c 0
 338 192 354 110 423 56 c 0
 437 44 452 39 473 36 c 1
 480 42 l 1
 480 270 l 2
 480 331 506 365 553 403 c 0
 591 434 668 468 755 468 c 0
 803 468 853 458 888 431 c 0
 941 389 960 331 960 273 c 0
 960 200 931 128 865 76 c 0
 797 22 704 -1 608 -3 c 1
 601 -10 l 1
 601 -62 605 -138 607 -171 c 1
 491 -201 l 1
609 30 m 1
 638 30 655 32 678 41 c 0
 704 52 728 64 749 81 c 0
 806 125 822 193 822 255 c 0
 822 308 800 366 759 402 c 0
 743 415 719 421 706 421 c 0
 686 421 662 418 648 407 c 0
 628 392 618 378 612 360 c 0
 603 333 601 288 601 256 c 2
 601 38 l 1
 609 30 l 1
EndSplineSet
EndChar

StartChar: u1D7CE.ssty2
Encoding: 120782 -1 201
Width: 848
Flags: MW
HStem: -15 82<369 482.5> 622 92
VStem: 151 109 611 89<294 321>
LayerCount: 2
Fore
SplineSet
482 716 m 1
 511 705 547 682 567 667 c 0
 614 630 647 583 670 533 c 0
 698 473 700 408 700 344 c 0
 700 244 672 135 568 46 c 0
 521 6 456 -15 396 -15 c 0
 342 -15 291 3 252 33 c 0
 216 61 193 98 178 136 c 0
 158 185 151 235 151 285 c 0
 151 410 190 539 307 626 c 0
 358 664 419 703 482 716 c 1
402 632 m 1
 386 625 365 615 352 604 c 0
 320 579 298 546 284 512 c 0
 266 471 259 428 259 384 c 0
 259 328 267 272 289 218 c 0
 308 174 335 133 375 101 c 0
 400 82 431 67 467 67 c 0
 498 67 526 77 546 92 c 0
 565 107 584 135 593 160 c 0
 604 188 611 224 611 274 c 0
 611 368 595 464 528 543 c 0
 511 564 489 585 465 601 c 0
 446 613 422 627 402 632 c 1
EndSplineSet
EndChar

StartChar: u1D7CF.ssty2
Encoding: 120783 -1 202
Width: 848
Flags: MW
HStem: -9 21<381 381> 694 20
VStem: 379 119
LayerCount: 2
Fore
SplineSet
186 626 m 1
 501 715 l 1
 519 697 l 1
 506 560 502 422 502 284 c 0
 502 200 502 96 505 32 c 1
 381 -9 l 1
 357 5 l 1
 372 123 379 242 379 361 c 0
 379 428 377 494 373 561 c 0
 372 569 367 579 361 585 c 0
 355 590 342 594 335 594 c 2
 186 594 l 1
 186 626 l 1
EndSplineSet
EndChar

StartChar: u1D7D0.ssty2
Encoding: 120784 -1 203
Width: 848
Flags: MW
HStem: 5 104<327 685> 640 75
VStem: 521 153
LayerCount: 2
Fore
SplineSet
719 109 m 1
 685 5 l 1
 122 5 l 1
 122 25 l 1
 236 106 339 194 425 294 c 0
 479 356 521 427 521 503 c 0
 521 544 511 587 473 616 c 0
 451 634 417 641 386 641 c 0
 359 641 332 634 308 625 c 0
 274 613 244 597 214 580 c 1
 194 604 l 1
 237 638 279 663 332 685 c 0
 374 702 421 715 468 715 c 0
 523 715 578 705 618 674 c 0
 653 646 675 609 675 569 c 0
 675 513 648 460 612 412 c 0
 531 305 418 217 321 118 c 0
 320 117 320 115 320 114 c 0
 320 112 323 109 327 109 c 2
 719 109 l 1
EndSplineSet
EndChar

